<?xml version="1.0" encoding="UTF-8"?>
<svg id="Layer_1" data-name="Layer 1" xmlns="http://www.w3.org/2000/svg" xmlns:xlink="http://www.w3.org/1999/xlink" viewBox="0 0 182.81 162.8">
  <defs>
    <style>
      .cls-1 {
        fill: #355f69;
      }

      .cls-2 {
        fill: #ec9322;
      }

      .cls-3, .cls-4 {
        opacity: .2;
      }

      .cls-3, .cls-5 {
        fill: #124551;
      }

      .cls-6 {
        fill: #72533e;
      }

      .cls-7 {
        fill: #facf48;
      }

      .cls-8 {
        fill: #fff;
      }

      .cls-9 {
        fill: #c49e30;
      }

      .cls-10 {
        fill: #54c1ee;
      }

      .cls-11 {
        fill: #1b383f;
        opacity: .5;
      }

      .cls-12 {
        fill: none;
      }

      .cls-13 {
        fill: #0d0e0e;
      }

      .cls-14 {
        fill: #5b3f29;
      }

      .cls-15 {
        clip-path: url(#clippath-1);
      }

      .cls-16 {
        fill: #f282aa;
      }

      .cls-4, .cls-17 {
        fill: #29505c;
      }

      .cls-18 {
        fill: #84654a;
      }

      .cls-19 {
        fill: #6d5341;
      }

      .cls-20 {
        fill: #89d6f5;
      }

      .cls-21 {
        fill: #6e2a49;
      }

      .cls-22 {
        clip-path: url(#clippath-3);
      }

      .cls-23 {
        fill: #967667;
      }

      .cls-24 {
        fill: #b79f96;
      }

      .cls-25 {
        fill: #eeb8cb;
      }

      .cls-26 {
        fill: #183749;
      }

      .cls-27 {
        fill: #f7e49b;
      }

      .cls-28 {
        fill: #233a3e;
      }

      .cls-29 {
        fill: #ab8871;
      }

      .cls-30 {
        fill: #452f1d;
      }

      .cls-31 {
        clip-path: url(#clippath-2);
      }

      .cls-32 {
        fill: #3d5d64;
      }

      .cls-33 {
        clip-path: url(#clippath);
      }

      .cls-34 {
        fill: #8e705a;
      }
    </style>
    <clipPath id="clippath">
      <path class="cls-12" d="M80.03,16.23c-1.16,4.41-2.33,8.82-3.49,13.23.36,1.21,4.17,13.39,16.98,17.9,12.85,4.53,23.49-2.64,24.51-3.35,2.19-5.62,4.38-11.24,6.58-16.86"/>
    </clipPath>
    <clipPath id="clippath-1">
      <path class="cls-12" d="M107.78.38l-39.39,6.75c-.97.17-1.37,1.35-.69,2.07,9.28,9.91,18.55,19.82,27.83,29.73.29.31.72.45,1.13.37,13.37-2.54,26.75-5.07,40.12-7.61.97-.18,1.35-1.38.65-2.09-9.52-9.62-19.04-19.24-28.56-28.86-.28-.29-.69-.42-1.09-.35Z"/>
    </clipPath>
    <clipPath id="clippath-2">
      <path class="cls-12" d="M160.44,111.23l-20.57-3.49c-.51-.09-.91.43-.7.9,2.86,6.49,5.71,12.97,8.57,19.46.09.2.28.35.49.38,7.03,1.06,14.05,2.13,21.08,3.19.51.08.9-.45.68-.92-3.03-6.39-6.05-12.77-9.08-19.16-.09-.19-.27-.33-.48-.36Z"/>
    </clipPath>
    <clipPath id="clippath-3">
      <path class="cls-12" d="M146.04,112.48c-1.68,1.1-3.49,2.43-5.34,4.04-1.15,1-2.19,1.99-3.12,2.95,2.82.48,7.94,1.72,13.2,5.39,5.67,3.96,8.68,8.77,10.04,11.34.64-.94,1.31-2.05,1.92-3.33,1.1-2.29,1.71-4.42,2.06-6.14-.84-2.04-3.35-7.41-9.31-11.05-3.74-2.28-7.32-2.96-9.46-3.19Z"/>
    </clipPath>
  </defs>
  <g>
    <g>
      <path class="cls-28" d="M79.6,158.59c2.8.61,7.6,1.2,12.91-.48,1.41-.44,3.8-1.22,6.3-3.15,1.17-.91,2.27-1.99,5.06-5.88,1.42-1.98,3.31-4.72,5.39-8.12"/>
      <path class="cls-17" d="M79.42,159.22c5.12,1.1,10.51.77,15.38-1.23,2.03-.84,3.99-1.98,5.57-3.53s2.86-3.39,4.14-5.17c1.86-2.6,3.63-5.27,5.31-7.99.44-.71-.68-1.37-1.12-.66-1.5,2.44-3.08,4.84-4.73,7.18-1.28,1.82-2.57,3.68-4.1,5.3-1.32,1.4-2.92,2.46-4.65,3.28-2.31,1.1-4.9,1.78-7.44,2.04-2.69.27-5.39.09-8.01-.47-.34-.07-.7.1-.8.45-.09.32.11.72.45.8h0Z"/>
    </g>
    <rect class="cls-10" x="72.52" y="121.78" width="24.29" height="28.66" transform="translate(-43.19 39.43) rotate(-21.02)"/>
    <g>
      <path class="cls-10" d="M70.22,138.64c.17,1.55.55,3.5,1.4,5.63.41,1.02.86,1.92,1.31,2.7-.62.09-4.6.75-6.05,3.79-1.74,3.65,1.28,8.42,4.16,10.12,4.81,2.83,13.51-.37,20.76-8.85l2.01-1.03c13.16-3.71,21.86-9.53,21.51-14.73-.21-3.01-3.54-7.09-7.65-7.21-3.69-.11-6.25,3.04-6.66,3.56-.48-.97-1.12-2.1-1.99-3.26-1.21-1.62-2.47-2.83-3.53-3.69"/>
      <path class="cls-17" d="M69.29,138.64c.34,3.1,1.28,6.09,2.84,8.79l.55-1.36c-2.51.38-5.21,1.65-6.47,3.96-1.91,3.49.02,7.82,2.67,10.35,1.06,1.01,2.32,1.78,3.75,2.14s2.8.35,4.2.16c3.35-.46,6.5-2.09,9.21-4.04,1.71-1.23,3.31-2.62,4.77-4.14.38-.4.76-.8,1.13-1.21.1-.11.2-.22.3-.34.02-.02.14-.17.15-.17,0,0-.12.06-.11.06.05-.02.1-.05.15-.08l1.48-.76.25-.13s.05-.03.08-.04c.1-.04-.07.02-.07.04.01-.06.7-.2.78-.23.29-.09.59-.17.88-.26,1.08-.33,2.16-.69,3.23-1.07,1.98-.7,3.94-1.49,5.84-2.39,2.97-1.4,5.93-3.09,8.29-5.4,1.62-1.58,3.12-3.69,3.06-6.06-.04-1.56-.73-3.09-1.64-4.33-1.11-1.5-2.55-2.71-4.28-3.42s-3.73-.75-5.49-.08c-1.44.55-2.72,1.45-3.8,2.55-.24.25-.48.51-.69.79l1.46.19c-1.35-2.75-3.29-5.2-5.66-7.14-.39-.32-.93-.38-1.31,0-.33.33-.39.99,0,1.31,2.26,1.85,4.08,4.15,5.37,6.77.24.5,1.1.64,1.46.19.21-.27.44-.53.68-.77.19-.2.39-.39.6-.58.11-.1.23-.2.35-.3.06-.05.13-.1.19-.15-.18.14.05-.04.1-.07.31-.22.63-.43.96-.61.16-.09.33-.18.5-.25.07-.03.15-.07.22-.1-.17.07.11-.04.16-.06.4-.15.82-.26,1.24-.33.05,0,.26-.03.1-.02.12-.01.24-.02.36-.03.23-.01.46-.01.69,0,.1,0,.2.01.3.02.04,0,.09,0,.13.01.15.02-.14-.02,0,0,.21.04.42.08.63.13.19.05.38.11.57.17.09.03.19.07.28.1.1.04,0,0-.03-.01.07.03.13.06.19.09.37.17.73.37,1.07.6.17.11.33.22.48.34-.13-.1.08.06.11.09.09.07.17.15.26.22.3.27.59.56.85.86.06.07.13.15.19.22.03.04.19.24.08.1.12.16.24.33.35.5.21.32.4.65.57.99.04.08.08.16.11.24.02.03.03.07.05.1-.08-.18-.02-.05,0-.02.06.17.13.34.18.51.05.16.09.31.13.47.02.08.03.16.05.23,0,.04.01.09.02.13-.01-.05-.02-.17,0-.05.02.24.03.47.02.71,0,.11-.02.21-.02.32-.02.21.04-.19,0-.04-.01.06-.02.12-.03.18-.04.23-.11.46-.18.68-.03.1-.07.2-.11.3-.06.15-.06.08,0-.02-.04.05-.06.13-.08.18-.11.24-.23.46-.37.69s-.28.45-.44.67c-.04.05-.08.11-.12.16-.1.14.11-.14,0,0-.1.12-.2.25-.3.37-.4.47-.83.91-1.29,1.32-.25.23-.5.44-.76.66-.13.11-.26.21-.39.31-.08.07.04-.03.04-.03-.04.03-.08.06-.12.09-.08.06-.16.12-.24.18-1.28.95-2.65,1.77-4.06,2.52-.79.42-1.6.82-2.42,1.2-.91.42-1.64.73-2.53,1.09-1.98.79-4,1.48-6.04,2.1-.69.21-1.37.37-2.01.7l-1.43.73c-.25.13-.41.29-.6.5-.35.41-.71.81-1.08,1.2-.71.75-1.44,1.47-2.21,2.16-1.41,1.27-2.77,2.3-4.43,3.3-.72.43-1.46.84-2.22,1.19-.18.08-.35.16-.53.24-.05.02-.23.1-.08.03-.11.05-.22.09-.34.14-.35.14-.71.27-1.07.39-.68.22-1.37.4-2.07.52-.16.03-.32.05-.48.08.19-.03.04,0-.06,0-.09.01-.18.02-.27.03-.32.03-.64.05-.96.05s-.61-.01-.92-.04c-.07,0-.14-.01-.22-.02-.04,0-.09,0-.12-.01,0,0,.2.03.09.01-.15-.03-.3-.05-.45-.08-.28-.06-.56-.13-.83-.22-.13-.04-.26-.09-.38-.13-.11-.04-.18-.05-.02,0-.07-.02-.14-.06-.21-.09-.27-.13-.53-.27-.78-.43-.15-.1-.3-.2-.44-.31-.11-.08.11.09,0,0-.03-.02-.06-.05-.09-.08-.08-.07-.17-.14-.25-.21-.31-.27-.6-.56-.87-.86-.34-.38-.46-.53-.71-.89s-.5-.76-.71-1.15c-.1-.19-.19-.38-.28-.57-.02-.04-.1-.24-.05-.11-.05-.11-.09-.22-.13-.34-.15-.42-.28-.85-.36-1.28-.02-.1-.04-.2-.05-.3-.02-.11,0,.01,0,.03,0-.06-.01-.12-.02-.17-.02-.22-.03-.43-.03-.65,0-.2.02-.4.03-.6.01-.11,0,.02,0,.03,0-.06.02-.11.03-.17.02-.11.04-.22.07-.34.05-.2.11-.39.18-.58,0,0,.05-.14.02-.05-.04.1.03-.07.04-.09.05-.1.1-.2.15-.3.09-.16.19-.32.3-.48.03-.05.18-.24.07-.1.07-.08.13-.16.2-.24.12-.13.24-.26.38-.38.06-.06.13-.12.2-.18.03-.02.06-.05.09-.07,0,0,.18-.15.08-.07-.08.06.11-.08.14-.1.07-.05.14-.1.21-.14.15-.1.31-.19.46-.28.14-.08.29-.16.44-.23.07-.04.14-.07.22-.1.05-.02.28-.12.17-.07s.09-.04.13-.05c.07-.03.14-.05.21-.08.14-.05.29-.1.43-.15.24-.08.49-.15.74-.21.3-.07.6-.13.91-.18.61-.09.82-.9.55-1.36-.75-1.3-1.33-2.61-1.77-4.04-.21-.68-.39-1.37-.53-2.07-.07-.33-.13-.66-.18-.99-.01-.08-.02-.15-.03-.23,0-.02-.03-.26-.02-.14s-.01-.11-.02-.14c-.01-.08-.02-.17-.03-.25-.05-.48-.39-.95-.93-.93-.46.02-.98.41-.93.93h0Z"/>
    </g>
    <g>
      <ellipse class="cls-10" cx="77.11" cy="60.05" rx="6.99" ry="4.2" transform="translate(-20.51 55.29) rotate(-35.12)"/>
      <path class="cls-17" d="M82.02,56.5c.06.09.11.17.16.26.02.04.04.1.07.14.07.1-.06-.21-.01-.02.03.1.07.2.09.3.02.08.05.39.03.12.01.22.03.43.01.65,0,.05,0,.09-.01.14-.02.22.04-.14,0,0-.04.12-.05.26-.08.38-.06.24-.14.48-.23.71-.01.04-.07.16,0,0-.02.05-.04.1-.07.14-.07.15-.14.29-.22.44-.3.54-.6.94-.92,1.32-.9,1.03-1.84,1.75-3.03,2.38-.59.31-1.05.5-1.73.7-.28.08-.57.15-.86.2.01,0-.28.04-.14.02s-.15.02-.14.01c-.14.01-.28.02-.42.03-.27,0-.53-.01-.8-.03.23.02-.14-.03-.2-.04-.12-.03-.24-.06-.35-.09-.07-.02-.13-.05-.2-.07-.05-.02-.14-.08.03.01-.1-.05-.2-.1-.3-.16-.04-.02-.08-.05-.11-.07-.01,0-.19-.14-.07-.04s-.05-.04-.06-.05c-.05-.04-.1-.09-.14-.14-.04-.04-.07-.09-.11-.12-.1-.08.12.18,0,0-.06-.09-.11-.17-.16-.26-.02-.04-.03-.07-.06-.11-.1-.17.04.14,0,.02-.02-.11-.07-.21-.1-.32-.02-.07-.06-.41-.03-.12,0-.1-.02-.19-.02-.29s0-.2,0-.3c0-.07.01-.13.02-.2.02-.2-.04.18,0-.03.05-.23.09-.45.16-.67.03-.11.07-.22.11-.32,0,0,.1-.23.04-.11-.05.1.07-.15.08-.18.11-.22.23-.44.36-.65.08-.12.15-.24.24-.36.04-.06.08-.12.13-.18.02-.03.2-.26.1-.13.83-1.04,1.76-1.82,2.86-2.48.69-.41,1.23-.66,1.97-.89.33-.1.66-.19,1-.25.06-.01.12-.02.18-.03.22-.04-.1,0,.1-.01.17-.02.34-.03.51-.04.15,0,.3,0,.45,0,.07,0,.13,0,.2.01.03,0,.29.04.06,0,.27.04.53.1.78.19.04.02.25.12.04.01.06.03.12.06.18.09.1.05.19.12.29.18.19.12-.14-.13.02.02.05.05.1.09.15.13.03.03.06.06.09.1.03.03.06.07.09.1-.08-.1-.08-.11-.02-.03.29.41.81.6,1.27.33.4-.23.63-.86.33-1.27-1.73-2.4-5.09-1.89-7.45-.85-2.59,1.14-5.09,3.38-5.95,6.15-.35,1.12-.35,2.36.21,3.41s1.67,1.7,2.82,1.89c3.01.5,6.12-1.07,8.25-3.1,1.1-1.05,2.04-2.36,2.5-3.82.37-1.2.36-2.61-.37-3.68-.28-.41-.81-.6-1.27-.33-.41.24-.62.85-.33,1.27Z"/>
    </g>
    <g>
      <ellipse class="cls-10" cx="18.18" cy="101.49" rx="6.99" ry="4.2" transform="translate(-55.07 28.93) rotate(-35.12)"/>
      <path class="cls-17" d="M23.1,97.94c.06.09.11.17.16.26.02.04.04.1.07.14.07.1-.06-.21-.01-.02.03.1.07.2.09.3.02.08.05.39.03.12.01.22.03.43.01.65,0,.05,0,.09-.01.14-.02.22.04-.14,0,0-.04.12-.05.26-.08.38-.06.24-.14.48-.23.71-.01.04-.07.16,0,0-.02.05-.04.1-.07.14-.07.15-.14.29-.22.44-.3.54-.6.94-.92,1.32-.9,1.03-1.84,1.75-3.03,2.38-.59.31-1.05.5-1.73.7-.28.08-.57.15-.86.2.01,0-.28.04-.14.02s-.15.02-.14.01c-.14.01-.28.02-.42.03-.27,0-.53-.01-.8-.03.23.02-.14-.03-.2-.04-.12-.03-.24-.06-.35-.09-.07-.02-.13-.05-.2-.07-.05-.02-.14-.08.03.01-.1-.05-.2-.1-.3-.16-.04-.02-.08-.05-.11-.07-.01,0-.19-.14-.07-.04s-.05-.04-.06-.05c-.05-.04-.1-.09-.14-.14-.04-.04-.07-.09-.11-.12-.1-.08.12.18,0,0-.06-.09-.11-.17-.16-.26-.02-.04-.03-.07-.06-.11-.1-.17.04.14,0,.02-.02-.11-.07-.21-.1-.32-.02-.07-.06-.41-.03-.12,0-.1-.02-.19-.02-.29s0-.2,0-.3c0-.07.01-.13.02-.2.02-.2-.04.18,0-.03.05-.23.09-.45.16-.67.03-.11.07-.22.11-.32,0,0,.1-.23.04-.11-.05.1.07-.15.08-.18.11-.22.23-.44.36-.65.08-.12.15-.24.24-.36.04-.06.08-.12.13-.18.02-.03.2-.26.1-.13.83-1.04,1.76-1.82,2.86-2.48.69-.41,1.23-.66,1.97-.89.33-.1.66-.19,1-.25.06-.01.12-.02.18-.03.22-.04-.1,0,.1-.01.17-.02.34-.03.51-.04.15,0,.3,0,.45,0,.07,0,.13,0,.2.01.03,0,.29.04.06,0,.27.04.53.1.78.19.04.02.25.12.04.01.06.03.12.06.18.09.1.05.19.12.29.18.19.12-.14-.13.02.02.05.05.1.09.15.13.03.03.06.06.09.1.03.03.06.07.09.1-.08-.1-.08-.11-.02-.03.29.41.81.6,1.27.33.4-.23.63-.86.33-1.27-1.73-2.4-5.09-1.89-7.45-.85-2.59,1.14-5.09,3.38-5.95,6.15-.35,1.12-.35,2.36.21,3.41s1.67,1.7,2.82,1.89c3.01.5,6.12-1.07,8.25-3.1,1.1-1.05,2.04-2.36,2.5-3.82.37-1.2.36-2.61-.37-3.68-.28-.41-.81-.6-1.27-.33-.41.24-.62.85-.33,1.27Z"/>
    </g>
    <g>
      <path class="cls-27" d="M55.28,63.3c-.79-.57-13.7-10.22-12.43-19.54.17-1.23.54-3.96,2.77-6.02,2.06-1.91,4.87-2.47,7.06-2.18,4.1.55,7.62,4.31,8.51,9.36,2.1-1.22,4.48-.97,5.71.38,1.11,1.23.87,2.93.82,3.22-.3,1.81-1.79,3.33-3.84,3.88.29,1.92.59,3.83.88,5.75"/>
      <path class="cls-17" d="M55.75,62.5c-.06-.04-.11-.08-.17-.13-.04-.03-.09-.07-.13-.1-.05-.04-.25-.19-.09-.07s-.06-.05-.11-.09c-.07-.06-.15-.12-.22-.17-.18-.14-.35-.28-.53-.43-.96-.79-1.89-1.62-2.79-2.48-1.17-1.12-2.28-2.29-3.31-3.54-.13-.15-.26-.31-.38-.47-.06-.08-.13-.16-.19-.24-.04-.05-.08-.1-.12-.15-.07-.09.09.12-.02-.02-.26-.35-.52-.69-.77-1.05-.5-.72-.97-1.47-1.4-2.24-.21-.39-.41-.78-.6-1.18-.08-.18-.17-.36-.24-.55.08.19-.03-.07-.05-.12-.05-.12-.09-.23-.13-.35-.29-.78-.52-1.58-.67-2.39-.02-.09-.03-.19-.05-.28,0-.05-.01-.09-.02-.14.03.22,0,.05,0,0-.02-.2-.04-.4-.05-.61-.03-.42-.03-.84,0-1.25.01-.19.04-.38.05-.57.01-.15-.03.22,0,.05,0-.03,0-.06.01-.09.01-.08.02-.15.03-.23.05-.36.12-.71.2-1.06.1-.42.21-.83.36-1.23.04-.1.08-.21.12-.31.01-.03.07-.16,0-.01.02-.05.05-.1.07-.16.11-.24.23-.48.36-.71.12-.22.25-.43.4-.63.16-.23.24-.33.46-.58.2-.22.4-.42.62-.62.1-.09.2-.18.31-.26.02-.01.14-.11.25-.18,1.7-1.18,3.59-1.62,5.65-1.37-.21-.02.09.02.14.03.1.02.21.04.31.06.23.05.46.11.68.18.2.06.4.13.59.21.05.02.1.04.15.06-.18-.07-.01,0,.03.02.11.05.22.1.32.15.41.2.8.44,1.17.7.1.07.2.14.3.22.11.09-.11-.09,0,0,.04.03.09.07.13.1.19.16.38.32.56.49.35.33.67.68.97,1.06.03.03.14.18.04.05.03.05.07.09.1.14.07.09.14.19.2.28.15.22.29.44.43.66.26.44.5.89.7,1.35.02.06.05.11.07.17-.02-.04-.06-.14.01.03.05.11.09.23.13.34.1.26.19.53.27.8.16.52.28,1.05.37,1.58.11.61.88.83,1.36.55.22-.12.49-.26.64-.32.28-.11.57-.2.87-.26.06-.01.13-.02.19-.04.02,0,.18-.03.04,0,.13-.02.25-.03.38-.03s.25,0,.37,0c.06,0,.12,0,.18,0,.02,0,.26.02.15.01s.07.01.1.02c.06.01.12.02.17.03.11.02.23.05.34.09.05.02.11.03.16.05.02,0,.19.07.09.03s.06.03.08.04c.06.03.12.06.18.1.1.05.19.12.28.17.15.09.04.03,0,0,.04.03.08.07.12.11.22.2.33.33.43.5.06.1.12.21.17.32.01.03.06.17,0,.02.02.05.04.11.06.16.03.11.06.21.09.32.01.05.02.1.03.16,0,.03.04.24.02.11-.02-.12.01.13.01.17,0,.09,0,.18.01.27,0,.16,0,.33-.02.49,0,.05-.02.1-.02.16,0-.05.04-.27.01-.12-.05.23-.09.45-.17.67-.02.05-.04.1-.06.15-.05.13.06-.13,0,0-.05.1-.09.2-.15.29s-.11.19-.17.28c-.02.04-.23.32-.12.18-.17.21-.35.41-.55.59-.1.09-.19.17-.3.25.12-.09,0,0-.02.01-.07.05-.14.1-.22.15-.23.15-.47.27-.71.39-.17.08-.07.03-.03.02-.09.03-.17.07-.26.1-.15.05-.3.1-.45.14-.52.14-.72.64-.65,1.14.29,1.92.59,3.83.88,5.75.08.5.7.77,1.14.65.53-.15.72-.64.65-1.14-.29-1.92-.59-3.83-.88-5.75l-.65,1.14c2.32-.64,4.24-2.45,4.54-4.9.12-.97-.04-1.99-.49-2.87-.57-1.13-1.72-1.92-2.94-2.18-1.55-.34-3.15,0-4.52.77l1.36.55c-.76-4.22-3.51-8.29-7.71-9.67-2.04-.67-4.36-.57-6.36.2-2.29.89-4.15,2.58-5.14,4.85-.69,1.59-1.06,3.4-1.04,5.14.02,1.85.52,3.65,1.24,5.34,1.42,3.33,3.78,6.24,6.29,8.8,1.64,1.67,3.39,3.22,5.26,4.63.06.05.12.09.18.14.4.3,1.03.07,1.27-.33.27-.47.07-.97-.33-1.27h0Z"/>
    </g>
    <g>
      <path class="cls-27" d="M28.32,82.26c-.27-.93-4.98-16.35-14.18-18.31-1.22-.26-3.91-.83-6.6.57-2.5,1.3-3.97,3.75-4.43,5.9-.87,4.04,1.48,8.63,5.93,11.17-1.85,1.57-2.43,3.89-1.57,5.5.78,1.46,2.47,1.81,2.76,1.86,1.8.33,3.74-.56,4.95-2.31,1.7.92,3.41,1.85,5.11,2.77"/>
      <path class="cls-17" d="M29.21,82.01c-.51-1.74-1.19-3.45-1.92-5.11-1.33-3.04-2.96-5.97-5.07-8.53s-4.91-4.73-8.28-5.4c-2.52-.5-5.15-.34-7.39,1.04-2.02,1.25-3.52,3.28-4.19,5.55-.61,2.06-.44,4.31.36,6.29.9,2.23,2.42,4.1,4.33,5.55.48.36.98.69,1.5.99l-.19-1.46c-1.86,1.6-3,4.51-1.63,6.78,1.12,1.85,3.56,2.59,5.59,2.06,1.51-.39,2.74-1.4,3.63-2.66l-1.27.33c1.7.92,3.41,1.85,5.11,2.77.44.24,1.01.11,1.27-.33s.11-1.03-.33-1.27c-1.7-.92-3.41-1.85-5.11-2.77-.47-.25-.97-.09-1.27.33-.13.18-.23.31-.44.53-.17.18-.44.43-.57.53.09-.07-.15.11-.13.09-.05.03-.1.07-.15.1-.1.07-.21.13-.31.19s-.21.11-.32.16c-.16.08-.06.03-.02.01-.08.03-.16.06-.25.09-.23.08-.47.14-.71.18-.15.03.14-.01,0,0-.06,0-.11.01-.17.02-.14.01-.28.01-.43,0-.11,0-.23-.01-.34-.02-.16-.02.21.05-.05-.01-.01,0-.02,0-.04,0-.1-.02-.19-.04-.29-.07-.13-.03-.26-.07-.38-.12-.04-.01-.07-.03-.11-.04-.19-.07.14.07.02.01-.09-.04-.18-.08-.27-.13-.09-.05-.19-.1-.28-.16-.03-.02-.26-.18-.18-.12.11.08-.09-.07-.09-.07-.04-.03-.08-.07-.12-.11-.1-.09-.19-.19-.28-.3.11.14-.08-.13-.1-.16-.06-.09-.11-.19-.16-.29-.08-.15,0-.02,0,.02-.02-.05-.04-.09-.05-.14-.04-.12-.07-.24-.1-.36-.01-.07-.04-.34-.03-.13,0-.12-.02-.23-.02-.35,0-.11,0-.21,0-.31,0-.07.01-.13.02-.2-.01.14,0,.05,0-.03.05-.26.12-.51.21-.76.02-.05.04-.11.06-.16-.07.17.03-.06.05-.1.06-.13.13-.26.21-.39s.16-.26.25-.38c.04-.05.07-.1.11-.15-.09.12.09-.11.09-.1.21-.25.44-.47.69-.68.46-.39.3-1.18-.19-1.46s-1-.61-1.46-.96c-.15-.11-.07-.06-.04-.03-.06-.05-.12-.1-.18-.15-.11-.09-.22-.18-.32-.27-.21-.18-.42-.37-.61-.57s-.38-.39-.57-.6c-.08-.09-.16-.18-.24-.28-.04-.05-.08-.09-.11-.14,0,0-.18-.23-.08-.09-.32-.42-.61-.86-.87-1.32-.12-.21-.23-.43-.34-.65-.05-.12-.11-.23-.16-.35.02.03.06.16,0-.01-.03-.08-.06-.16-.09-.24-.17-.47-.32-.94-.42-1.43-.02-.11-.04-.21-.06-.32,0-.05-.02-.11-.03-.16-.04-.26,0,.12,0-.03-.02-.25-.05-.51-.06-.76,0-.21,0-.43,0-.64,0-.12.01-.24.02-.36,0-.07.01-.13.02-.2.02-.18-.02.08,0-.03.09-.48.18-.94.34-1.4.04-.12.08-.24.13-.35.02-.05.14-.33.07-.17.11-.25.23-.5.36-.74.12-.22.25-.44.39-.65.07-.11.15-.22.23-.33.04-.05.07-.1.11-.15.04-.05.04-.05,0,0,.03-.04.06-.07.09-.11.34-.42.73-.81,1.15-1.16.16-.13.33-.26.58-.42s.52-.32.79-.45c.57-.28,1.19-.48,1.82-.6.33-.06.44-.08.78-.1.29-.02.58-.03.86-.02.27,0,.53.02.8.05.11.01.22.02.33.04.18.02.02,0-.01,0,.07.01.15.02.22.03.75.12,1.5.28,2.22.54.08.03.16.06.24.09.04.02.31.13.19.07-.14-.06.05.02.07.03.04.02.08.03.12.05.1.04.19.09.29.14.35.17.69.36,1.02.57s.66.43.97.67c.04.03.07.05.11.08-.02-.02-.16-.13-.03-.02.07.06.14.11.21.17.16.13.32.27.48.41.61.54,1.18,1.12,1.71,1.73.27.31.53.63.79.95.02.02.11.14.03.04-.09-.12.05.06.05.07.06.07.11.15.17.22.12.17.24.33.36.5.47.67.92,1.36,1.34,2.06.79,1.32,1.5,2.69,2.14,4.09.14.31.28.63.42.95.03.07.06.14.09.2.1.24-.06-.15.02.05.06.15.13.31.19.46.21.51.41,1.03.6,1.55.24.65.47,1.31.67,1.98.02.06.04.13.06.19.14.48.65.78,1.14.65s.79-.66.65-1.14h0Z"/>
    </g>
    <g>
      <path class="cls-10" d="M88.39,119.32c.4-.29.99-.71,1.68-1.26,2.32-1.83,7.62-6.09,10.86-12.92,1.02-2.15,3.49-7.36,2.89-14.08-.7-7.81-5.14-12.96-9.16-17.64,0,0-6.11-7.16-14.9-11.36-3.28-1.57-5.87-2.3-6.62-2.5-5.46-1.48-9.72-1.24-12.49-1.06-10.66.69-21.79,5.61-29.32,13.25-3.99,4.05-7.27,8.81-9.57,14.09-1.11,2.55-2.78,6.48-3.23,12.12-.06.78-.25,3.46.12,7.08.98,9.67,5.66,17.86,5.66,17.86,3.04,5.38,6.26,11.07,13.12,14.39,6.29,3.05,12.25,2.47,14.61,2.24,7.5-.73,13.28-4.26,15.83-5.85.74-.46,1.35-.87,1.75-1.16"/>
      <path class="cls-17" d="M88.86,120.12c2.65-1.88,5.16-4.02,7.35-6.42,2.62-2.88,4.72-6.14,6.26-9.72,1.62-3.78,2.54-7.85,2.34-11.97-.22-4.53-1.78-8.8-4.26-12.58-1.64-2.5-3.58-4.85-5.59-7.06-1.82-2.01-3.85-3.84-5.97-5.53-6.73-5.35-14.8-9.05-23.48-9.38s-17.09,1.86-24.55,5.94c-8.15,4.46-14.77,11.41-18.95,19.71-1.74,3.47-3.18,7.15-3.9,10.97-.76,4.02-.8,8.13-.26,12.18.85,6.45,3.12,12.71,6.34,18.35,1.98,3.47,4.14,6.9,7.1,9.62,3.5,3.22,7.93,5.32,12.62,6.07,7.74,1.23,15.63-.73,22.36-4.58,1.3-.74,2.57-1.53,3.8-2.39.41-.29.6-.81.33-1.27-.24-.41-.86-.62-1.27-.33-2.61,1.82-5.43,3.44-8.38,4.64-3.53,1.44-7.25,2.25-11.05,2.41-4.25.18-8.54-.58-12.34-2.54s-6.5-4.71-8.79-8.05c-3.33-4.85-5.86-10.03-7.49-15.62-1.25-4.28-1.87-8.7-1.71-13.16.13-3.68.92-7.31,2.22-10.75.28-.73.55-1.38.8-1.96.42-.98.87-1.95,1.36-2.91,1.04-2.04,2.24-4.01,3.58-5.88,2.57-3.58,5.66-6.83,9.19-9.47,6.94-5.17,15.46-8.44,24.11-9.01,3.91-.26,7.78-.1,11.6.85s7.3,2.5,10.57,4.49c4.83,2.93,9.02,6.71,12.64,11.02,2.49,2.96,4.84,6.14,6.19,9.81,1.52,4.17,1.71,8.71.69,13.02-.22.9-.48,1.79-.79,2.67-.23.65-.55,1.45-.74,1.91-.7,1.6-1.49,3.16-2.42,4.63-1.95,3.09-4.44,5.79-7.22,8.15-1.05.89-2.12,1.74-3.24,2.54-.41.29-.6.81-.33,1.27.24.4.86.62,1.27.33h0Z"/>
    </g>
    <path class="cls-26" d="M39.28,88.1l2.39-1.68c.14-.1.25-.22.3-.39.04-.16.02-.36-.07-.5-.18-.28-.59-.44-.89-.23l-2.39,1.68c-.14.1-.25.22-.3.39-.04.16-.02.36.07.5.18.28.59.44.89.23h0Z"/>
    <path class="cls-26" d="M62,72.12l2.39-1.68c.14-.1.25-.22.3-.39.04-.16.02-.36-.07-.5-.18-.28-.59-.44-.89-.23l-2.39,1.68c-.14.1-.25.22-.3.39-.04.16-.02.36.07.5.18.28.59.44.89.23h0Z"/>
    <circle class="cls-20" cx="88.66" cy="87.11" r="9.12"/>
    <circle class="cls-20" cx="46.95" cy="116.44" r="9.12"/>
    <ellipse class="cls-8" cx="75.94" cy="83.61" rx="6.67" ry="7.71" transform="translate(-34.28 58.9) rotate(-35.12)"/>
    <ellipse class="cls-26" cx="75.36" cy="84.01" rx="4.56" ry="5.26" transform="translate(-34.61 58.64) rotate(-35.12)"/>
    <ellipse class="cls-8" cx="48.7" cy="102.77" rx="6.67" ry="7.71" transform="translate(-50.25 46.72) rotate(-35.12)"/>
    <ellipse class="cls-26" cx="49.41" cy="102.26" rx="4.56" ry="5.26" transform="translate(-49.83 47.03) rotate(-35.12)"/>
    <circle class="cls-27" cx="87.48" cy="137.73" r="7.6"/>
    <path class="cls-7" d="M73.55,129.15c2.13-.85,4.26-1.7,6.39-2.55,1.5-1.51,2.99-3.01,4.49-4.52-.65,2.8-1.3,5.59-1.95,8.39-2.98-.44-5.95-.89-8.93-1.33Z"/>
    <g>
      <path class="cls-32" d="M67.75,132.41c.8,2.33,1.51,5.36,1.55,8.9,0,1-.04,1.95-.12,2.84-.14.06-1.49.63-1.81,2.07-.02.07-.32,1.49.4,2.11.94.81,2.95-.32,4.34-.85,6.45-2.43,15.85,1.86,19.93,1.29.43-.06,1.41-.21,1.9-.96.28-.43.3-.91.28-1.24.51-.06,1.2-.23,1.7-.76.81-.84.6-2.04.72-3.3.13-1.31.72-2.37,1.91-4.51,3.01-5.42,7.34-7.62,6.6-9.27-.23-.51-.85-.78-1.01-.85-1.24-.54-2.58.24-2.86.41-1.17-.71-2.35-1.47-3.55-2.27-3.33-2.24-6.3-4.54-8.93-6.8-1.26.9-2.52,1.79-3.77,2.69-.67,3.03-1.34,6.05-2,9.08-3.25-.54-6.5-1.07-9.75-1.61-1.83,1-3.67,2.01-5.5,3.01Z"/>
      <path class="cls-17" d="M67.12,132.58c1.27,3.72,1.76,7.65,1.4,11.57l.48-.63c-.86.36-1.65,1.01-2.04,1.87s-.52,2.13,0,2.99c.76,1.25,2.34.9,3.48.47,1.23-.46,2.37-1.01,3.67-1.25,2.49-.47,5.12-.17,7.61.26s4.78,1.03,7.2,1.4c1.02.16,2.08.29,3.11.16.64-.08,1.29-.23,1.82-.61.72-.53,1.06-1.35,1.01-2.23l-.65.65c1.17-.15,2.25-.68,2.72-1.83.22-.53.26-1.11.29-1.68.01-.26.02-.53.03-.79,0-.15.02-.29.03-.44,0-.02.02-.15,0-.08,0,.06.02-.11.02-.14.16-.86.49-1.54.89-2.31.57-1.1,1.17-2.19,1.86-3.21,1.12-1.66,2.47-3.11,3.85-4.56.49-.51.97-1.03,1.39-1.6.31-.42.56-.92.57-1.46,0-.95-.85-1.6-1.67-1.9-1.08-.39-2.31-.06-3.26.52h.66c-3.44-2.1-6.76-4.42-9.91-6.94-.83-.66-1.64-1.34-2.44-2.03-.2-.18-.54-.28-.79-.1-.96.68-1.92,1.37-2.88,2.05-.26.19-.53.37-.79.57-.12.09-.25.17-.33.3-.09.15-.11.34-.14.51-.13.58-.25,1.15-.38,1.73-.51,2.33-1.03,4.66-1.54,6.99l.8-.45c-2.11-.35-4.22-.7-6.34-1.05-1.06-.17-2.11-.35-3.17-.52-.16-.03-.34-.07-.5-.05-.15.02-.27.09-.4.17-.25.14-.5.28-.76.41-.47.26-.94.51-1.4.77-1.06.58-2.12,1.16-3.18,1.74-.73.4-.08,1.52.66,1.12,1.83-1,3.67-2.01,5.5-3.01l-.5.07c3.25.54,6.5,1.07,9.75,1.61.33.05.72-.08.8-.45.67-3.03,1.34-6.05,2-9.08l-.3.39c1.26-.9,2.52-1.79,3.77-2.69l-.79-.1c3.06,2.63,6.29,5.07,9.66,7.3.97.64,1.96,1.27,2.95,1.88.19.12.46.12.66,0,.61-.37,1.37-.66,2.12-.44.13.04.18.05.34.14.18.1.34.19.46.35.01.02.11.24.05.1-.04-.12,0,.03.01.06.05.13-.02,0,0-.02-.01.02,0,.12,0,.14.01.09.05-.16,0-.01-.01.04-.02.08-.03.11-.01.04-.03.09-.05.13.02-.07.04-.08-.02.03-.11.21-.24.4-.38.59.09-.13-.03.03-.05.07-.04.06-.09.11-.14.16-.1.12-.21.24-.32.36-.23.25-.47.5-.7.75-1.28,1.35-2.54,2.72-3.62,4.24-.67.95-1.25,1.96-1.81,2.98-.44.81-.89,1.64-1.19,2.51-.33.97-.3,1.96-.37,2.96-.04.47-.14.95-.48,1.3-.16.16-.36.28-.57.37-.12.05-.24.08-.36.11-.05.01-.1.02-.16.03-.02,0-.22.03-.12.02-.33.04-.67.26-.65.65.03.56-.13,1.01-.64,1.29-.19.1-.39.16-.62.21-.1.02-.2.04-.3.06-.03,0-.07,0-.1.01.18-.03.02,0-.02,0-.39.04-.77.04-1.16.02-.21-.01-.41-.03-.62-.05-.11-.01-.22-.02-.33-.04-.04,0-.09-.01-.13-.02-.15-.02.04,0-.1-.01-2.22-.31-4.39-.87-6.59-1.28-2.42-.45-4.9-.82-7.36-.65-1.17.08-2.35.27-3.47.67-.57.2-1.12.46-1.68.68-.51.2-1.12.45-1.63.49-.13.01-.27.02-.4,0,.12.02-.09-.03-.09-.03-.17-.05.07.05-.08-.04-.05-.03-.11-.08-.15-.15-.08-.12-.07-.12-.11-.27-.05-.19-.06-.41-.05-.68,0-.05.05-.39.01-.19,0-.06.02-.11.03-.17.11-.51.37-.9.74-1.23.04-.04.08-.07.12-.1-.09.07.04-.03.06-.04.09-.06.17-.11.26-.17.07-.04.14-.07.2-.11.11-.06.1-.05-.02,0,.29-.12.45-.31.48-.63.37-4.02-.14-8.1-1.45-11.92-.27-.79-1.52-.45-1.25.35Z"/>
    </g>
    <path class="cls-11" d="M72.41,143.58c2.07-.65,4.31-.92,6.41-.27,1.02.31,1.93.85,2.85,1.37,1.01.56,2.07,1.01,3.22,1.19,1.4.22,2.82.13,4.19-.22.46-.12.27-.83-.2-.72-1.22.31-2.49.42-3.74.23-1.14-.17-2.17-.6-3.17-1.16-.94-.53-1.87-1.06-2.9-1.38-.85-.27-1.74-.4-2.64-.42-1.44-.03-2.86.24-4.23.67-.45.14-.26.86.2.72h0Z"/>
    <path class="cls-11" d="M98.87,130.08c-1.44,1.54-2.64,3.3-3.53,5.21-.79,1.71-1.41,3.53-1.86,5.36-.11.46.6.66.72.2.92-3.78,2.52-7.38,5.2-10.25.33-.35-.2-.88-.52-.52h0Z"/>
    <g>
      <path class="cls-32" d="M83.06,131.17c.62.77,1.55,2.02,2.47,3.68,1.81,3.27,1.8,4.95,3.12,7.04.86,1.37,2.46,3.18,5.67,4.64"/>
      <path class="cls-17" d="M82.6,131.63c1.71,2.13,3.08,4.65,4.01,7.28.38,1.06.76,2.13,1.34,3.1.53.89,1.19,1.7,1.95,2.41,1.19,1.12,2.6,1.99,4.09,2.67.32.15.7.09.89-.23.16-.28.09-.74-.23-.89-1.3-.59-2.55-1.32-3.62-2.28-.78-.7-1.34-1.36-1.86-2.2-.59-.95-.91-1.85-1.28-2.89-.47-1.33-1.01-2.63-1.68-3.87-.77-1.42-1.67-2.76-2.68-4.02-.22-.27-.69-.23-.92,0-.27.27-.22.64,0,.92h0Z"/>
    </g>
    <path class="cls-17" d="M70.75,140.05c3.39-2.42,7.05-4.5,10.96-5.97,1.47-.55,2.98-.98,4.47-1.46,2.14-.69,4.21-1.55,6.22-2.57s3.8-2.12,5.56-3.39c.39-.28.01-.92-.37-.64-3.4,2.43-7.14,4.38-11.1,5.72-1.52.51-3.06.93-4.56,1.48-1.66.61-3.29,1.32-4.87,2.12-2.33,1.18-4.56,2.56-6.68,4.08-.39.28-.02.92.37.64h0Z"/>
    <g>
      <path class="cls-32" d="M87.08,121.25c-.08-2.66,0-6.75.88-11.64,1.18-6.55,2.01-11.15,5.55-13.07,3.02-1.64,6.48-.5,9.9.63,5.29,1.75,12.56,6.11,11.97,9.82-.38,2.41-3.63,1.76-7.77,6.23-2.99,3.24-2.75,5.17-6.07,8.74-2.13,2.3-4.32,3.75-5.82,4.62"/>
      <path class="cls-17" d="M87.73,121.25c-.08-2.73.05-5.46.36-8.16.2-1.68.5-3.34.8-5,.27-1.45.54-2.9.91-4.32.29-1.13.64-2.31,1.11-3.32.44-.95.93-1.73,1.65-2.42.38-.37.64-.56,1.11-.84.66-.38,1.38-.63,2.13-.75,1.56-.26,3.19.08,4.69.49,2.8.77,5.52,1.8,8.06,3.22,1.14.64,2.26,1.35,3.28,2.17.87.7,1.72,1.51,2.29,2.39.29.45.43.73.56,1.18.03.09.04.18.06.28,0,.02.03.21.01.05,0,.05.01.11.01.17,0,.09,0,.18,0,.27,0,.05,0,.11-.01.16-.01.14.03-.1-.01.06-.02.08-.04.17-.06.25-.02.06-.1.24-.03.09-.04.08-.07.15-.12.22-.02.04-.05.07-.07.1-.06.11.09-.09,0,0-.11.11-.22.23-.34.33s.12-.08-.01,0c-.03.02-.06.05-.09.07-.09.06-.17.12-.26.17-.79.48-1.66.85-2.46,1.31-1.25.71-2.41,1.59-3.44,2.59s-2.04,2.23-2.82,3.51c-.61,1-1.13,2.06-1.74,3.06-1.61,2.62-3.92,4.81-6.46,6.51-.47.31-.95.61-1.44.89-.72.42-.07,1.54.66,1.12,2.71-1.56,5.19-3.61,7.12-6.08.84-1.08,1.53-2.24,2.19-3.44.62-1.13,1.27-2.24,2.09-3.23,1.02-1.23,2.2-2.34,3.54-3.23.92-.61,1.9-1.08,2.87-1.6.7-.37,1.44-.81,1.84-1.53.45-.8.45-1.8.18-2.65-.35-1.07-1.05-1.99-1.82-2.79-.93-.96-2.02-1.78-3.14-2.52-2.4-1.58-5.04-2.78-7.77-3.68-3.22-1.06-6.91-2.17-10.08-.36-2,1.14-3.15,3.16-3.89,5.27-.44,1.27-.76,2.58-1.04,3.89-.34,1.6-.64,3.22-.91,4.84-.53,3.15-.82,6.35-.82,9.54,0,.56,0,1.11.02,1.67.02.83,1.32.84,1.3,0h0Z"/>
    </g>
    <g>
      <path class="cls-10" d="M94.08,99.99c-.27-3.02,2.62-6.84,6.5-7.38,4.21-.58,7.36,3.01,8.5,5.88.83,2.1,1.4,5.84-.5,7.56-3.36,3.04-14.03-.66-14.5-6.06Z"/>
      <path class="cls-17" d="M95.01,99.99c-.01-.17-.02-.34-.02-.52,0-.08,0-.16.01-.25,0-.05,0-.09.01-.14.02-.23-.03.13,0,0,.08-.38.15-.74.28-1.11.03-.1.07-.19.11-.29-.07.17.02-.04.05-.1.09-.19.18-.38.29-.56s.21-.34.32-.51c.06-.09.12-.18.19-.27,0,0,.09-.12.03-.04-.07.09.07-.08.08-.1.27-.33.57-.65.89-.93.08-.08.17-.15.25-.22.04-.03.24-.19.11-.09.18-.14.37-.27.56-.39.18-.11.36-.22.55-.32.1-.05.2-.1.31-.15.04-.02.08-.04.12-.05.25-.12-.17.06.1-.04.41-.15.82-.28,1.25-.36.03,0,.37-.06.19-.04.11-.01.22-.02.32-.03.26-.02.51-.02.77-.01.1,0,.21.01.31.02.03,0,.21.02.09,0-.1-.01.04,0,.05,0,.23.04.45.08.67.14.21.05.41.12.61.19.05.02.11.04.16.06.14.05-.12-.06.01,0,.12.05.23.1.34.16.37.19.73.41,1.07.65.03.02.29.22.15.11.09.07.17.14.26.21.17.14.33.29.49.45.29.29.57.59.83.91.03.04.07.08.1.13-.11-.13-.02-.02,0,0,.06.09.13.17.19.26.12.17.24.35.35.52.21.33.4.67.56,1.02.04.08.07.15.11.23.02.04.04.09.06.13-.01-.03-.07-.19-.01-.03.07.17.13.34.19.52.13.37.23.75.32,1.14.05.2.09.4.12.6.02.09.03.19.05.28,0,.03.03.2.01.08s.01.13.01.12c.05.43.07.86.06,1.29,0,.21-.02.41-.04.61,0,.02-.02.15,0,.04.02-.12,0,.05-.01.08-.02.12-.04.23-.07.35-.04.19-.1.38-.16.56-.02.06-.11.26-.03.1-.05.1-.1.2-.15.3-.04.08-.09.15-.14.22-.03.04-.06.08-.08.12.02-.03.12-.14,0-.01-.12.14-.24.26-.38.39s.04-.02.02-.01c-.05.03-.1.08-.16.11-.11.07-.22.14-.33.2-.05.03-.1.05-.16.08-.21.1.12-.04,0,0s-.26.1-.39.14c-.27.08-.54.14-.82.19-.21.04.16-.01,0,0-.08,0-.15.02-.23.02-.16.01-.31.02-.47.03-.32.01-.64,0-.96-.02-.16-.01-.32-.02-.48-.04-.08,0-.15-.02-.23-.03-.13-.01.18.03.05,0-.05,0-.11-.02-.16-.02-.34-.05-.68-.12-1.02-.2-.7-.16-1.38-.38-2.05-.64-.08-.03-.15-.06-.23-.09-.16-.06,0,0,.03.01-.04-.02-.09-.04-.13-.06-.17-.07-.34-.15-.51-.23-.32-.15-.64-.32-.95-.5s-.6-.36-.89-.56c-.14-.1-.27-.2-.41-.29-.1-.08.13.11.03.02-.02-.02-.05-.04-.08-.06-.08-.06-.15-.12-.23-.19-.25-.21-.49-.44-.72-.68-.11-.11-.21-.23-.31-.35-.05-.05-.09-.11-.14-.17-.1-.12.02.03.03.04-.03-.04-.06-.08-.09-.12-.18-.25-.34-.5-.48-.77-.04-.07-.07-.14-.1-.21-.01-.03-.02-.05-.04-.08-.06-.11.07.18.03.06-.05-.14-.11-.28-.15-.43-.04-.13-.08-.27-.1-.41-.02-.07-.03-.15-.04-.22-.03-.14.02.23,0-.03-.05-.48-.39-.95-.93-.93-.46.02-.98.41-.93.93.3,3.11,2.99,5.32,5.64,6.57,1.47.69,3.02,1.18,4.63,1.4,1.37.18,2.84.2,4.15-.28.65-.24,1.25-.56,1.75-1.05.68-.67,1.11-1.58,1.3-2.51.37-1.84.09-3.84-.54-5.59-1.28-3.56-4.53-6.84-8.5-6.91-2.12-.03-4.14.87-5.69,2.28-1.34,1.23-2.41,2.94-2.68,4.76-.07.44-.1.88-.07,1.33.04.48.4.95.93.93.47-.02.97-.41.93-.93Z"/>
    </g>
    <g>
      <path class="cls-32" d="M69.01,131.75c-2.49-.96-6.37-2.25-11.27-3.04-6.57-1.06-11.18-1.81-14.17.89-2.55,2.3-2.62,5.94-2.69,9.55-.11,5.57,1.58,13.87,5.28,14.55,2.4.44,2.87-2.84,8.46-5.25,4.05-1.74,5.79-.88,10.26-2.82,2.88-1.25,4.98-2.83,6.29-3.96"/>
      <path class="cls-17" d="M69.18,131.12c-2.71-1.04-5.49-1.87-8.33-2.48-1.81-.39-3.64-.68-5.47-.96-1.56-.24-3.12-.46-4.69-.55-2.44-.14-5.08.05-7.09,1.59-2.57,1.97-3.17,5.17-3.32,8.22-.14,2.88-.04,5.74.48,8.58.24,1.33.57,2.65,1.03,3.92.4,1.08.88,2.15,1.59,3.07.61.8,1.4,1.5,2.39,1.77.81.21,1.63.08,2.34-.37s1.34-1.14,1.97-1.73c.94-.88,1.92-1.63,3.04-2.27,1.39-.79,2.88-1.39,4.44-1.76,1.25-.29,2.53-.43,3.78-.7,3.19-.68,6.21-2.2,8.81-4.15.5-.37.99-.76,1.46-1.17.27-.23.23-.68,0-.92-.26-.26-.65-.23-.92,0-2.26,1.93-4.92,3.53-7.77,4.46-2.52.83-5.22.88-7.71,1.82-1.48.56-2.9,1.28-4.19,2.21-.9.65-1.72,1.4-2.52,2.17-.15.15-.31.29-.47.44-.06.05-.12.11-.18.16-.04.04-.3.24-.16.13-.13.09-.25.18-.39.26-.07.04-.15.07-.22.11-.12.07.14-.04,0,0-.05.01-.1.04-.15.05-.06.02-.13.03-.19.05-.05.01-.17,0,.02,0-.04,0-.08,0-.12,0-.08,0-.17,0-.25,0-.03,0-.06,0-.09,0,.2.01-.01,0-.06-.01-.1-.02-.2-.05-.3-.08-.05-.02-.1-.03-.14-.05-.16-.06.12.06-.03-.01-.19-.09-.37-.2-.54-.32-.15-.1.1.08-.04-.03-.03-.02-.06-.05-.09-.07-.09-.07-.17-.15-.25-.23s-.16-.17-.24-.26c-.04-.05-.08-.09-.12-.14,0,0-.12-.16-.05-.06-.33-.42-.6-.89-.84-1.36-.53-1.04-.9-2.19-1.2-3.36-.65-2.52-.95-5.15-.92-7.76.03-2.8-.04-6.11,1.74-8.45,1.41-1.86,3.6-2.44,5.85-2.49,1.4-.03,2.8.11,4.19.29,1.68.22,3.36.48,5.03.78,3.05.54,6.06,1.32,8.99,2.35.51.18,1.02.37,1.53.56.33.13.71-.14.8-.45.1-.37-.12-.67-.45-.8h0Z"/>
    </g>
    <g>
      <path class="cls-10" d="M46.63,131.29c-2.76-1.26-7.32.2-9.12,3.68-1.95,3.77.39,7.94,2.72,9.97,1.7,1.48,5.05,3.26,7.3,2.05,3.98-2.16,4.04-13.45-.89-15.69Z"/>
      <path class="cls-17" d="M47.1,130.49c-3.39-1.51-7.57.13-9.72,2.96-1.4,1.84-1.8,4.19-1.29,6.42.47,2.06,1.67,4,3.19,5.45,2.43,2.31,7.22,4.59,9.92,1.49.89-1.02,1.43-2.3,1.75-3.6.36-1.45.48-2.98.39-4.47-.17-2.85-1.05-6.06-3.48-7.81-.24-.17-.49-.31-.75-.44-.45-.21-1-.13-1.27.33-.23.4-.12,1.06.33,1.27.25.11.48.25.71.4.03.02.06.04.09.06.13.09-.05-.05-.06-.05.04,0,.11.09.15.12.11.1.22.2.32.3s.19.2.28.31c.04.05.08.1.13.15.07.08-.06-.08-.06-.07.03.04.06.08.09.12.18.25.34.51.49.77.07.12.13.25.19.38.04.07.07.15.1.22.04.09.11.26.03.06.12.3.23.59.32.9.2.64.34,1.3.44,1.96.04.24-.02-.15.01.09,0,.08.02.16.03.23.02.18.03.36.05.54.02.34.04.68.04,1.01s0,.67-.03,1.01c-.01.17-.02.33-.04.5,0,.08-.02.15-.02.23,0,.04-.01.09-.02.13-.02.18.02-.14,0-.02-.11.64-.22,1.26-.41,1.88-.08.26-.15.6-.3.83.09-.14.04-.09,0,.01-.03.07-.06.14-.1.2-.06.12-.12.25-.19.37s-.13.23-.21.34c-.03.05-.07.1-.1.15-.02.03-.18.24-.08.11s-.03.03-.05.06c-.04.05-.09.1-.13.15-.08.09-.17.18-.26.26-.04.04-.08.07-.12.11-.17.15.13-.08,0,0-.1.07-.2.14-.31.2-.06.04-.13.07-.19.1-.04.02-.07.04-.11.05.16-.07.02-.01,0,0-.21.06-.42.13-.64.16.18-.03-.07,0-.13,0-.11,0-.23,0-.34,0-.1,0-.2,0-.3-.01-.06,0-.12-.01-.17-.02.1,0,.06.01-.01,0-.46-.08-.91-.2-1.35-.36-.1-.04-.2-.08-.3-.12.14.06-.13-.06-.16-.07-.22-.1-.44-.21-.66-.33-.4-.22-.8-.46-1.17-.72-.08-.06-.16-.11-.24-.17-.03-.02-.07-.05-.1-.07.14.1.02.02,0,0-.16-.13-.32-.26-.47-.4-.32-.29-.61-.59-.89-.92-.3-.35-.47-.57-.76-1.02-.26-.4-.49-.82-.69-1.25-.17-.37-.33-.78-.46-1.28s-.2-.86-.23-1.29c-.01-.23-.02-.46-.01-.69,0-.13.01-.26.03-.4,0-.07.01-.13.02-.2-.01.1,0-.01.01-.05.09-.48.25-1.04.42-1.41.19-.4.41-.77.66-1.13.01-.02.12-.16.05-.07-.06.08.02-.03.03-.04.07-.08.14-.17.21-.25.14-.16.29-.32.45-.47.14-.13.28-.26.43-.38.04-.03.08-.07.13-.1-.01,0-.11.09-.03.02.1-.07.2-.14.3-.21.33-.22.68-.42,1.04-.6.09-.05.19-.09.29-.13.01,0,.13-.06.03-.02-.11.04.05-.02.07-.03.19-.07.39-.14.59-.21.37-.11.74-.2,1.11-.26.24-.04-.08,0,.09-.01.1,0,.2-.02.29-.03.19-.01.39-.02.58-.02.17,0,.33.01.5.03.05,0,.09.01.14.01,0,0-.18-.03-.07,0s.2.03.3.05c.15.03.31.07.46.12.08.03.17.05.25.08.03.01.06.03.09.04.13.04-.21-.09-.01,0,.46.2,1,.13,1.27-.33.23-.4.13-1.06-.33-1.27Z"/>
    </g>
    <ellipse class="cls-4" cx="72.06" cy="154.87" rx="2.97" ry="4.98" transform="translate(-69.99 60) rotate(-31.31)"/>
    <ellipse class="cls-4" cx="109.58" cy="135.33" rx="2.97" ry="4.98" transform="translate(-54.36 76.65) rotate(-31.31)"/>
    <g>
      <g>
        <path class="cls-7" d="M13.6,135.73c.67,1.01,1.44,2.53,1.52,4.41.14,3.62-2.45,5.56-1.5,7.04.76,1.19,3.38,1.41,4.86.27.56-.43,1.36-1.37,1.35-4.55-.01-2.28-.45-6.41-3.47-11.43"/>
        <path class="cls-2" d="M13.1,136.02c.76,1.15,1.32,2.45,1.42,3.84.1,1.29-.19,2.54-.7,3.72-.37.87-.92,1.75-.99,2.72-.08,1.08.72,1.85,1.67,2.21,1.83.69,4.38.09,5.26-1.77.53-1.11.63-2.39.64-3.61,0-.96-.07-1.91-.2-2.85-.45-3.23-1.69-6.32-3.36-9.11-.39-.64-1.39-.06-1.01.59,1.45,2.42,2.55,5.04,3.07,7.82.17.91.27,1.76.31,2.71.04,1.09.03,2.22-.26,3.28-.03.11-.06.22-.1.33-.02.04-.1.26-.06.17-.07.16-.15.31-.24.45-.04.06-.07.11-.11.17.1-.14-.02.02-.05.05-.08.09-.16.16-.25.24-.02.02-.04.04-.06.05.1-.07-.04.03-.07.04-.11.07-.23.14-.35.2-.26.13-.54.21-.83.27-.5.1-1.04.11-1.53,0-.45-.1-.88-.27-1.15-.6,0-.01-.07-.1-.11-.18-.01-.03-.04-.1,0,.01-.02-.04-.03-.09-.04-.13-.05-.15-.02.05-.02-.11,0-.09,0-.18,0-.28-.02.15.02-.1.03-.14.02-.09.04-.17.07-.25.06-.18.16-.42.19-.51.21-.49.44-.97.65-1.46.56-1.33.87-2.75.72-4.2-.15-1.53-.72-2.98-1.57-4.26-.41-.63-1.42-.04-1.01.59h0Z"/>
      </g>
      <g>
        <path class="cls-7" d="M22.92,131.95c.87.84,2.23,1.87,4.07,2.28,3.54.78,5.9-1.42,7.19-.22,1.04.96.78,3.58-.6,4.83-.52.47-1.59,1.1-4.72.51-2.24-.42-6.23-1.59-10.63-5.46"/>
        <path class="cls-2" d="M22.51,132.36c.94.89,2.01,1.62,3.22,2.09,1.33.52,2.75.62,4.15.43.98-.14,2.04-.53,2.96-.64.09-.01.35-.02.51-.01.03,0,.11.02,0,0,.05,0,.09.02.14.03.03,0,.06.02.09.03.06.02.06.02,0,0,.03.01.06.03.08.04.03.02.06.03.08.05.13.09-.08-.08.04.03.08.08.11.11.14.16.14.21.19.33.25.57.23.92-.04,2.07-.61,2.87-.12.17-.27.31-.42.45-.02.02-.04.03-.06.05-.09.08.12-.08.02-.02-.05.03-.1.07-.15.1-.06.04-.12.07-.18.1-.04.02-.23.1-.09.04-.17.07-.34.12-.51.16-.97.22-2.22.06-3.27-.14-.84-.16-1.67-.39-2.48-.66-2.87-.98-5.47-2.63-7.74-4.62-.56-.49-1.39.33-.82.82,2.26,1.97,4.79,3.61,7.6,4.68.91.34,1.84.62,2.79.83,1.18.25,2.42.46,3.63.32.77-.09,1.5-.31,2.09-.83.92-.79,1.39-2.04,1.46-3.22.06-1.03-.24-2.3-1.24-2.8-.86-.43-1.86-.14-2.74.08-1.37.35-2.75.61-4.16.32-1.5-.31-2.82-1.11-3.92-2.15-.54-.52-1.37.31-.82.82h0Z"/>
      </g>
      <g>
        <path class="cls-8" d="M.65,124.99c.09-2.9,2.58-5.18,2.74-5.33,1.77-1.58,4.33-2.47,6.47-2.11,4.21.69,4.36,5.74,9.34,12.21,6.88,8.93,14.76,9.95,14.4,15.09-.11,1.63-1.07,3.89-2.89,5.37-1.29,1.05-2.97,1.67-4.31,1.71-4.58.11-5.8-6.65-12.86-13.99-6.9-7.17-13.04-8.32-12.89-12.94Z"/>
        <path class="cls-5" d="M1.29,124.99c.03-.85.29-1.67.68-2.42.34-.65.74-1.22,1.16-1.71.85-.99,1.93-1.75,3.15-2.22.86-.33,1.76-.53,2.68-.51.38,0,.75.04,1.12.14.14.03.27.07.41.12.06.02.13.05.19.07.12.05.03.01,0,0,.04.02.09.04.13.06.26.12.5.27.72.44.08.06-.07-.06,0,0,.02.02.04.04.07.05.06.05.12.1.17.15.11.1.22.21.33.33.23.25.36.42.52.63.19.27.37.55.55.83.86,1.41,1.56,2.91,2.35,4.35,1.08,1.95,2.31,3.82,3.71,5.56,2.43,3,5.37,5.43,8.49,7.68,1.13.81,2.18,1.53,3.18,2.4.41.36.8.75,1.15,1.17.1.12-.03-.04.04.05.04.05.08.11.12.16.07.1.14.2.2.31s.12.21.18.32c.03.05.05.1.07.15.07.13-.03-.09.04.09.08.22.15.45.2.69.01.06.02.11.03.17.02.09-.01-.12,0-.03,0,.02,0,.05,0,.07.01.13.02.27.02.4,0,.69-.14,1.32-.39,2.01-.65,1.79-1.97,3.28-3.68,4.12-.78.39-1.67.66-2.55.67-.13,0-.25,0-.38-.01-.07,0-.14-.01-.21-.02.14.02-.03,0-.08-.02-.25-.05-.49-.12-.73-.21.15.06-.05-.02-.08-.04-.05-.03-.11-.05-.16-.08-.12-.06-.24-.13-.36-.21-.1-.07-.2-.14-.3-.21-.08-.06.08.06,0,0-.02-.02-.04-.03-.06-.05-.06-.05-.13-.11-.19-.16-.45-.4-.85-.85-1.23-1.32-.11-.14-.12-.15-.24-.32-.11-.15-.22-.3-.33-.45-.21-.3-.42-.6-.63-.91-.46-.68-.91-1.37-1.36-2.05-1.11-1.68-2.26-3.33-3.52-4.9-1.47-1.83-3.09-3.54-4.85-5.11-1.49-1.33-3.08-2.54-4.7-3.7-1.22-.88-2.44-1.7-3.53-2.65-.45-.39-.87-.8-1.24-1.26-.08-.1-.01-.02,0,0-.02-.03-.04-.06-.06-.09-.04-.05-.07-.1-.11-.15-.08-.12-.15-.23-.22-.36-.06-.1-.11-.21-.17-.32-.02-.05-.08-.18-.03-.06-.03-.07-.06-.14-.08-.22-.08-.24-.14-.48-.18-.73-.02-.11,0,.09,0-.07,0-.06-.01-.13-.02-.19,0-.15-.01-.3,0-.45.02-.83-1.27-.83-1.29,0-.03,1.21.36,2.35,1.09,3.31.85,1.12,1.97,1.98,3.1,2.8,1.42,1.05,2.87,2.04,4.26,3.12,1.85,1.44,3.59,3.02,5.18,4.74s2.88,3.4,4.15,5.23c1,1.45,1.94,2.96,2.95,4.4.78,1.12,1.63,2.23,2.74,3.04,1.02.74,2.25,1.04,3.49.88,2.15-.27,4.15-1.46,5.47-3.17,1.05-1.36,1.84-3.12,1.83-4.88-.02-2.57-2.07-4.27-3.96-5.68-1.27-.95-2.57-1.84-3.83-2.8-1.56-1.19-3.04-2.48-4.4-3.89-1.62-1.68-3.05-3.53-4.28-5.51-1.02-1.63-1.87-3.35-2.78-5.04-.66-1.22-1.37-2.52-2.44-3.43-1.19-1.01-2.7-1.41-4.24-1.28-3.29.27-6.22,2.4-7.61,5.37-.41.88-.67,1.8-.71,2.77-.03.83,1.26.83,1.29,0Z"/>
      </g>
      <ellipse class="cls-3" cx="5.95" cy="122.7" rx="4.32" ry="2.15" transform="translate(-82.46 37.42) rotate(-43.26)"/>
      <g>
        <g>
          <path class="cls-7" d="M17.09,129.8c-.04-1.65.21-2.97.45-3.88.42-1.58,1.28-4.77,3.78-5.74.09-.03.15-.05.16-.06,3.01-1.02,6.4,2.42,6.62,2.64.66.68,3.49,3.62,2.53,6.5-.69,2.06-2.94,2.95-4.68,3.64-2.23.89-4.25.92-5.45.85"/>
          <path class="cls-2" d="M17.67,129.8c-.03-1.39.16-2.74.53-4.08.28-1.01.6-2,1.12-2.91.56-.97,1.36-1.86,2.47-2.18s2.25.04,3.23.55c1.4.73,2.55,1.75,3.56,2.99.73.9,1.39,2.01,1.61,3.19.23,1.24-.23,2.41-1.16,3.24-1.04.93-2.48,1.49-3.79,1.94-1.52.52-3.12.72-4.73.62-.75-.04-.75,1.12,0,1.17,1.51.09,3.04-.07,4.49-.49.78-.22,1.53-.53,2.27-.85.63-.27,1.25-.58,1.82-.96,1.26-.86,2.17-2.08,2.31-3.63.13-1.44-.48-2.87-1.26-4.05-1-1.51-2.32-2.81-3.85-3.78-1.11-.7-2.43-1.26-3.77-1.22s-2.64.77-3.5,1.83c-.82,1-1.34,2.2-1.72,3.43s-.67,2.49-.77,3.78c-.04.47-.05.94-.04,1.41.02.75,1.18.75,1.17,0h0Z"/>
        </g>
        <g>
          <path class="cls-7" d="M12.54,134.31c-1.65-.05-2.97.19-3.88.42-1.59.41-4.78,1.24-5.77,3.73-.03.09-.06.15-.06.16-1.04,3,2.37,6.42,2.59,6.64.67.66,3.59,3.52,6.47,2.59,2.06-.67,2.98-2.92,3.68-4.65.9-2.23.96-4.24.9-5.44"/>
          <path class="cls-2" d="M12.54,133.72c-1.51-.04-2.99.16-4.45.55-1.15.31-2.31.7-3.34,1.31-1.16.69-2.15,1.71-2.54,3.03s-.04,2.77.57,3.99c1.79,3.66,7.44,8.48,11.2,4.57,1.12-1.17,1.78-2.77,2.33-4.28.59-1.64.83-3.41.75-5.14-.04-.75-1.2-.75-1.17,0,.07,1.37-.07,2.74-.46,4.06s-.92,2.61-1.65,3.73c-.69,1.05-1.71,1.87-3.01,1.89-1.24.02-2.39-.58-3.38-1.27-1.25-.88-2.34-2.04-3.12-3.3-.59-.95-1.09-2.04-1.05-3.18s.72-2.12,1.61-2.77c1-.73,2.17-1.15,3.35-1.47,1.44-.4,2.87-.61,4.37-.57.75.02.75-1.15,0-1.17h0Z"/>
        </g>
        <path class="cls-2" d="M19.9,131.43c.45.44,3.25-1.12,3.08-2.23-.07-.43-.56-.78-1-.8-1.3-.09-2.51,2.62-2.08,3.04Z"/>
        <path class="cls-2" d="M14.25,137.04c.43.46-1.15,3.24-2.26,3.06-.43-.07-.77-.57-.8-1.01-.08-1.3,2.64-2.49,3.05-2.05Z"/>
        <g>
          <path class="cls-7" d="M20.94,134.82c-.32.53-.8,1.2-1.48,1.87-.64.63-1.27,1.07-1.78,1.37-.05.05-.32.3-.74.3-.27,0-.53-.1-.73-.31l-3.4-3.42c-.4-.41-.4-1.07,0-1.47.38-.5.83-1.04,1.37-1.58.66-.67,1.31-1.22,1.9-1.66.05-.05.32-.3.74-.3.27,0,.53.1.73.31l3.4,3.42c.4.41.4,1.07,0,1.47Z"/>
          <path class="cls-2" d="M20.44,134.53c-.65,1.06-1.51,1.99-2.54,2.7-.22.15-.45.28-.66.44-.02.02-.07.05.02,0-.03.02-.07.05-.11.07-.09.04-.2.07-.3.05-.16-.03-.26-.16-.37-.27l-2.71-2.73c-.22-.22-.72-.57-.68-.93.02-.21.2-.36.32-.52.2-.25.41-.5.62-.74.49-.55,1.02-1.07,1.58-1.55.21-.18.43-.36.65-.52.09-.07.18-.15.28-.22-.09.07.1-.06.15-.07.22-.06.38.05.53.2.37.38.75.76,1.13,1.14l1.67,1.68c.29.29.92.73.52,1.17-.51.55.31,1.38.82.82s.63-1.32.26-1.97c-.12-.2-.28-.36-.45-.52l-1.5-1.52-1.5-1.52c-.17-.17-.33-.34-.53-.46-.64-.37-1.36-.22-1.91.22-.06.05-.01.02,0,0-.09.07-.18.14-.27.21-.13.1-.27.21-.4.32-.32.26-.63.53-.92.82-.56.54-1.08,1.11-1.56,1.73-.21.26-.42.5-.54.82s-.12.72,0,1.05c.11.3.3.53.52.76l3,3.02c.18.18.35.37.56.5.35.22.79.29,1.2.2.18-.04.36-.11.51-.21.05-.03.1-.07.15-.11.01,0,.19-.13.09-.06,1.38-.87,2.55-2.01,3.41-3.41.39-.64-.61-1.23-1.01-.59Z"/>
        </g>
      </g>
    </g>
    <g>
      <path class="cls-7" d="M141.75,49.44c.29-1.41-.31-2.82-1.45-3.46-1.38-.78-3.35-.35-4.05.99-.6,1.16.04,2.45.13,2.61-.16.1-.43.28-.71.56-.6.59-.86,1.2-.93,1.36-.88,1.85-5.79,1.85-6.2,3.88-.02.12-.15.73.18,1.08.47.5,1.57.11,1.61.26.05.18-1.61.4-2.21,1.49-.44.8-.28,2.03.37,2.46.16.11.6.33,2.17-.3,2-.81,3.49-2.06,3.51-2.03.02.03-2.16,1.2-2.05,2.45.07.8,1.07,1.6,1.89,1.5.61-.07,1-.68,1.75-1.88.62-1,1.19-2.19,1.18-2.19-.01,0-1.64,2.18-.92,3.62.06.11.33.63.86.8,1.65.51,4.39-2.85,4.21-3.06-.18-.2-3.64,1.78-3.47,3.58.07.69.64,1.35,1.27,1.51,1.36.34,2.81-1.67,3.16-2.14,1.49-2.06,1.53-4.24,1.59-7.32.05-2.41-.29-3.71-1.05-4.79-.3-.43-.61-.74-.83-.94Z"/>
      <g>
        <path class="cls-17" d="M80.03,16.23c-1.16,4.41-2.33,8.82-3.49,13.23.36,1.21,4.17,13.39,16.98,17.9,12.85,4.53,23.49-2.64,24.51-3.35,2.19-5.62,4.38-11.24,6.58-16.86"/>
        <path class="cls-17" d="M102.19,48.98c-2.71,0-5.65-.42-8.71-1.49-12.77-4.5-16.66-16.62-17.07-17.99v-.04s3.49-13.26,3.49-13.26l.26.07-3.48,13.19c.45,1.52,4.35,13.36,16.89,17.78,12.57,4.42,23.04-2.4,24.35-3.31l6.56-16.82.25.1-6.59,16.9-.03.02c-.89.62-7.28,4.86-15.93,4.86Z"/>
      </g>
      <g class="cls-33">
        <path class="cls-7" d="M78.43,22.2c.9,1.83,6.52,12.82,19.77,16.79,12.56,3.76,22.8-1.55,24.71-2.59,1.25-2.85,2.5-5.7,3.74-8.55-15.11-4.86-30.23-9.72-45.34-14.57-.96,2.98-1.92,5.95-2.88,8.93Z"/>
      </g>
      <g>
        <path class="cls-17" d="M107.78.38l-39.39,6.75c-.97.17-1.37,1.35-.69,2.07,9.28,9.91,18.55,19.82,27.83,29.73.29.31.72.45,1.13.37,13.37-2.54,26.75-5.07,40.12-7.61.97-.18,1.35-1.38.65-2.09-9.52-9.62-19.04-19.24-28.56-28.86-.28-.29-.69-.42-1.09-.35Z"/>
        <path class="cls-17" d="M107.68.03c-1.5.26-3,.51-4.5.77-3.52.6-7.04,1.21-10.56,1.81l-12.15,2.08-9.49,1.63-2.34.4c-.11.02-.23.04-.34.06-.59.12-1.06.55-1.24,1.12-.21.7.1,1.27.57,1.77,5.75,6.14,11.5,12.28,17.25,18.43,2.86,3.05,5.72,6.11,8.58,9.16.35.37.7.75,1.05,1.12s.66.81,1.08,1.07c.77.48,1.74.1,2.55-.05,2.05-.39,4.11-.78,6.16-1.17,8.26-1.57,16.52-3.13,24.78-4.7,2.05-.39,4.11-.78,6.16-1.17.5-.1,1-.19,1.51-.29.36-.07.68-.19.94-.45.42-.42.59-1.07.4-1.63-.11-.35-.34-.59-.59-.85-.39-.4-.78-.79-1.17-1.19-.72-.72-1.43-1.45-2.15-2.17-1.5-1.52-3-3.03-4.5-4.55-5.87-5.93-11.74-11.86-17.61-17.79-.72-.72-1.43-1.45-2.15-2.17-.61-.62-1.17-1.37-2.13-1.25-.47.06-.47.8,0,.74.52-.07.77.19,1.12.54s.72.72,1.08,1.09c.72.72,1.43,1.45,2.15,2.17,1.43,1.45,2.87,2.9,4.3,4.35,2.89,2.92,5.77,5.83,8.66,8.75s5.74,5.8,8.61,8.7c.72.72,1.43,1.45,2.15,2.17.34.35.68.69,1.03,1.04.25.26.52.48.54.86.04.8-.75.91-1.35,1.02-1,.19-2.01.38-3.01.57-8.06,1.53-16.11,3.06-24.17,4.58-4.02.76-8.03,1.52-12.05,2.29-.4.08-.73.08-1.05-.22-.4-.38-.76-.82-1.14-1.22-.7-.75-1.4-1.49-2.1-2.24-1.4-1.49-2.8-2.99-4.19-4.48-5.59-5.97-11.18-11.94-16.77-17.92-.7-.75-1.4-1.49-2.1-2.24-.32-.34-.64-.68-.95-1.02-.27-.29-.71-.61-.78-1.03-.11-.58.33-.95.84-1.04.59-.1,1.18-.2,1.76-.3l8.49-1.45c3.91-.67,7.83-1.34,11.74-2.01,3.64-.62,7.29-1.25,10.93-1.87l6.08-1.04.29-.05c.47-.08.27-.8-.2-.72Z"/>
      </g>
      <path class="cls-17" d="M128.35,27.09c2.12.7,4.24,1.54,6.12,2.76.17.11.33.22.49.33.07.05.14.1.22.16.03.03.07.05.1.08.14.1-.07-.06.05.04.27.22.54.45.79.69.22.21.43.44.62.68.12.14-.03-.04.03.04.04.05.07.1.11.15.08.11.16.23.23.35.12.2.22.41.33.62.05.09-.07-.18,0,.01.02.05.04.1.06.15.04.1.07.2.1.3.03.09.05.18.07.28.01.05.02.1.03.14,0,.03.01.06.02.09.04.2,0-.15,0,.05.02.36.03.71,0,1.07,0,.04,0,.08-.01.12,0-.03.03-.16,0-.02-.01.08-.03.16-.04.24-.04.19-.08.39-.12.58-.09.38-.19.76-.28,1.15-.25,1-.44,2.01-.53,3.04-.23,2.58.15,5.23.98,7.67.13.38.51.63.91.52.37-.1.65-.53.52-.91-.74-2.18-1.1-4.48-.97-6.78.06-1,.22-1.93.46-2.93.2-.83.43-1.65.54-2.49.15-1.19-.06-2.36-.64-3.42-.66-1.21-1.71-2.15-2.82-2.94-2.09-1.48-4.55-2.44-6.97-3.24-.38-.13-.81.15-.91.52-.11.4.14.79.52.91h0Z"/>
      <path class="cls-9" d="M137.14,50.13c.03-.06.9.65,2.09.54,1.3-.12,2.08-1.12,2.16-1.03.08.1-.56,1.24-1.69,1.48-1.37.3-2.6-.91-2.56-.99Z"/>
      <g class="cls-15">
        <path class="cls-1" d="M67.28,6.26c9.78,10.37,19.55,20.74,29.33,31.1,14.2-2.42,28.4-4.83,42.6-7.25L109.11-.77c-13.94,2.34-27.89,4.69-41.83,7.03Z"/>
      </g>
    </g>
    <path class="cls-21" d="M59.81,101.41c5.39,7.12,10.99,11.34,13.19,10.11,2.27-1.27,1.55-8.64-2.33-17.71-3.62,2.53-7.24,5.07-10.86,7.6Z"/>
    <path class="cls-8" d="M72.21,93.77c.97,1.16.95,2.44.46,2.83-.46.37-1.61.15-2.55-.75.7-.7,1.39-1.39,2.09-2.08Z"/>
    <g>
      <path class="cls-10" d="M58.13,101.62c.19.4.42.61.65.73,2.02,1,6.43-4.58,6.67-4.89l-.05.04c.37-.12,7.11-2.38,6.86-4.62-.03-.25-.15-.54-.46-.85"/>
      <path class="cls-26" d="M57.69,101.88c.4.82,1.15,1.21,2.03,1.06.68-.11,1.3-.49,1.85-.88,1.28-.91,2.39-2.06,3.41-3.25.28-.32.56-.65.82-.99.16-.2.21-.46.04-.67-.15-.18-.45-.28-.66-.13l-.05.04c-.44.31-.19,1.13.39.93,1.04-.34,2.06-.76,3.05-1.21,1.36-.62,2.92-1.38,3.8-2.64.58-.82.47-1.75-.23-2.48-.46-.48-1.18.25-.72.72.15.16.3.37.32.54,0-.02,0,.1,0,.12,0,.02,0,.1,0,.03,0-.08,0,.03-.01.05-.02.06-.03.12-.05.17-.03.07.04-.08,0,0-.01.03-.02.05-.04.08-.06.1-.16.27-.2.31-.36.45-.9.84-1.42,1.17-1.17.74-2.43,1.29-3.7,1.77-.35.13-.71.27-1.07.38l.39.93.05-.04-.62-.8c-.59.75-1.22,1.47-1.88,2.15-.52.54-1.06,1.06-1.64,1.54-.26.22-.53.41-.82.6-.14.09-.27.17-.42.25-.06.03-.13.07-.19.1-.03.02-.06.03-.1.04-.1.04.04-.01-.07.03-.14.05-.28.1-.43.13-.03,0-.06.01-.09.02-.06,0,.09,0-.01,0-.07,0-.14,0-.21,0-.09,0,0,0,.02,0-.04,0-.08-.01-.12-.02-.03,0-.05-.01-.07-.02-.12-.03.09.05-.02,0-.23-.12-.35-.31-.46-.54-.29-.59-1.17-.07-.88.52h0Z"/>
    </g>
    <path class="cls-16" d="M66.36,107.34c.53-.45,1.84-1.45,3.81-1.7,1.39-.18,2.52.1,3.16.3.16.53.35,1.4.24,2.47-.09.9-.18,1.76-.76,2.14-.85.57-2.27-.21-3.46-.86-.78-.43-1.88-1.15-2.99-2.36Z"/>
    <ellipse class="cls-8" cx="47.7" cy="101.73" rx="2.14" ry="2.2" transform="translate(-43.56 36.18) rotate(-29.19)"/>
    <ellipse class="cls-8" cx="52.03" cy="101.39" rx="1.34" ry="1.38" transform="translate(-42.84 38.25) rotate(-29.19)"/>
    <ellipse class="cls-8" cx="52.36" cy="104.14" rx=".63" ry=".65" transform="translate(-44.14 38.76) rotate(-29.19)"/>
    <ellipse class="cls-8" cx="73.42" cy="83.42" rx="2.14" ry="2.2" transform="translate(-31.36 46.39) rotate(-29.19)"/>
    <ellipse class="cls-8" cx="77.74" cy="83.07" rx="1.34" ry="1.38" transform="translate(-30.64 48.46) rotate(-29.19)"/>
    <ellipse class="cls-8" cx="78.07" cy="85.83" rx=".63" ry=".65" transform="translate(-31.95 48.97) rotate(-29.19)"/>
  </g>
  <g>
    <g>
      <path class="cls-7" d="M174.75,137.29c-.75-.04-1.38-.53-1.55-1.2-.21-.8.27-1.74,1.04-1.91.67-.15,1.23.35,1.3.41.07-.07.2-.18.38-.28.38-.22.72-.27.81-.29,1.05-.2,1.71-2.67,2.79-2.61.07,0,.39.02.52.24.19.31-.16.8-.09.85.08.05.42-.76,1.05-.91.46-.11,1.06.13,1.19.52.03.1.08.35-.44,1.05-.68.9-1.51,1.49-1.5,1.5.01.01.89-.93,1.51-.71.4.14.66.75.5,1.15-.12.3-.48.41-1.18.63-.59.18-1.26.31-1.26.3,0,0,1.32-.54,1.95.02.05.04.27.25.29.54.04.9-2.03,1.84-2.11,1.71-.08-.12,1.39-1.6,2.27-1.27.34.13.6.5.59.84-.01.73-1.22,1.2-1.5,1.31-1.24.48-2.34.2-3.91-.18-1.22-.3-1.83-.65-2.28-1.17-.18-.21-.29-.41-.36-.54Z"/>
      <path class="cls-17" d="M164.5,127.54c.11,1.85.33,4.08,1.59,5.55.36.42.83.74,1.36.9.91.28,1.91.11,2.84.23,1.37.18,2.67.73,3.81,1.48.42.28.81-.39.39-.67-.95-.63-2.01-1.12-3.11-1.39-.59-.15-1.19-.23-1.79-.26-.45-.02-.9,0-1.34-.04-1.23-.09-1.9-.98-2.31-2.09-.44-1.19-.59-2.47-.66-3.72-.03-.5-.81-.5-.78,0h0Z"/>
      <path class="cls-9" d="M175.72,135.05s.21.54,0,1.13c-.23.64-.85.9-.81.95.04.05.7-.12.97-.65.33-.65-.11-1.44-.16-1.43Z"/>
    </g>
    <g>
      <path class="cls-17" d="M161.14,110.63l-20.57-3.49c-.51-.09-.91.43-.7.9,2.86,6.49,5.71,12.97,8.57,19.46.09.2.28.35.49.38,7.03,1.06,14.05,2.13,21.08,3.19.51.08.9-.45.68-.92-3.03-6.39-6.05-12.77-9.08-19.16-.09-.19-.27-.33-.48-.36Z"/>
      <path class="cls-17" d="M161.19,110.44l-2.37-.4-5.58-.95-6.4-1.09-4.93-.84-1.15-.2c-.11-.02-.23-.04-.34-.04-.31.02-.58.22-.71.49-.17.37,0,.7.16,1.04,1.78,4.03,3.55,8.07,5.33,12.1.89,2.02,1.78,4.03,2.66,6.05.17.39.31.97.65,1.25s.89.25,1.3.31c1.08.16,2.15.33,3.23.49,4.37.66,8.73,1.32,13.1,1.98,1.08.16,2.15.33,3.23.49.38.06.82.2,1.18,0,.27-.16.43-.46.42-.77,0-.18-.09-.34-.17-.5-.12-.26-.25-.52-.37-.78-.24-.5-.47-1-.71-1.5-.47-.98-.93-1.97-1.4-2.95-1.89-3.99-3.78-7.98-5.67-11.97-.22-.46-.44-.93-.66-1.39-.18-.39-.32-.73-.78-.84-.24-.06-.35.32-.1.37.27.07.36.26.47.49.12.26.25.52.37.78.22.46.44.93.66,1.39.46.97.91,1.93,1.37,2.9.9,1.89,1.79,3.79,2.69,5.68s1.81,3.82,2.72,5.74c.22.46.44.93.66,1.39.11.22.21.45.32.67s.3.49.18.75c-.21.47-.93.2-1.31.14-.53-.08-1.06-.16-1.58-.24-4.16-.63-8.33-1.26-12.49-1.89-1.04-.16-2.07-.31-3.11-.47-.53-.08-1.06-.16-1.58-.24-.49-.07-1.02-.1-1.5-.23-.27-.07-.34-.28-.44-.51-.11-.25-.22-.49-.32-.74-.22-.49-.43-.98-.65-1.47-.42-.96-.85-1.92-1.27-2.88-1.7-3.86-3.4-7.73-5.11-11.59-.22-.49-.43-.98-.65-1.47-.1-.23-.2-.45-.3-.68-.09-.21-.26-.47-.18-.71.09-.26.34-.32.57-.29.34.05.68.11,1.01.17l4.5.76,6.09,1.03,5.63.95,3.11.53.15.02c.24.04.35-.33.1-.37Z"/>
    </g>
    <g class="cls-31">
      <path class="cls-1" d="M139.48,107.12c3.02,6.8,6.05,13.6,9.07,20.4,7.41,1.27,14.83,2.53,22.24,3.8-3.16-6.81-6.32-13.61-9.49-20.42-7.27-1.26-14.55-2.51-21.82-3.77Z"/>
    </g>
    <g>
      <path class="cls-6" d="M146.66,115.88c3.02.8,4.78,5.72,4.59,9.31-.02.43-.07.81-.12,1.1.24-.15.53-.31.88-.48,3.32-1.57,8.53-1.62,10.22.83,1.92,2.78-.77,8.63-5,10.9-3.88,2.08-9.66,1.44-11.22-1.38-.32-.58-.42-1.18-.44-1.71-.57.18-1.17.27-1.77.23-3.45-.22-6.66-5.65-6.05-10.34.63-4.87,5.46-9.39,8.91-8.47Z"/>
      <path class="cls-30" d="M146.46,116.59c.08.02.15.04.22.07.03.01.23.09.1.03.14.06.29.14.42.22s.27.17.4.27c-.09-.07.07.06.1.08.06.05.13.11.19.17.54.51.87.98,1.24,1.66s.62,1.3.85,2.07c.12.4.22.8.3,1.21.08.39.13.74.17,1.06.09.89.1,1.82-.04,2.68-.05.3,0,.59.27.78.23.18.56.22.82.06,1.14-.69,2.35-1.09,3.71-1.32.55-.09,1.21-.15,1.84-.16s1.27.04,1.83.15c.27.05.55.12.81.2.14.04.28.09.42.15s.05.02.02,0c.09.04.17.08.26.12.22.11.44.24.64.39.18.12-.1-.09.06.05.05.04.1.08.15.13.1.1.2.2.29.3.08.09-.09-.14.02.03.03.05.07.1.1.15.06.1.12.2.17.3.02.04.04.09.06.13.05.11-.05-.17,0,.01.04.13.09.26.12.4.02.1.04.2.06.3,0,.03.03.23,0,.05,0,.06.01.12.02.19.02.26.02.52,0,.78,0,.14-.02.27-.04.4.02-.15-.03.17-.04.22-.05.3-.13.59-.21.88-.18.62-.35,1.03-.63,1.57-.59,1.16-1.3,2.12-2.23,3.01-1.85,1.79-4.31,2.67-6.87,2.67-.74,0-1.35-.05-2.02-.19-.33-.07-.66-.15-.98-.26-.36-.12-.47-.16-.78-.32-.27-.13-.53-.29-.77-.46-.18-.13.11.09-.06-.05-.07-.06-.13-.11-.2-.17-.09-.09-.19-.18-.27-.27-.04-.05-.08-.1-.12-.14-.05-.07-.05-.07,0,0-.02-.03-.05-.07-.07-.1-.08-.12-.15-.24-.22-.37-.19-.38-.27-.81-.28-1.23-.02-.47-.46-.86-.94-.72-.54.17-1.08.24-1.64.2-.04,0-.09,0-.13-.01.03,0,.14.03,0,0-.08-.02-.15-.03-.23-.05-.19-.05-.37-.11-.55-.18.13.05-.11-.05-.14-.07-.07-.04-.15-.07-.22-.11-.18-.1-.35-.21-.52-.33-.04-.03-.08-.06-.12-.09.01.01.07.05,0,0-.08-.06-.16-.13-.23-.2-.17-.15-.33-.3-.48-.46-1.2-1.25-2.02-2.94-2.42-4.67-.43-1.84-.33-3.68.36-5.46.64-1.64,1.75-3.15,3.13-4.29.3-.25.67-.51,1.07-.74.2-.12.4-.22.61-.32.05-.02.09-.04.14-.06.12-.05,0,0,.06-.03.1-.04.2-.08.31-.11.2-.07.4-.13.61-.17.09-.02.18-.03.27-.05.15-.03.03,0,0,0,.07,0,.13-.01.2-.02.19-.01.37-.01.56,0,.04,0,.09,0,.13.01.09,0-.12-.02.03,0,.11.02.21.04.31.07.93.24,1.32-1.19.39-1.43-1.74-.44-3.54.22-4.96,1.22-1.68,1.18-3.05,2.84-3.92,4.7-.94,2.02-1.23,4.17-.86,6.37.35,2.07,1.26,4.08,2.63,5.68.66.77,1.47,1.46,2.4,1.87,1.17.51,2.43.55,3.64.17l-.94-.72c.05,1.57.81,2.85,2.1,3.71,1.14.76,2.51,1.11,3.86,1.27,2.96.34,6.03-.45,8.38-2.3,2.12-1.67,3.85-4.24,4.31-6.93.21-1.19.18-2.42-.36-3.52s-1.65-1.85-2.81-2.25c-1.31-.46-2.77-.55-4.14-.44-1.5.12-2.98.47-4.36,1.09-.37.16-.72.35-1.06.56l1.09.84c.3-1.82.14-3.67-.35-5.44-.45-1.64-1.2-3.29-2.4-4.51-.62-.63-1.38-1.13-2.24-1.37-.92-.26-1.32,1.18-.39,1.43Z"/>
    </g>
    <g>
      <path class="cls-18" d="M134.94,119.6c3.16-.85,6.83,2.75,8.2,8.05.32,1.23.48,2.44.51,3.59,4.04-3.14,8.73-3.82,10.73-1.45,1.06,1.26,1.16,3.13.47,5.13,3.86.3,6.82,2.09,7.15,4.64.42,3.26-3.62,6.5-9.03,7.26-4.28.59-8.12-.56-9.75-2.68-1.64.09-3.05-.36-3.93-1.41-.83-.99-1.07-2.35-.81-3.86-2.78-.33-5.63-3.62-6.8-8.15-1.37-5.3.09-10.28,3.25-11.13Z"/>
      <path class="cls-30" d="M135.14,120.32c.09-.02.18-.04.27-.06.04,0,.08-.01.12-.02.12-.02-.18,0,.02,0,.19,0,.37-.02.56,0,.08,0,.17.01.25.02-.17-.02.07.01.11.02.2.04.4.09.59.16.08.03.17.06.25.09.12.05-.15-.08.04.02.04.02.08.04.12.06.19.09.37.19.55.31s.35.23.51.35c.1.08-.07-.06.03.02.05.04.1.08.15.12.09.07.18.15.26.23,1.51,1.38,2.54,3.26,3.18,5.23.46,1.42.73,2.89.77,4.39,0,.3.18.57.46.68.3.12.56.04.81-.15.95-.73,2.01-1.37,3.11-1.84.95-.41,2.05-.71,2.99-.78.46-.03.92-.04,1.38.03-.12-.02.17.03.21.04.11.02.21.05.32.07.09.02.18.05.27.08.04.01.09.03.13.05,0,0,.22.09.08.03.18.08.35.17.51.27.09.05.17.11.25.17-.11-.08.12.11.16.14.31.29.55.64.71,1.02.47,1.14.25,2.5-.15,3.68-.17.49.27.9.72.94,1.32.11,2.71.42,3.85,1,.52.26.98.56,1.35.89.44.39.64.63.9,1.11.03.05.05.1.08.15.02.03.07.17.02.04.05.11.09.23.12.35s.06.24.09.36c0,0,.03.22.02.1-.01-.09.01.13.01.16,0,.11,0,.21,0,.32,0,.06,0,.13-.01.19,0,.03-.03.24,0,.05-.03.23-.09.46-.16.69-.02.06-.04.12-.07.19,0,0-.08.19-.04.1s-.05.1-.05.09c-.03.06-.06.12-.09.18-.12.23-.26.44-.41.65,0,0-.14.19-.06.08-.05.06-.09.11-.14.17-.08.1-.16.19-.25.28-.2.21-.4.41-.62.59-2,1.73-4.94,2.63-7.63,2.8-1.44.09-2.89,0-4.29-.37-.62-.16-1.17-.36-1.7-.62-.5-.25-1-.57-1.34-.87-.24-.21-.43-.44-.64-.67-.35-.38-.9-.24-1.37-.27-.68-.04-1.35-.22-1.93-.59-1.21-.77-1.53-2.32-1.29-3.74.09-.52-.21-.88-.72-.94.13.02,0,0-.06-.01-.08-.01-.15-.03-.22-.05-.14-.03-.28-.07-.42-.12-.08-.03-.15-.05-.22-.08-.08-.03,0,0,.02,0-.03-.01-.06-.03-.1-.04-.14-.06-.28-.13-.41-.21-.62-.35-1.02-.67-1.52-1.18-1.08-1.09-1.91-2.47-2.49-3.92-.67-1.67-1.07-3.46-1.13-5.26-.03-.78.01-1.63.13-2.35.06-.37.14-.74.24-1.11.05-.17.1-.35.16-.52.03-.08.05-.15.08-.23.01-.04.03-.08.04-.11,0-.01.07-.17.03-.08.14-.34.32-.66.51-.97.21-.33.28-.42.56-.71.12-.12.24-.23.37-.34.07-.05,0,0-.02.01.03-.03.07-.05.11-.08.07-.05.14-.1.22-.14.13-.08.26-.15.4-.21-.13.06.08-.03.12-.05.08-.03.17-.05.25-.08.92-.26.53-1.69-.39-1.43-3.19.89-4.24,4.68-4.31,7.61-.09,3.77,1.2,7.85,3.75,10.68,1.14,1.26,2.59,2.24,4.3,2.46l-.72-.94c-.28,1.68-.08,3.46,1.14,4.74,1.11,1.16,2.76,1.54,4.31,1.47l-.52-.22c1.38,1.76,3.74,2.59,5.88,2.89,2.7.38,5.53.07,8.08-.91,2.07-.79,4.14-2.05,5.33-3.98,1.01-1.65,1.07-3.72-.11-5.31-1.61-2.16-4.46-2.97-7.03-3.18l.72.94c.44-1.31.65-2.79.26-4.14-.31-1.09-1.02-2.03-1.99-2.61-1.94-1.16-4.47-.81-6.49-.06-1.53.57-2.93,1.4-4.22,2.4l1.27.52c-.07-2.74-.81-5.51-2.19-7.88-1.05-1.81-2.55-3.49-4.53-4.28-.93-.37-1.96-.45-2.93-.2s-.53,1.67.39,1.43Z"/>
    </g>
    <g>
      <path class="cls-23" d="M125.79,127.39c4.18-1.53,11.11,3,15.49,10.11.23.37.44.73.64,1.1.41.05.83.11,1.26.18,8.22,1.35,15.04,6.05,15.22,10.51.18,4.45-6.34,6.97-14.56,5.63-2.6-.43-5.05-1.19-7.2-2.17-.99-.4-2.02-.96-3.04-1.67-1.04-.68-1.95-1.42-2.7-2.19-1.72-1.62-3.36-3.61-4.74-5.85-4.38-7.11-4.54-14.12-.36-15.65Z"/>
      <path class="cls-30" d="M125.99,128.11c.24-.09.48-.15.73-.2.06-.01.11-.02.17-.03.19-.03-.08,0,.06,0s.27-.02.41-.03c.26,0,.52,0,.79.02.07,0,.14.01.22.02.09,0-.03,0-.04,0,.03,0,.06,0,.09.01.15.02.3.05.45.08,1.34.28,2.37.75,3.53,1.44,2.76,1.63,5.13,4.01,7.02,6.62.56.77,1.08,1.57,1.56,2.39.13.22.24.51.43.7.24.24.59.22.89.26.48.06.96.14,1.44.24,1.85.35,3.66.88,5.4,1.58,1.52.61,2.99,1.39,4.34,2.32.6.42,1.11.82,1.67,1.34.24.23.48.46.71.71.11.12.21.24.32.36.05.06.11.13.16.2.02.03.04.06.07.08-.05-.06-.01-.02.01.02.36.48.67,1,.91,1.55-.05-.12,0,0,.02.06.03.07.05.14.07.2.05.13.09.27.12.41.03.13.06.25.08.38.01.06.02.12.03.17-.02-.17,0,.04,0,.09.02.25.02.5,0,.75,0,.04,0,.08-.01.11,0,0,.02-.14,0-.06,0,.06-.02.11-.03.17-.03.13-.06.25-.09.38-.03.12-.08.23-.12.34.04-.12.02-.04-.01.03s-.06.13-.1.2c-.06.11-.12.21-.18.32-.03.05-.06.09-.09.14-.03.04-.14.2-.09.13.06-.07-.05.06-.07.08-.04.05-.09.1-.14.15-.09.1-.19.2-.29.3-.09.08-.18.17-.28.24-.02.02-.18.14-.12.1.05-.04-.1.07-.13.09-.5.36-1.05.65-1.61.89.1-.04-.07.03-.09.04-.08.03-.16.06-.24.09-.17.06-.34.12-.51.18-.34.11-.69.21-1.04.29-.74.18-1.45.29-2.16.36-3.74.36-7.58-.25-11.12-1.49-1.83-.64-3.58-1.45-5.19-2.54s-2.93-2.37-4.19-3.78c-2.6-2.92-4.72-6.47-5.73-10.26-.4-1.5-.61-3-.44-4.56,0-.04,0-.08.01-.11.02-.13-.02.1,0-.03.01-.07.02-.15.04-.22.03-.17.07-.33.11-.5.04-.15.08-.29.13-.44.02-.07.04-.13.07-.19.02-.05.1-.26.05-.14.12-.27.25-.53.41-.77.03-.05.07-.1.11-.16.1-.14-.03.02.06-.07.1-.11.19-.22.29-.32.09-.09.18-.17.28-.25s-.07.04.07-.05c.05-.04.1-.07.15-.1.11-.07.23-.14.36-.2.07-.03.13-.07.2-.1.08-.04-.02,0-.03.01.04-.02.08-.03.12-.05.38-.14.63-.5.52-.91-.1-.36-.54-.66-.91-.52-1.01.38-1.83,1.01-2.44,1.89s-.92,2-1.06,3.08c-.34,2.76.46,5.61,1.53,8.12,1.29,3.05,3.17,5.87,5.42,8.3,1.07,1.16,2.23,2.27,3.51,3.19s2.7,1.69,4.19,2.33c3.01,1.3,6.22,2.09,9.49,2.34,2.63.2,5.41.05,7.92-.84,1.82-.64,3.71-1.75,4.54-3.58s.42-3.82-.62-5.46c-1.28-2.03-3.28-3.57-5.34-4.75-2.59-1.49-5.47-2.5-8.4-3.08-.8-.16-1.6-.28-2.41-.38l.64.37c-1.64-2.93-3.76-5.64-6.31-7.84-2.01-1.73-4.41-3.33-7.06-3.86-1.18-.24-2.44-.26-3.59.15-.38.14-.63.51-.52.91.1.36.53.65.91.52Z"/>
    </g>
    <ellipse class="cls-24" cx="154.15" cy="149.29" rx="3.28" ry="2.56" transform="translate(-24.84 267.66) rotate(-77.56)"/>
    <ellipse class="cls-29" cx="158.51" cy="140.32" rx="2.61" ry="2.01" transform="translate(-.21 280.4) rotate(-82.95)"/>
    <ellipse class="cls-34" cx="161.2" cy="129.09" rx="2.14" ry="1.65" transform="translate(13.3 273.23) rotate(-82.95)"/>
    <ellipse class="cls-19" cx="158.42" cy="119.6" rx="1.23" ry="1.6" transform="translate(-1.96 2.64) rotate(-.95)"/>
    <ellipse class="cls-25" cx="128.08" cy="133.87" rx="1.6" ry="3.53" transform="translate(-56.35 151.59) rotate(-51.75)"/>
    <ellipse class="cls-25" cx="144.66" cy="145.35" rx="1.6" ry="3.53" transform="translate(-59.05 168.99) rotate(-51.75)"/>
    <ellipse class="cls-8" cx="134.85" cy="132.74" rx="5.36" ry="4.66" transform="translate(-51.04 168.08) rotate(-55.31)"/>
    <ellipse class="cls-8" cx="143.1" cy="138.45" rx="5.36" ry="4.66" transform="translate(-52.18 177.32) rotate(-55.31)"/>
    <path class="cls-13" d="M142.42,135.2c.58.4,1.21.52,1.39.25.16-.24-.08-.69-.55-1.08.74-.21,1.5-.14,2.11.28,1.23.85,1.36,2.79.3,4.32s-2.92,2.09-4.15,1.24-1.36-2.79-.3-4.32c.26-.37.57-.69.9-.94.09.08.19.17.3.24Z"/>
    <g>
      <ellipse class="cls-14" cx="143.19" cy="156.11" rx="6.2" ry="4.43" transform="translate(-10.13 9.93) rotate(-3.84)"/>
      <path class="cls-30" d="M142.89,150.95c-2.48.18-5.27,1.33-6.3,3.77-.46,1.09-.42,2.27.07,3.34s1.42,1.84,2.42,2.35c2.44,1.24,5.52,1.15,7.94-.09,2.02-1.04,3.71-3.29,2.9-5.65-.96-2.81-4.32-3.88-7.03-3.72-.4.02-.74.32-.74.74,0,.38.34.77.74.74,1.16-.07,2.29.06,3.37.52.12.05.4.19.57.3s.46.3.54.36c.38.31.64.58.85.93.06.09.11.18.16.28.03.05.05.11.08.16-.01-.03-.04-.12,0,.02.04.1.07.2.09.3.01.06.03.11.04.17,0,.03.03.23.02.08.02.21.02.43,0,.64,0,.03-.02.15,0,.01,0,.05-.02.09-.02.14-.03.13-.06.25-.1.38-.08.25-.07.23-.21.48-.05.1-.11.19-.17.28-.08.13-.1.15-.15.21-.32.39-.67.7-1.04.95-1.84,1.23-4.33,1.49-6.41.77-.45-.15-.86-.35-1.29-.64-.22-.15-.26-.18-.47-.37-.08-.08-.16-.16-.24-.24-.04-.04-.23-.27-.17-.19-.31-.4-.44-.69-.55-1.1-.01-.05-.02-.09-.03-.14,0,0-.04-.22-.02-.11s0-.13,0-.11c0-.05,0-.1,0-.14,0-.11,0-.21,0-.32,0-.04.02-.19,0-.05.01-.07.02-.14.04-.21.03-.12.06-.23.09-.34.01-.05.03-.09.05-.13.06-.16-.03.05.04-.09.11-.23.24-.45.39-.66.08-.11-.11.13.05-.06.05-.06.1-.12.15-.17.09-.1.18-.19.27-.28.22-.21.35-.31.58-.47,1.03-.7,2.23-1.07,3.48-1.17.4-.03.74-.32.74-.74,0-.38-.34-.77-.74-.74Z"/>
    </g>
    <g>
      <ellipse class="cls-14" cx="125.08" cy="143.2" rx="4.43" ry="6.2" transform="translate(-9.3 8.69) rotate(-3.84)"/>
      <path class="cls-30" d="M119.92,143.5c.18,2.48,1.33,5.27,3.77,6.3,1.09.46,2.27.42,3.34-.07s1.84-1.42,2.35-2.42c1.24-2.44,1.15-5.52-.09-7.94-1.04-2.02-3.29-3.71-5.65-2.9-2.81.96-3.88,4.32-3.72,7.03.02.4.32.74.74.74.38,0,.77-.34.74-.74-.07-1.16.06-2.29.52-3.37.05-.12.19-.4.3-.57s.3-.46.36-.54c.31-.38.58-.64.93-.85.09-.06.18-.11.28-.16.05-.03.11-.05.16-.08-.03.01-.12.04.02,0,.1-.04.2-.07.3-.09.06-.01.11-.03.17-.04.03,0,.23-.03.08-.02.21-.02.43-.02.64,0,.03,0,.15.02.01,0,.05,0,.09.02.14.02.13.03.25.06.38.1.25.08.23.07.48.21.1.05.19.11.28.17.13.08.15.1.21.15.39.32.7.67.95,1.04,1.23,1.84,1.49,4.33.77,6.41-.15.45-.35.86-.64,1.29-.15.22-.18.26-.37.47-.08.08-.16.16-.24.24-.04.04-.27.23-.19.17-.4.31-.69.44-1.1.55-.05.01-.09.02-.14.03,0,0-.22.04-.11.02s-.13,0-.11,0c-.05,0-.1,0-.14,0-.11,0-.21,0-.32,0-.04,0-.19-.02-.05,0-.07-.01-.14-.02-.21-.04-.12-.03-.23-.06-.34-.09-.05-.01-.09-.03-.13-.05-.16-.06.05.03-.09-.04-.23-.11-.45-.24-.66-.39-.11-.08.13.11-.06-.05-.06-.05-.12-.1-.17-.15-.1-.09-.19-.18-.28-.27-.21-.22-.31-.35-.47-.58-.7-1.03-1.07-2.23-1.17-3.48-.03-.4-.32-.74-.74-.74-.38,0-.77.34-.74.74Z"/>
    </g>
    <g>
      <path class="cls-17" d="M146.04,112.48c-1.68,1.1-3.49,2.43-5.34,4.04-1.15,1-2.19,1.99-3.12,2.95,2.82.48,7.94,1.72,13.2,5.39,5.67,3.96,8.68,8.77,10.04,11.34.64-.94,1.31-2.05,1.92-3.33,1.1-2.29,1.71-4.42,2.06-6.14-.84-2.04-3.35-7.41-9.31-11.05-3.74-2.28-7.32-2.96-9.46-3.19Z"/>
      <path class="cls-17" d="M160.81,136.33l-.06-.1c-2.4-4.49-5.86-8.4-10.02-11.31-3.9-2.73-8.46-4.59-13.17-5.38l-.13-.02.09-.1c.99-1.02,2.05-2.02,3.12-2.95,1.68-1.46,3.48-2.82,5.35-4.04h.02s.03-.01.03-.01c3.37.36,6.65,1.47,9.48,3.2,5.57,3.4,8.24,8.41,9.34,11.08v.02s0,.02,0,.02c-.43,2.14-1.13,4.21-2.07,6.15-.56,1.15-1.2,2.28-1.93,3.34l-.07.1ZM137.72,119.42c4.68.81,9.21,2.67,13.09,5.38,4.15,2.9,7.61,6.79,10.01,11.26.69-1.03,1.32-2.11,1.85-3.23.93-1.93,1.62-3.98,2.05-6.1-1.09-2.67-3.75-7.62-9.27-11-2.81-1.72-6.06-2.82-9.4-3.18-1.85,1.22-3.64,2.57-5.31,4.02-1.04.9-2.05,1.86-3.02,2.84Z"/>
    </g>
    <g class="cls-22">
      <path class="cls-7" d="M164.44,129.56c-.89-2.18-2.45-5.22-5.22-8.14-5.56-5.86-12.32-7.42-15-7.88.82-.81,1.64-1.62,2.47-2.44,1.86.14,8.43.86,13.78,6.25,3.56,3.59,4.92,7.57,5.45,9.58l-1.47,2.63Z"/>
    </g>
    <path class="cls-13" d="M138.04,134.34c.02-1.04-.3-2.1-.93-2.93s-1.56-1.47-2.61-1.75c-.3-.08-.61-.13-.92-.16-.44-.04-.85.41-.84.84.02.49.37.79.84.84.04,0,.08,0,.12.01.11.01-.28-.04-.11-.01.03,0,.07.01.1.02.17.03.34.07.5.12.09.03.19.06.28.1.21.08-.12-.06.01,0,.06.03.12.05.18.08.11.05.21.11.31.17.06.04.12.08.18.12.03.02.06.04.09.06-.09-.07-.11-.08-.04-.03.12.1.24.2.35.32.04.04.08.09.12.14.03.03.05.06.08.1-.06-.09-.07-.09-.01-.02.11.16.22.32.31.5.03.06.07.12.09.18-.05-.2.02.06.04.1.05.15.09.3.13.45.02.07.03.14.04.21s0,.21,0-.03c0,.19.03.37.03.56,0,.44.39.86.84.84s.83-.37.84-.84h0Z"/>
  </g>
</svg>