<?xml version="1.0" encoding="UTF-8"?>
<svg id="Layer_1" data-name="Layer 1" xmlns="http://www.w3.org/2000/svg" viewBox="0 0 151.5 164.07">
  <defs>
    <style>
      .cls-1 {
        fill: #72533e;
      }

      .cls-2, .cls-3 {
        fill: #fff;
      }

      .cls-4 {
        fill: #54c1ee;
      }

      .cls-5 {
        fill: #0d0e0e;
      }

      .cls-6 {
        fill: #5b3f29;
      }

      .cls-7 {
        fill: #f282aa;
      }

      .cls-8 {
        fill: #84654a;
      }

      .cls-9 {
        fill: #6d5341;
      }

      .cls-10 {
        fill: #89d6f5;
      }

      .cls-11 {
        fill: #6e2a49;
      }

      .cls-12 {
        fill: #967667;
      }

      .cls-13 {
        opacity: .2;
      }

      .cls-14 {
        fill: #eeb8cb;
      }

      .cls-3 {
        font-family: RixInooAriDuriR, RixInooAriDuriR;
        font-size: 7.35px;
      }

      .cls-15 {
        fill: #183749;
      }

      .cls-16 {
        fill: #29505c;
      }

      .cls-17 {
        fill: #604635;
      }

      .cls-18 {
        fill: #f7e49b;
      }

      .cls-19 {
        fill: #ab8871;
      }

      .cls-20 {
        fill: #452f1d;
      }

      .cls-21 {
        fill: #1b52a0;
      }

      .cls-22 {
        fill: #8e705a;
      }
    </style>
  </defs>
  <g>
    <g>
      <path class="cls-6" d="M29.38,157.24c.66-2-2.93-5.96-7.31-6.44-5.48-.6-9.94,4.5-9.29,6.6,1.01,3.25,15.45,3.28,16.59-.16Z"/>
      <path class="cls-20" d="M30.36,157.51c.5-1.61-.62-3.3-1.66-4.41-1.42-1.51-3.35-2.64-5.37-3.11-3.98-.91-8.23.92-10.57,4.21-.78,1.09-1.4,2.58-.78,3.88.47.98,1.58,1.51,2.55,1.87,1.27.47,2.65.67,3.99.79,1.46.14,2.94.15,4.41.03s2.84-.3,4.18-.73c1.1-.35,2.24-.87,2.92-1.84.15-.21.25-.44.33-.69.18-.52-.2-1.11-.71-1.25-.56-.15-1.07.19-1.25.71-.06.17.02-.1.05-.11-.02,0-.05.1-.06.12-.03.06-.2.3-.08.14s-.06.06-.11.11c-.07.07-.14.12-.21.19-.02.02.21-.15.04-.04-.04.03-.08.05-.12.08-.09.06-.19.12-.29.18s-.2.11-.3.15c-.05.02-.1.04-.15.07-.2.1.2-.08-.01,0-.51.2-1.03.36-1.57.48-.29.07-.58.13-.87.18-.15.03-.3.05-.46.07-.08.01-.17.02-.25.04.21-.03.05,0-.06,0-1.36.17-2.73.21-4.09.16-.66-.03-1.33-.08-1.99-.16-.04,0-.27-.04-.12-.01s-.1-.01-.15-.02c-.16-.02-.32-.05-.48-.08-.29-.05-.57-.11-.85-.18s-.54-.14-.81-.22c-.12-.04-.24-.08-.36-.12-.05-.02-.11-.04-.16-.06-.03,0-.05-.02-.08-.03-.16-.06.03.04.07.03-.1.04-.5-.24-.59-.29-.09-.05-.17-.1-.25-.16-.04-.02-.07-.05-.11-.08,0,0,.18.16.04.03-.06-.06-.12-.12-.19-.18-.19-.19.1.18-.01-.01-.02-.03-.08-.18-.11-.2.05.03.09.29.05.1-.01-.05-.02-.1-.04-.15-.05-.14,0,.24.01.09,0-.06,0-.11,0-.17,0-.05,0-.1,0-.15,0-.22-.06.23,0,0,.03-.11.05-.22.09-.33.02-.07.05-.13.07-.2.01-.03.02-.06.03-.09.04-.12-.09.18-.03.07.16-.27.29-.56.46-.82.04-.06.08-.12.13-.19.03-.04.18-.24.11-.15-.08.1.07-.09.1-.12.07-.08.14-.17.21-.25.25-.28.51-.54.79-.79.15-.13.3-.25.45-.37-.13.1.04-.03.09-.06.1-.07.2-.14.31-.21.34-.23.7-.44,1.07-.63.1-.05.2-.1.31-.15.04-.02.25-.11.19-.09-.04.02.18-.07.25-.1.11-.04.22-.08.33-.12.43-.14.88-.26,1.33-.34.04,0,.29-.04.14-.02.1-.01.21-.02.31-.03.25-.02.49-.03.74-.03,1.8,0,3.48.68,5,1.8.09.07.01,0,0,0,.04.03.08.06.12.09.09.07.18.15.26.22.17.15.33.3.49.46.13.13.25.26.38.4.07.08.13.16.2.24.07.09-.02-.02-.02-.03.03.04.07.09.1.14.21.29.39.59.55.91.02.03.03.07.05.1,0,0-.06-.18-.03-.08.02.08.06.15.08.23.04.13.06.27.1.41.03.12,0-.21-.01-.09,0,.03,0,.06,0,.09,0,.06,0,.12,0,.17,0,.2,0-.02,0-.02-.03.04-.03.14-.05.18-.16.52.19,1.11.71,1.25.54.15,1.08-.18,1.25-.71Z"/>
    </g>
    <g>
      <path class="cls-6" d="M50.63,156.35c.66-2-2.93-5.96-7.31-6.44-5.48-.6-9.94,4.5-9.29,6.6,1.01,3.25,15.45,3.28,16.59-.16Z"/>
      <path class="cls-20" d="M51.61,156.62c.5-1.61-.62-3.3-1.66-4.41-1.42-1.51-3.35-2.64-5.37-3.11-3.98-.91-8.23.92-10.57,4.21-.78,1.09-1.4,2.58-.78,3.88.47.98,1.58,1.51,2.55,1.87,1.27.47,2.65.67,3.99.79,1.46.14,2.94.15,4.41.03s2.84-.3,4.18-.73c1.1-.35,2.24-.87,2.92-1.84.15-.21.25-.44.33-.69.18-.52-.2-1.11-.71-1.25-.56-.15-1.07.19-1.25.71-.06.17.02-.1.05-.11-.02,0-.05.1-.06.12-.03.06-.2.3-.08.14s-.06.06-.11.11c-.07.07-.14.12-.21.19-.02.02.21-.15.04-.04-.04.03-.08.05-.12.08-.09.06-.19.12-.29.18s-.2.11-.3.15c-.05.02-.1.04-.15.07-.2.1.2-.08-.01,0-.51.2-1.03.36-1.57.48-.29.07-.58.13-.87.18-.15.03-.3.05-.46.07-.08.01-.17.02-.25.04.21-.03.05,0-.06,0-1.36.17-2.73.21-4.09.16-.66-.03-1.33-.08-1.99-.16-.04,0-.27-.04-.12-.01s-.1-.01-.15-.02c-.16-.02-.32-.05-.48-.08-.29-.05-.57-.11-.85-.18s-.54-.14-.81-.22c-.12-.04-.24-.08-.36-.12-.05-.02-.11-.04-.16-.06-.03,0-.05-.02-.08-.03-.16-.06.03.04.07.03-.1.04-.5-.24-.59-.29-.09-.05-.17-.1-.25-.16-.04-.02-.07-.05-.11-.08,0,0,.18.16.04.03-.06-.06-.12-.12-.19-.18-.19-.19.1.18-.01-.01-.02-.03-.08-.18-.11-.2.05.03.09.29.05.1-.01-.05-.02-.1-.04-.15-.05-.14,0,.24.01.09,0-.06,0-.11,0-.17,0-.05,0-.1,0-.15,0-.22-.06.23,0,0,.03-.11.05-.22.09-.33.02-.07.05-.13.07-.2.01-.03.02-.06.03-.09.04-.12-.09.18-.03.07.16-.27.29-.56.46-.82.04-.06.08-.12.13-.19.03-.04.18-.24.11-.15-.08.1.07-.09.1-.12.07-.08.14-.17.21-.25.25-.28.51-.54.79-.79.15-.13.3-.25.45-.37-.13.1.04-.03.09-.06.1-.07.2-.14.31-.21.34-.23.7-.44,1.07-.63.1-.05.2-.1.31-.15.04-.02.25-.11.19-.09-.04.02.18-.07.25-.1.11-.04.22-.08.33-.12.43-.14.88-.26,1.33-.34.04,0,.29-.04.14-.02.1-.01.21-.02.31-.03.25-.02.49-.03.74-.03,1.8,0,3.48.68,5,1.8.09.07.01,0,0,0,.04.03.08.06.12.09.09.07.18.15.26.22.17.15.33.3.49.46.13.13.25.26.38.4.07.08.13.16.2.24.07.09-.02-.02-.02-.03.03.04.07.09.1.14.21.29.39.59.55.91.02.03.03.07.05.1,0,0-.06-.18-.03-.08.02.08.06.15.08.23.04.13.06.27.1.41.03.12,0-.21-.01-.09,0,.03,0,.06,0,.09,0,.06,0,.12,0,.17,0,.2,0-.02,0-.02-.03.04-.03.14-.05.18-.16.52.19,1.11.71,1.25.54.15,1.08-.18,1.25-.71Z"/>
    </g>
    <g>
      <ellipse class="cls-17" cx="29.43" cy="106.95" rx="9.76" ry="13.59" transform="translate(-2.36 .68) rotate(-1.27)"/>
      <path class="cls-20" d="M38.17,106.68c.02.71,0,1.42-.07,2.13-.01.15-.03.31-.05.46-.02.21-.02.16-.04.3-.05.35-.11.71-.19,1.05-.13.63-.29,1.24-.49,1.85-.21.65-.38,1.06-.64,1.61s-.54,1.04-.85,1.53c-.15.23-.31.45-.47.68-.12.16-.04.06-.02.02-.04.05-.08.1-.12.15-.1.12-.2.24-.3.36-.36.41-.76.8-1.18,1.14-.05.04-.09.07-.14.11.03-.02.15-.11,0,0-.1.07-.19.14-.29.21-.23.16-.46.3-.7.43-.21.12-.43.22-.65.32.2-.09-.09.04-.15.06-.13.05-.27.1-.4.14-.23.07-.46.13-.7.18-.13.03-.25.05-.38.07.04,0,.21-.02.02,0-.09,0-.17.02-.26.02-.23.02-.46.02-.69.02-.13,0-.26,0-.38-.02-.06,0-.11-.01-.17-.01-.23-.02,0,0-.07,0-.49-.07-.97-.2-1.44-.36-.11-.04-.21-.08-.32-.12.22.09-.15-.07-.19-.09-.25-.12-.49-.25-.72-.4-.2-.12-.4-.25-.59-.39,0,0-.23-.17-.11-.08.1.07-.05-.04-.07-.06-.12-.1-.23-.19-.35-.29-.41-.36-.79-.75-1.14-1.17-.08-.1-.16-.2-.24-.3.11.13-.02-.03-.05-.06-.04-.05-.08-.1-.12-.16-.18-.25-.36-.51-.52-.78-1.29-2.08-2.02-4.57-2.21-6.98-.21-2.68.1-5.19,1.1-7.7.03-.06.05-.13.08-.19-.05.13.01-.03.02-.05.06-.14.13-.28.19-.42.14-.29.28-.58.44-.86.27-.49.58-.95.9-1.4.18-.25-.07.08.04-.06.04-.05.08-.1.12-.15.09-.11.18-.22.27-.32.18-.21.37-.41.57-.6.18-.18.37-.35.57-.51.05-.04.09-.08.14-.11.13-.11-.19.14.04-.03.11-.08.21-.16.32-.23.42-.28.86-.53,1.32-.73-.21.1.15-.06.19-.07.12-.04.24-.08.36-.12.24-.08.49-.14.74-.19.11-.02.22-.04.34-.06-.24.04.13-.01.2-.02.26-.02.52-.03.77-.02.13,0,.26.01.38.02.08,0,.38.04.15.01.25.04.5.08.75.15s.49.14.73.22c.11.04.21.08.32.12-.2-.08.16.08.23.11.46.23.89.5,1.31.79.04.03.2.15.04.03.05.04.09.07.14.11.09.08.19.15.28.23.21.18.41.37.6.57s.39.41.57.63c.23.28.22.25.43.56,1.47,2.05,2.26,4.3,2.61,6.83.03.22-.03-.24.02.13,0,.08.02.15.03.23.02.16.03.31.04.47.03.36.05.71.06,1.07.02.55.45,1.01,1.01,1.01s1.03-.46,1.01-1.01c-.08-2.9-.76-5.81-2.16-8.36-1.16-2.12-2.91-4.09-5.14-5.13s-4.55-1.12-6.73-.22c-2.31.96-4.11,2.81-5.33,4.97-2.84,5.02-2.88,11.57-.47,16.76,1.05,2.26,2.69,4.34,4.85,5.62,2.02,1.19,4.49,1.56,6.74.86,5.17-1.6,7.71-7.33,8.17-12.32.07-.73.09-1.45.07-2.18-.01-.55-.46-1.01-1.01-1.01s-1.03.46-1.01,1.01Z"/>
    </g>
    <g>
      <path class="cls-1" d="M44.17,102.55c-4.47-2.45-10.97.91-14.53,7.51-.24.45-.46.9-.67,1.36-.21-.4-.43-.8-.67-1.19-3.87-6.39-10.44-9.46-14.66-6.84-4.22,2.62-4.5,9.92-.63,16.31,3.87,6.39,10.44,9.46,14.66,6.84.69-.43,1.27-1,1.75-1.66.53.63,1.15,1.16,1.88,1.56,4.47,2.45,10.97-.91,14.53-7.51,3.55-6.6,2.81-13.93-1.67-16.38Z"/>
      <path class="cls-20" d="M44.68,101.68c-4.87-2.63-10.49.69-13.63,4.49-1.19,1.44-2.19,3.03-2.95,4.74h1.75c-2-3.82-5.2-7.26-9.29-8.8-1.65-.62-3.46-.85-5.2-.49s-3.27,1.43-4.33,2.87c-1.14,1.56-1.64,3.53-1.74,5.43-.12,2.22.3,4.48,1.06,6.55,1.54,4.22,4.46,8.17,8.41,10.41,3.18,1.81,7.27,2.4,10.27-.09.49-.41.89-.89,1.27-1.4l-1.59.21c1.69,1.99,4.28,2.91,6.86,2.58s4.94-1.63,6.89-3.34c2.31-2.02,4.05-4.65,5.22-7.48s1.67-5.77,1.27-8.72-1.73-5.55-4.28-6.97c-.48-.27-1.11-.12-1.39.36s-.12,1.12.36,1.39c.23.13.45.27.66.42.05.03.09.07.14.1-.15-.12-.03-.02,0,0,.11.1.22.19.32.29.19.18.37.37.54.57.04.04.07.09.11.14-.03-.03-.11-.15,0,0,.09.12.17.24.25.36.15.23.28.46.41.7.06.11.11.22.16.33.03.06.05.11.08.17-.09-.19.03.09.04.1.21.54.37,1.09.48,1.66.03.13.05.26.07.39.01.08.03.17.04.25.03.17-.02-.14,0,.03.04.33.07.65.08.98.03.65.01,1.3-.04,1.94-.11,1.24-.43,2.64-.88,3.94-.89,2.57-2.38,4.96-4.28,6.86-.43.43-.89.84-1.37,1.23-.26.21.08-.06-.08.06-.07.05-.14.1-.2.15-.11.08-.22.16-.33.23-.24.17-.49.33-.75.48s-.5.29-.76.42c-.11.06-.22.11-.34.17-.06.03-.45.2-.27.12-.49.21-1.01.38-1.53.5-.28.07-.56.12-.84.16.22-.03.06,0,.02,0-.08,0-.17.02-.25.02-.14.01-.28.02-.41.02-.27,0-.55,0-.82-.02-.07,0-.14-.02-.2-.02-.13,0,.18.03-.01,0-.13-.02-.26-.04-.4-.07-.27-.06-.55-.14-.81-.23-.05-.02-.1-.04-.15-.06-.21-.08.01,0-.06-.02-.12-.06-.25-.11-.37-.18-.71-.37-1.25-.84-1.78-1.46-.46-.55-1.24-.27-1.59.21-.51.69-1.2,1.25-2.02,1.63-.08.04-.21.09-.05.02-.09.03-.17.07-.26.1-.17.06-.35.11-.53.16-.15.04-.31.07-.47.1-.09.02-.29.04-.09.02-.09,0-.19.02-.28.03-.37.03-.74.03-1.11,0-.1,0-.19-.01-.29-.02-.04,0-.28-.03-.16-.02s-.17-.03-.2-.03c-.1-.02-.2-.04-.3-.06-.39-.08-.78-.19-1.16-.32-.19-.06-.37-.13-.56-.21-.04-.02-.09-.03-.13-.05.02,0,.13.06.03.01-.12-.05-.23-.1-.34-.16-3.52-1.68-6.16-4.83-7.81-8.39-.43-.93-.79-1.95-1.05-2.98-.13-.5-.24-1.02-.32-1.53-.04-.23-.04-.27-.07-.56-.03-.25-.05-.51-.06-.77-.02-.48-.03-.95,0-1.43.01-.2.03-.41.05-.61,0-.07.01-.13.02-.2,0,.02-.02.14,0,.02s.04-.23.06-.34c.08-.43.18-.85.31-1.26.06-.19.13-.38.2-.57s-.04.08.04-.1c.05-.11.1-.22.16-.33.18-.36.39-.69.63-1.02.07-.09-.02.02-.03.03.03-.03.05-.07.08-.1.07-.08.13-.15.2-.23.14-.15.28-.29.43-.43.06-.06.13-.12.2-.17.05-.04.21-.16.07-.06.16-.12.33-.23.5-.34.15-.09.3-.17.46-.25.08-.04.17-.08.25-.12-.19.08.01,0,.09-.03.33-.12.68-.22,1.03-.28.04,0,.32-.05.18-.03s.11-.01.14-.01c.19-.02.38-.03.57-.03.37,0,.75.02,1.12.06-.18-.02-.01,0,.07.01.1.02.2.04.3.05.2.04.4.09.6.14.38.1.75.23,1.12.37.05.02.31.13.15.06.09.04.17.08.26.12.2.09.4.19.6.3.39.21.78.44,1.15.68.18.12.37.25.55.38.23.17.28.21.46.35,1.57,1.26,2.85,2.74,3.9,4.39.32.5.62,1.02.89,1.55.33.63,1.44.69,1.75,0,1.19-2.65,2.81-4.93,5.07-6.75.18-.14.33-.26.61-.45s.55-.37.83-.54c.23-.14.47-.27.71-.4.13-.06.25-.13.38-.19.06-.03.45-.2.27-.12.52-.22,1.06-.4,1.61-.52.25-.06.5-.11.76-.14-.25.04.13-.01.19-.02.15-.01.3-.02.46-.03.27,0,.55,0,.82.02.05,0,.11.01.16.02.24.02-.17-.03.05,0,.15.03.29.05.43.08.27.06.54.14.81.24.05.02.1.04.15.06.22.08-.14-.07.06.02.15.07.29.14.44.22.48.26,1.1.12,1.39-.36s.12-1.13-.36-1.39Z"/>
    </g>
    <g>
      <path class="cls-8" d="M52.54,115.51c-3.03-3.29-9.9-1.81-15.34,3.31-1.26,1.19-2.34,2.47-3.21,3.77-2.37-6.57-7.29-10.77-11.33-9.5-2.14.67-3.63,2.76-4.29,5.58-4.67-2.47-9.4-2.56-11.64.14-2.86,3.45-.57,10.15,5.12,14.96,4.5,3.81,9.78,5.28,13.21,4.02,1.83,1.3,3.78,1.8,5.56,1.24,1.68-.53,2.95-1.93,3.75-3.87,3.45,1.65,9.14-.07,13.79-4.44,5.44-5.12,7.4-11.93,4.37-15.22Z"/>
      <path class="cls-20" d="M53.25,114.79c-1.85-1.98-4.68-2.29-7.22-1.86-3.19.54-6.14,2.26-8.59,4.32-1.66,1.39-3.12,3.03-4.32,4.83l1.85.24c-1.25-3.44-3.26-6.8-6.32-8.92-1.2-.83-2.58-1.4-4.04-1.53s-3.03.38-4.22,1.32c-1.61,1.27-2.53,3.26-3,5.21l1.49-.61c-1.71-.9-3.55-1.6-5.48-1.87-1.59-.22-3.27-.22-4.79.38-1.35.53-2.52,1.43-3.25,2.7-.61,1.07-.88,2.31-.88,3.53,0,2.88,1.32,5.71,2.99,8,2.09,2.87,4.87,5.29,8.05,6.89,2.92,1.47,6.6,2.5,9.81,1.34l-.78-.1c1.88,1.32,4.34,2.1,6.58,1.26,2.07-.77,3.39-2.5,4.22-4.49l-1.49.61c1.94.91,4.12.9,6.18.43,2.43-.56,4.73-1.76,6.71-3.25,3.97-2.97,7.49-7.39,8.14-12.44.27-2.14-.16-4.36-1.64-5.99-.37-.41-1.06-.37-1.43,0-.4.4-.37,1.03,0,1.43.07.08.13.15.2.23.12.14-.09-.14.05.07.11.16.21.31.3.48.05.09.09.18.14.27.02.03.03.07.05.1.06.13-.06-.17-.01-.03.07.19.14.39.2.59.05.18.09.36.13.54.02.09.03.18.05.28-.04-.26,0,.12.01.18.03.43.03.85,0,1.28,0,.1-.02.21-.03.31,0,.06-.01.12-.02.18,0-.04.03-.2,0,0-.04.23-.08.46-.13.68-.11.49-.24.98-.41,1.45-.33.95-.73,1.79-1.29,2.74-2.32,3.93-6.31,7.39-10.65,8.71-.55.17-1.11.3-1.68.39-.05,0-.1.01-.14.02-.12.02.13-.01-.06,0-.13.01-.25.03-.38.04-.26.02-.52.03-.78.03s-.5-.01-.75-.03c-.06,0-.11-.01-.17-.02-.2-.02.1.02-.03,0-.11-.02-.22-.04-.33-.06-.23-.05-.46-.1-.68-.17-.1-.03-.2-.07-.3-.11-.05-.02-.1-.04-.15-.06.16.07.04.01-.05-.03-.65-.3-1.22-.03-1.49.61-.31.74-.8,1.53-1.35,2.09-.33.34-.45.44-.83.67-.14.09-.29.16-.44.24-.27.15.16-.05-.13.06-.13.05-.26.09-.4.13-.85.25-1.69.19-2.58-.09-.41-.13-.77-.29-1.16-.51-.24-.13-.47-.27-.69-.42-.38-.26-.71-.36-1.17-.2-.32.11-.66.19-.99.25-.09.02-.17.03-.26.04.24-.04-.05,0-.09,0-.21.02-.43.03-.64.04-.83.02-1.5-.05-2.18-.18-1.85-.36-3.45-1.03-5.06-1.97-3.26-1.91-6.05-4.7-7.72-8.04-.09-.18-.18-.37-.26-.56,0,0-.13-.31-.06-.13-.04-.09-.08-.18-.11-.28-.15-.39-.29-.78-.4-1.18-.1-.35-.18-.71-.25-1.07-.01-.06-.07-.49-.04-.25-.02-.2-.04-.4-.05-.6-.02-.33-.01-.66.01-.99,0-.08.02-.16.02-.24.02-.27-.04.22,0-.04.03-.18.07-.36.11-.53.04-.15.08-.29.13-.44.02-.05.17-.43.06-.18.13-.3.29-.58.47-.85.04-.06.09-.12.13-.18-.16.22.07-.08.11-.12.15-.16.31-.32.47-.46.01-.01.26-.2.09-.08.1-.07.21-.15.31-.21.16-.1.33-.19.5-.28.01,0,.3-.14.11-.06.12-.05.24-.1.37-.14.22-.07.45-.14.68-.19.49-.11.74-.14,1.31-.15,2.22-.06,4.43.67,6.44,1.73.56.29,1.33.06,1.49-.61.21-.85.46-1.62.83-2.31.16-.3.34-.6.54-.88,0,0,.2-.26.08-.11.05-.06.1-.13.16-.19.14-.16.28-.31.43-.45.11-.11.23-.21.36-.31-.16.13.08-.06.1-.06.05-.04.1-.07.16-.1.16-.1.32-.19.48-.27.06-.03.11-.05.17-.08-.19.09.15-.05.19-.07.27-.09.55-.15.83-.2-.26.05.09,0,.18-.01.15,0,.3-.01.46,0,.13,0,.25.02.38.02.26.02-.22-.04.04,0,.08.01.15.03.23.04.29.06.57.13.85.23.08.03.15.05.23.08.03.01.29.12.07.02.13.06.26.12.38.18.3.15.59.32.88.5.14.09.28.19.41.28.06.05.12.09.19.14.14.11-.18-.15.05.04.3.25.59.5.87.77.24.24.48.48.7.73.25.28.57.67.72.86,1.15,1.56,2.06,3.27,2.7,5.05.3.83,1.35.99,1.85.24,1.83-2.73,4.32-5.02,7.19-6.59,1.25-.69,2.41-1.17,3.85-1.49.28-.06.57-.12.86-.16.31-.05-.2.02.11-.01.06,0,.12-.01.19-.02.17-.02.34-.03.5-.04.28-.01.56-.02.84,0,.14,0,.29.02.43.03.06,0,.11.01.17.02-.25-.03,0,0,.06.01.29.05.59.12.87.2.15.05.3.1.45.16.17.07,0,0-.03-.01.07.03.14.06.21.1.26.13.51.29.75.46.13.09-.18-.16,0,0,.06.05.12.1.17.15.11.1.22.21.33.33.37.4,1.06.38,1.43,0,.4-.4.38-1.03,0-1.43Z"/>
    </g>
    <g>
      <path class="cls-12" d="M57.41,131.17c-3.7-4.81-15.01-4.65-25.25.37-.53.26-1.04.53-1.54.8-.51-.25-1.04-.49-1.58-.71-10.47-4.45-21.77-3.99-25.23,1.02-3.46,5.01,2.22,12.67,12.7,17.12,3.31,1.4,6.69,2.32,9.89,2.76,1.44.26,3.03.36,4.73.3,1.7-.03,3.29-.21,4.71-.56,3.17-.61,6.51-1.71,9.74-3.29,10.24-5.01,15.53-12.98,11.83-17.79Z"/>
      <path class="cls-20" d="M58.12,130.45c-1.95-2.5-5.34-3.41-8.36-3.7-4.08-.39-8.28.32-12.17,1.53-2.59.81-5.1,1.88-7.49,3.18h1.02c-4.06-1.93-8.4-3.23-12.88-3.72-3.52-.39-7.33-.31-10.68.98-2.55.99-4.98,2.81-5.61,5.62-.6,2.65.47,5.34,2.02,7.47,2.11,2.9,5.04,5.15,8.14,6.91,3.96,2.25,8.35,3.82,12.84,4.59,1.12.19,2.24.38,3.37.47s2.35.08,3.52.03c2.27-.1,4.51-.55,6.7-1.13,4.3-1.14,8.49-3,12.17-5.52,2.87-1.96,5.61-4.39,7.36-7.43,1.28-2.2,2.07-4.99,1.09-7.46-.23-.58-.51-1.11-.88-1.61-.33-.43-.87-.66-1.39-.36-.43.25-.7.95-.36,1.39.21.27.39.55.55.86.04.08.08.16.12.24.02.04.03.08.05.12,0,0-.07-.2-.04-.09.05.17.12.33.17.5.05.16.08.32.12.48.01.07.02.15.04.23.03.11-.01-.11-.01-.11,0,.05.01.11.02.16.03.35.04.69.02,1.04,0,.08-.01.16-.02.24-.01.11-.03.24,0,.04-.03.19-.06.37-.1.56-.08.36-.18.72-.31,1.07-.03.1-.07.19-.11.29-.01.04-.12.29-.07.17.05-.11-.06.12-.08.17-.04.1-.09.2-.14.29-.19.39-.4.77-.63,1.14s-.49.75-.75,1.11c-.03.04-.2.26-.09.13-.08.1-.16.2-.23.29-.16.2-.33.39-.5.59-.68.77-1.41,1.49-2.18,2.17-.88.77-1.64,1.36-2.6,2.02-1.03.7-2.09,1.35-3.19,1.95-2.41,1.31-4.94,2.36-7.57,3.13s-5.18,1.28-7.85,1.35-5.36-.3-8.02-.93-5.3-1.55-7.78-2.75c-1.11-.54-2.2-1.13-3.26-1.78-.49-.3-.97-.62-1.44-.94-.21-.15-.42-.3-.63-.45-.12-.09-.23-.17-.35-.26-.09-.07-.09-.07-.22-.17-.81-.64-1.59-1.34-2.31-2.08-.33-.34-.64-.69-.94-1.05-.07-.08-.13-.16-.2-.25-.04-.05-.07-.09-.11-.14.02.03.11.15,0,0-.14-.19-.28-.38-.41-.57-.23-.34-.45-.7-.65-1.07-.09-.16-.18-.33-.26-.5-.05-.09-.09-.19-.13-.28-.02-.04-.03-.07-.05-.11-.05-.12.07.18,0,0-.13-.35-.26-.69-.35-1.05-.05-.17-.08-.34-.12-.52-.02-.08-.03-.16-.04-.24-.04-.18,0,.04,0,.06,0-.06-.01-.11-.02-.17-.03-.33-.04-.67-.02-1.01,0-.08.01-.15.02-.23.02-.28-.03.09,0-.06.04-.17.06-.34.11-.51.04-.15.08-.3.13-.44.03-.07.06-.14.08-.22.04-.13-.09.18-.03.06.02-.05.05-.1.07-.15.15-.31.32-.61.52-.88.04-.06.23-.28.06-.09.06-.07.11-.13.17-.2.12-.14.25-.28.39-.41s.28-.26.43-.38c.07-.05.23-.18.07-.06.09-.07.19-.14.29-.21.33-.23.69-.44,1.05-.63.19-.1.38-.19.58-.28.04-.02.08-.03.12-.05.14-.06-.15.06,0,0,.12-.05.25-.1.37-.15.89-.33,1.81-.57,2.74-.74.25-.05.5-.09.75-.12.12-.02,0,0-.01,0,.07,0,.14-.02.21-.03.14-.02.28-.03.42-.05.56-.06,1.11-.09,1.67-.11,4.99-.16,10.03.98,14.65,2.96.31.13.62.27.93.41.52.24.97.52,1.54.24.64-.31,1.26-.67,1.91-.98,1.19-.57,2.42-1.08,3.67-1.52s2.5-.82,3.77-1.13c.6-.15,1.21-.28,1.82-.39.28-.05.56-.1.84-.15.16-.03.32-.05.48-.07.06,0,.12-.02.18-.03.03,0,.26-.04.14-.02,1.15-.15,2.31-.24,3.46-.25.53,0,1.07,0,1.6.04.26.02.51.04.77.06.12.01.23.02.35.04.05,0,.1.01.15.02.32.04-.2-.03.12.02.92.14,1.84.33,2.72.63.21.07.41.15.61.23.04.02.08.03.12.05-.19-.08-.05-.02,0,0,.1.05.2.09.3.14.37.18.74.38,1.08.61.08.05.15.1.22.15.04.03.24.18.14.1-.11-.08.1.09.13.11.08.06.15.13.23.2.27.25.52.52.75.81.34.43,1.08.35,1.43,0,.43-.43.34-1,0-1.43Z"/>
    </g>
    <ellipse class="cls-19" cx="10.22" cy="122.22" rx="3.56" ry="2.75" transform="translate(-104.68 79.32) rotate(-64.75)"/>
    <ellipse class="cls-22" cx="15.31" cy="107.3" rx="2.92" ry="2.25" transform="translate(-88.27 75.37) rotate(-64.75)"/>
    <ellipse class="cls-9" cx="26.15" cy="98.13" rx="2.18" ry="1.68" transform="translate(-70.25 66.19) rotate(-56.75)"/>
    <ellipse class="cls-14" cx="44.63" cy="141.49" rx="4.82" ry="2.19" transform="translate(-14.41 5.38) rotate(-5.94)"/>
    <ellipse class="cls-14" cx="17.12" cy="142.64" rx="4.82" ry="2.19" transform="translate(-14.68 2.54) rotate(-5.94)"/>
    <ellipse class="cls-2" cx="37.63" cy="135.25" rx="6.36" ry="7.31" transform="translate(-5.6 1.68) rotate(-2.39)"/>
    <path class="cls-5" d="M39.74,133.68c-.97.04-1.77-.28-1.79-.73-.02-.39.6-.74,1.42-.85-.7-.79-1.63-1.26-2.64-1.21-2.04.09-3.61,2.22-3.5,4.77.11,2.55,1.85,4.55,3.89,4.46s3.61-2.22,3.5-4.77c-.03-.62-.15-1.21-.35-1.74-.17.03-.34.05-.53.06Z"/>
    <ellipse class="cls-2" cx="23.95" cy="135.82" rx="6.36" ry="7.31" transform="translate(-5.63 1.11) rotate(-2.39)"/>
    <path class="cls-2" d="M4.9,144.73c-.04-1.24-.9-2.3-2.07-2.57-1.07-.25-2.2.21-2.83,1.14"/>
    <path class="cls-5" d="M21.38,133.69c1.62,1.09,3.24,2.18,4.86,3.27v-2.06c-1.57,1.03-3.15,2.06-4.72,3.09-.52.34-.79,1.07-.43,1.63.34.52,1.07.79,1.63.43,1.57-1.03,3.15-2.06,4.72-3.09.78-.51.76-1.55,0-2.06-1.62-1.09-3.24-2.18-4.86-3.27-.52-.35-1.34-.12-1.63.43-.32.6-.13,1.26.43,1.63h0Z"/>
  </g>
  <g>
    <g>
      <path class="cls-4" d="M92.56,132.82c2.84,5.69,7.8,13.57,16.46,19.94,5.59,4.11,10.42,5.91,9.99,7.57-.56,2.19-10.58,1.71-18.37-.13-6.03-1.42-10.72-3.66-13.8-5.39"/>
      <path class="cls-16" d="M91.56,133.41c2.07,4.13,4.58,8.03,7.54,11.59,3.83,4.59,8.41,8.38,13.47,11.54,1.06.66,2.14,1.3,3.19,1.97.4.26.8.52,1.19.8.08.06.16.11.24.17-.25-.22-.03-.02.04.03.14.12.28.24.41.37.05.05.1.1.15.16.02.03.04.05.07.08.13.14-.14-.22-.08-.1.03.05.07.1.1.15.02.02.03.05.04.07.1.15-.06-.11-.06-.15,0,.02.04.15.05.16-.01-.02,0-.34-.02-.13s.05-.34.02-.13-.02.05.05-.09c-.03.05-.14.2,0,.01.16-.19.02-.03-.02,0-.16.15-.1,0,.07-.04-.05.01-.12.08-.16.11-.06.04-.12.07-.18.1-.15.08-.22.02.05-.01-.15.02-.33.12-.48.16-.37.11-.74.17-1.12.23-.13.02-.06-.05.08,0-.03,0-.13.02-.15.02-.11.01-.21.02-.32.03-.25.03-.5.04-.76.06-1.11.07-2.22.06-3.33,0-1.3-.06-2.6-.17-3.9-.31-.33-.04-.67-.08-1-.12-.03,0-.23-.03-.05,0-.08-.01-.16-.02-.24-.03-.2-.03-.4-.06-.59-.09-.68-.1-1.35-.21-2.02-.34-2.89-.53-5.73-1.27-8.49-2.26-2.35-.84-4.36-1.72-6.64-2.92-.43-.23-.86-.46-1.29-.7-.53-.29-1.28-.14-1.58.41s-.15,1.27.41,1.58c4.75,2.65,9.89,4.62,15.22,5.76,2.81.6,5.66,1.01,8.52,1.23,2.28.17,4.61.25,6.88-.12,1.41-.23,3.37-.88,3.31-2.64-.03-.83-.58-1.52-1.18-2.04-.78-.67-1.65-1.23-2.52-1.77-2.52-1.57-5.06-3.09-7.43-4.88s-4.54-3.8-6.53-5.96c-.94-1.01-1.83-2.06-2.69-3.15-.09-.12-.19-.24-.28-.35.11.14,0,0-.02-.03-.04-.06-.09-.12-.13-.18-.21-.28-.42-.56-.62-.84-.37-.5-.73-1.01-1.08-1.53-1.27-1.86-2.43-3.8-3.48-5.79-.23-.43-.45-.87-.67-1.3-.28-.56-1.07-.71-1.58-.41-.57.33-.69,1.02-.41,1.58h0Z"/>
    </g>
    <rect class="cls-4" x="67.07" y="112.67" width="30.23" height="35.66" transform="translate(34.51 -16.17) rotate(14.19)"/>
    <g>
      <path class="cls-4" d="M68.31,123.39c-1.83,2.8-5.3,8.98-5.06,17.13.23,7.9,4,19.55,12.02,21.45,3.49.83,8.84.06,11.64-3.67,1.48-1.98,1.79-4.16,1.85-5.43"/>
      <path class="cls-16" d="M67.32,122.81c-2.19,3.36-3.82,7.13-4.62,11.07-.94,4.62-.69,9.35.43,13.91,1.01,4.1,2.72,8.23,5.58,11.4,1.35,1.49,2.98,2.69,4.84,3.45s3.95.94,5.93.72c2.27-.25,4.52-.97,6.36-2.36,2.11-1.61,3.51-3.94,3.93-6.56.08-.51.14-1.03.17-1.55.03-.6-.55-1.18-1.15-1.15-.65.03-1.12.51-1.15,1.15-.01.19-.02.39-.04.58-.01.1-.02.2-.03.3.03-.3-.02.11-.03.2-.09.54-.23,1.08-.41,1.6-.12.34-.14.39-.27.66-.15.31-.31.61-.49.89-.09.15-.19.3-.3.44-.04.06-.08.11-.12.17.12-.16,0-.01-.01.02-.18.21-.36.42-.56.62-.18.18-.37.36-.57.53-.05.04-.1.09-.16.13-.02.02-.19.15-.08.07.1-.08-.03.03-.05.03-.07.05-.14.1-.21.15-.43.3-.88.56-1.35.79-.12.06-.24.11-.37.17-.04.02-.2.08,0,0-.05.02-.09.04-.14.06-.26.1-.53.2-.8.28-.47.15-.96.27-1.45.36-.13.02-.26.05-.39.07-.06.01-.13.02-.19.03.01,0,.2-.02.06,0-.27.03-.54.06-.82.08-.47.03-.94.03-1.41.01-.23,0-.45-.03-.68-.05-.04,0-.41-.04-.24-.02.16.02,0,0-.02,0-.09-.01-.17-.03-.25-.04-.42-.07-.83-.17-1.24-.29-.22-.07-.43-.14-.65-.22-.04-.02-.33-.13-.18-.07.14.06,0,0-.02,0-.08-.04-.16-.07-.23-.11-.39-.18-.76-.39-1.12-.61-.19-.12-.38-.25-.57-.38-.08-.06-.16-.12-.24-.18-.13-.09.15.13.03.02-.05-.05-.11-.09-.17-.14-.35-.29-.68-.59-1-.91s-.64-.67-.93-1.02c-.07-.08-.13-.16-.2-.25-.06-.07-.21-.27-.07-.09-.16-.21-.31-.42-.46-.63-.56-.8-1.05-1.64-1.5-2.5-.23-.44-.44-.89-.65-1.35-.05-.1-.09-.21-.14-.31-.07-.16.07.17,0,0-.02-.06-.05-.12-.07-.18-.1-.24-.19-.48-.29-.73-.36-.95-.67-1.91-.94-2.88s-.49-1.93-.67-2.91c-.09-.48-.17-.95-.24-1.43,0-.06-.05-.36-.03-.21.02.15-.03-.21-.03-.25-.03-.24-.06-.48-.08-.72-.1-.99-.15-1.99-.15-2.99,0-.68.03-1.36.08-2.03.02-.32.05-.63.09-.95.05-.4.04-.4.11-.8.35-2.28.98-4.51,1.85-6.65.04-.11.09-.21.13-.32-.1.23.05-.1.07-.17.1-.23.2-.46.31-.68.19-.41.39-.82.6-1.23.36-.69.75-1.37,1.15-2.04.17-.27.34-.54.51-.8.33-.51.12-1.3-.41-1.58-.58-.3-1.23-.13-1.58.41h0Z"/>
    </g>
    <circle class="cls-18" cx="81.14" cy="135" r="9.46"/>
    <g>
      <path class="cls-4" d="M78.35,149.82c.44,1.6,1.34,4.1,3.33,6.52,3.32,4.06,9.67,7.91,15.74,6.14.84-.24,6.37-1.85,7.07-6.45.43-2.78-1.05-5.74-3.72-7.72"/>
      <path class="cls-16" d="M77.23,150.13c.93,3.38,2.76,6.45,5.33,8.84s5.95,4.37,9.52,4.92c1.89.29,3.81.24,5.66-.3.7-.2,1.38-.46,2.05-.76,2.37-1.03,4.51-2.74,5.46-5.2.66-1.7.59-3.67-.05-5.36-.76-2.03-2.13-3.66-3.85-4.95-.48-.36-1.31-.09-1.58.41-.32.61-.1,1.19.41,1.58,1.14.86,2.16,2.04,2.77,3.49-.08-.19,0,.03.03.08.03.08.06.17.09.25.06.17.11.34.15.51s.08.34.11.52c0,0,.05.33.03.16-.02-.13.02.22.02.26.03.35.02.69,0,1.04,0,0-.04.33-.01.16s-.03.14-.03.14c-.03.18-.08.37-.13.55-.04.15-.09.29-.14.43-.02.06-.04.11-.06.17.1-.27,0,0-.02.05-.13.29-.29.56-.47.83-.05.07-.31.42-.12.18-.09.11-.18.22-.27.32-.19.22-.4.42-.61.62-.1.09-.2.18-.31.27-.05.04-.1.09-.16.13-.21.17.15-.1.01,0-.23.15-.45.32-.68.47-.43.27-.88.52-1.34.74-.1.05-.2.09-.3.14-.05.02-.12.07-.18.08,0,0,.28-.11.11-.04-.19.08-.38.15-.58.22-.27.1-.54.19-.81.27-.14.04-.28.08-.42.12-.2.05-.4.1-.6.14-.1.02-.2.04-.3.06-.04,0-.42.07-.23.04-.83.11-1.68.12-2.52.04-.08,0-.16-.01-.24-.02,0,0-.39-.05-.17-.02-.2-.03-.39-.06-.59-.1-.41-.08-.82-.18-1.22-.29s-.76-.23-1.14-.37c-.09-.03-.19-.07-.28-.11.04.01-.33-.13-.19-.08-.06-.03-.36-.16-.52-.23-.75-.35-1.48-.76-2.18-1.21-.33-.21-.65-.44-.97-.67-.09-.07-.19-.14-.28-.21.04.03.14.11-.04-.03s-.36-.29-.53-.44c-1.4-1.19-2.6-2.53-3.55-4.08-.25-.41-.48-.82-.69-1.25-.1-.19-.19-.38-.28-.58-.05-.1-.09-.2-.14-.31-.14-.33.08.2-.05-.12-.27-.69-.51-1.38-.71-2.09-.16-.58-.83-1-1.42-.81s-.98.8-.81,1.42h0Z"/>
    </g>
    <g>
      <ellipse class="cls-4" cx="141.75" cy="57.66" rx="5.23" ry="8.69" transform="translate(63 188.86) rotate(-81.16)"/>
      <path class="cls-16" d="M149.22,58.68c-.02.13-.05.25-.08.38-.03.11-.16.42-.04.16-.05.12-.11.23-.17.34-.05.08-.34.46-.13.22-.18.21-.36.41-.57.59,0,0-.22.19-.08.07s-.08.06-.09.07c-.15.1-.3.2-.45.29-.13.08-.27.15-.41.22-.06.03-.11.06-.17.08-.03.02-.33.14-.08.04-.35.14-.7.26-1.06.36-.33.09-.67.16-1,.22-.09.02-.18.03-.28.04.21-.03-.03,0-.09,0-.21.02-.42.04-.63.05-1.76.1-3.24-.1-4.91-.65-.19-.06-.37-.13-.55-.2-.07-.03-.14-.06-.22-.08-.35-.14.19.09-.14-.06-.37-.17-.73-.35-1.08-.55-.3-.17-.58-.37-.87-.57-.03-.02-.17-.13,0,0-.08-.06-.15-.12-.23-.19-.12-.1-.24-.21-.36-.32-.22-.21-.42-.43-.61-.67.18.23-.08-.12-.12-.19-.09-.14-.17-.28-.25-.43-.04-.07-.07-.15-.1-.22.01.03.09.25.03.05-.04-.12-.09-.25-.12-.37,0-.04-.05-.36-.08-.38.06.03.02.27,0,0,0-.08,0-.15,0-.23,0-.06,0-.13,0-.19,0-.24.04.04-.01.04,0,0,.08-.36.08-.38.02-.09.18-.46.04-.16.07-.14.13-.28.21-.41.05-.08.29-.4.09-.15.09-.1.17-.21.27-.3s.2-.2.3-.29c.04-.04.09-.07.13-.11-.22.19.02-.02.08-.05.25-.17.51-.33.78-.47.13-.06.26-.13.39-.18-.25.11.05-.02.09-.03.09-.04.19-.07.28-.1.33-.11.67-.21,1.01-.28.18-.04.36-.08.53-.11.11-.02.22-.04.33-.05-.21.03.1,0,.14-.01.83-.09,1.68-.09,2.51-.02.48.04.63.06,1.08.14s.85.17,1.27.29c.44.12.87.27,1.29.43,0,0,.35.15.15.06.1.04.21.09.31.14.2.09.4.19.59.3.34.18.67.39.99.61.08.06.16.12.25.18-.2-.15.06.05.08.06.15.12.29.25.43.38s.26.26.38.4c.04.04.08.09.12.14.04.05.08.09.11.14-.09-.12-.1-.13-.02-.02.17.26.32.51.47.79.13.24-.08-.24,0,.02.02.07.05.15.08.22.05.15.08.3.11.45.04.22-.02-.07,0-.08-.01,0,.02.27.02.3,0,.1-.05.58,0,.22-.09.6.15,1.27.81,1.42.55.12,1.33-.17,1.42-.81.5-3.51-2.64-5.92-5.55-7.09-3.34-1.35-7.59-1.54-10.85.14-1.32.68-2.46,1.78-2.9,3.22s-.05,2.97.8,4.15c2.14,2.98,6.1,4.28,9.63,4.42,2,.08,4.08-.24,5.88-1.17,1.43-.74,2.73-2.03,3-3.67.1-.59-.16-1.27-.81-1.42-.56-.13-1.31.17-1.42.81Z"/>
    </g>
    <g>
      <ellipse class="cls-4" cx="53.17" cy="43.89" rx="5.23" ry="8.69" transform="translate(1.64 89.69) rotate(-81.16)"/>
      <path class="cls-16" d="M60.65,44.91c-.02.13-.05.25-.08.38-.03.11-.16.42-.04.16-.05.12-.11.23-.17.34-.05.08-.34.46-.13.22-.18.21-.36.41-.57.59,0,0-.22.19-.08.07s-.08.06-.09.07c-.15.1-.3.2-.45.29-.13.08-.27.15-.41.22-.06.03-.11.06-.17.08-.03.02-.33.14-.08.04-.35.14-.7.26-1.06.36-.33.09-.67.16-1,.22-.09.02-.18.03-.28.04.21-.03-.03,0-.09,0-.21.02-.42.04-.63.05-1.76.1-3.24-.1-4.91-.65-.19-.06-.37-.13-.55-.2-.07-.03-.14-.06-.22-.08-.35-.14.19.09-.14-.06-.37-.17-.73-.35-1.08-.55-.3-.17-.58-.37-.87-.57-.03-.02-.17-.13,0,0-.08-.06-.15-.12-.23-.19-.12-.1-.24-.21-.36-.32-.22-.21-.42-.43-.61-.67.18.23-.08-.12-.12-.19-.09-.14-.17-.28-.25-.43-.04-.07-.07-.15-.1-.22.01.03.09.25.03.05-.04-.12-.09-.25-.12-.37,0-.04-.05-.36-.08-.38.06.03.02.27,0,0,0-.08,0-.15,0-.23,0-.06,0-.13,0-.19,0-.24.04.04-.01.04,0,0,.08-.36.08-.38.02-.09.18-.46.04-.16.07-.14.13-.28.21-.41.05-.08.29-.4.09-.15.09-.1.17-.21.27-.3s.2-.2.3-.29c.04-.04.09-.07.13-.11-.22.19.02-.02.08-.05.25-.17.51-.33.78-.47.13-.06.26-.13.39-.18-.25.11.05-.02.09-.03.09-.04.19-.07.28-.1.33-.11.67-.21,1.01-.28.18-.04.36-.08.53-.11.11-.02.22-.04.33-.05-.21.03.1,0,.14-.01.83-.09,1.68-.09,2.51-.02.48.04.63.06,1.08.14s.85.17,1.27.29c.44.12.87.27,1.29.43,0,0,.35.15.15.06.1.04.21.09.31.14.2.09.4.19.59.3.34.18.67.39.99.61.08.06.16.12.25.18-.2-.15.06.05.08.06.15.12.29.25.43.38s.26.26.38.4c.04.04.08.09.12.14.04.05.08.09.11.14-.09-.12-.1-.13-.02-.02.17.26.32.51.47.79.13.24-.08-.24,0,.02.02.07.05.15.08.22.05.15.08.3.11.45.04.22-.02-.07,0-.08-.01,0,.02.27.02.3,0,.1-.05.58,0,.22-.09.6.15,1.27.81,1.42.55.12,1.33-.17,1.42-.81.5-3.51-2.64-5.92-5.55-7.09-3.34-1.35-7.59-1.54-10.85.14-1.32.68-2.46,1.78-2.9,3.22s-.05,2.97.8,4.15c2.14,2.98,6.1,4.28,9.63,4.42,2,.08,4.08-.24,5.88-1.17,1.43-.74,2.73-2.03,3-3.67.1-.59-.16-1.27-.81-1.42-.56-.13-1.31.17-1.42.81Z"/>
    </g>
    <g>
      <path class="cls-18" d="M119.39,41.71c-.21-1.19-3.45-20.99,5.74-28.24,1.22-.96,3.9-3.08,7.68-3.01,3.5.07,6.5,1.99,8.2,4.14,3.2,4.03,3.11,10.44-.46,15.73,2.93.73,4.85,3.01,4.78,5.27-.06,2.06-1.76,3.38-2.05,3.6-1.83,1.37-4.48,1.43-6.79.15-1.39,1.97-2.78,3.94-4.18,5.91"/>
      <path class="cls-16" d="M120.5,41.4c-.04-.22-.07-.44-.11-.66-.03-.2-.05-.4-.08-.6,0-.03.05.35.03.2,0-.03,0-.05-.01-.08,0-.06-.02-.12-.02-.18-.02-.14-.03-.27-.05-.41-.17-1.39-.29-2.79-.36-4.2-.09-1.84-.11-3.69-.01-5.54.05-1,.13-2,.25-2.99.02-.13.03-.25.05-.38,0-.07.04-.28,0,.01,0-.06.02-.11.02-.17.04-.27.08-.53.12-.8.08-.5.18-1,.28-1.5.21-1,.48-1.99.8-2.96.16-.47.33-.94.52-1.4.08-.19,0,.02-.02.05.02-.05.04-.1.07-.15.05-.13.11-.25.17-.37.1-.22.21-.44.32-.66.22-.43.46-.85.72-1.26.13-.2.26-.4.4-.6.07-.1.14-.19.21-.29.03-.04.06-.08.1-.13.06-.08-.15.19.01-.02.61-.75,1.28-1.44,2.04-2.05.06-.05.12-.09.17-.14.03-.02.06-.05.09-.07.17-.14-.18.14-.06.04.18-.13.36-.27.54-.4.42-.3.85-.58,1.3-.83.25-.14.51-.28.77-.4.12-.06.25-.11.37-.17-.19.08-.03.01.01,0,.1-.04.2-.08.3-.11.63-.23,1.29-.4,1.95-.51.37-.06-.12.01.11-.01.1-.01.2-.02.3-.03.16-.01.33-.02.49-.03.4-.01.8,0,1.2.03.1,0,.21.02.31.03-.05,0-.18-.03.06,0,.16.03.32.05.48.09.37.08.74.18,1.1.29.17.06.34.11.5.18.07.03.15.06.22.09-.15-.06.03.01.05.02.35.16.7.33,1.03.52.28.16.55.33.81.51.14.1.27.19.41.29-.04-.03-.15-.12.03.02.08.07.17.14.25.21.48.41.92.85,1.32,1.34.04.05.08.1.13.16-.13-.17,0,.01.04.06.09.13.18.25.27.38.17.26.33.53.48.8.07.14.15.28.21.42.03.06.2.45.12.25.12.29.23.59.33.89s.18.61.25.93c.04.16.07.32.1.47.01.07.03.14.04.21,0,.04.05.35.04.22-.02-.17.02.18.02.17,0,.07.02.15.02.22.01.15.02.29.03.44.02.37.03.74.02,1.11,0,.3-.02.6-.05.9,0,.09-.02.19-.03.28,0,.05-.04.3,0,.09-.03.19-.06.38-.09.57-.12.7-.3,1.39-.52,2.06-.25.75-.43,1.2-.76,1.87s-.72,1.34-1.15,1.97,0,1.52.69,1.7c.33.08.64.18.96.31.18.07-.13-.06.04.02.07.03.14.06.21.1.17.08.33.17.49.26.13.07.25.15.37.23.06.04.12.08.18.12.17.12-.2-.17.06.05.22.19.44.39.64.6.05.05.32.38.17.19.08.1.15.21.23.32s.14.22.2.33c.03.06.06.11.09.17.02.04.14.32.04.07.09.23.17.46.22.71.02.09.05.41.03.14.01.15.02.3.02.45,0,.14,0,.29-.03.43.03-.21-.04.15-.06.22-.04.15-.09.29-.14.44-.05.16.09-.15,0,0-.04.07-.07.15-.11.22-.07.12-.14.24-.21.36-.02.04-.23.33-.14.21.08-.12-.14.16-.17.2-.07.08-.15.16-.23.24-.12.12-.24.24-.37.35-.04.04-.09.07-.13.11-.1.08.35-.26.03-.03-.24.17-.5.32-.77.45-.2.1-.08.04-.03.02-.07.03-.14.05-.21.08-.18.06-.36.12-.54.16s-.37.08-.56.11c.05,0,.2-.02-.03,0-.1,0-.19.01-.29.02-.19,0-.39,0-.58,0-.08,0-.16,0-.24-.02-.06,0-.27-.03-.11,0-.84-.12-1.53-.37-2.18-.73-.58-.32-1.21-.11-1.58.41-1.39,1.97-2.78,3.94-4.18,5.91-.35.49-.1,1.31.41,1.58.59.31,1.21.11,1.58-.41,1.39-1.97,2.78-3.94,4.18-5.91l-1.58.41c2.74,1.48,6.22,1.51,8.6-.68,1.04-.95,1.76-2.22,1.94-3.62s-.28-2.79-1.1-3.89c-1.1-1.48-2.71-2.48-4.49-2.94l.69,1.7c3.26-4.87,4.28-11.9.53-16.81-1.83-2.39-4.6-4.16-7.59-4.64s-5.9.25-8.41,1.89c-1.75,1.14-3.27,2.53-4.47,4.24s-2.06,3.72-2.66,5.74c-1.2,4.03-1.5,8.33-1.4,12.52.06,2.64.28,5.29.7,7.89.01.09.03.17.04.26.1.6.87.99,1.42.81.64-.21.92-.78.81-1.42h0Z"/>
    </g>
    <g>
      <path class="cls-18" d="M78.86,35.41c.56-1.07,9.66-18.95,3.11-28.65-.87-1.28-2.78-4.12-6.4-5.2-3.36-1-6.8-.07-9.07,1.46-4.27,2.87-6.13,9.01-4.34,15.13-3.02-.2-5.54,1.39-6.16,3.57-.57,1.98.65,3.75.86,4.05,1.33,1.86,3.83,2.72,6.43,2.21.73,2.3,1.46,4.6,2.19,6.9"/>
      <path class="cls-16" d="M79.86,35.99c1.11-2.13,2.03-4.38,2.85-6.63,1.47-4.05,2.57-8.33,2.75-12.65.09-2.2-.08-4.46-.69-6.58-.58-2-1.58-3.76-2.85-5.39-1.56-2-3.65-3.58-6.11-4.3-3.1-.9-6.56-.37-9.34,1.24-5.03,2.93-6.76,9.13-5.92,14.6.11.74.28,1.47.49,2.18l1.11-1.46c-2.96-.17-6.22,1.27-7.22,4.24-.92,2.74.78,5.88,3.24,7.16,1.68.88,3.57,1.04,5.42.69l-1.42-.81c.73,2.3,1.46,4.6,2.19,6.9.18.57.81,1,1.42.81.58-.19,1-.8.81-1.42-.73-2.3-1.46-4.6-2.19-6.9-.2-.63-.79-.93-1.42-.81-.03,0-.48.08-.29.05-.16.02-.31.03-.47.04-.35.02-.7.01-1.04-.02-.08,0-.15-.01-.23-.02.2.03,0,0-.03,0-.15-.03-.29-.06-.44-.09s-.28-.07-.42-.12c-.07-.02-.14-.04-.21-.07-.05-.02-.31-.12-.13-.04-.26-.11-.51-.25-.76-.4-.12-.07-.24-.15-.35-.24.16.11.01.01-.02-.01-.08-.07-.16-.14-.24-.21-.1-.09-.2-.19-.3-.3-.03-.03-.29-.35-.15-.17-.09-.12-.17-.24-.24-.36-.1-.16-.19-.32-.27-.49-.04-.07-.16-.36-.06-.13-.06-.15-.12-.31-.16-.46-.04-.13-.08-.27-.11-.41-.02-.07-.03-.14-.04-.22,0,.05.02.21,0-.03-.01-.16-.02-.31-.02-.47,0-.08,0-.16.01-.24.03-.34-.05.15.03-.19.03-.14.07-.29.12-.42.02-.06.04-.11.06-.17-.01.04-.1.22,0,.03.12-.23.27-.44.39-.67.08-.15-.17.19.02-.02.04-.05.08-.1.12-.14.08-.09.17-.19.26-.27s.19-.17.29-.26c.04-.03.17-.12,0,0,.07-.05.13-.1.2-.14.27-.18.55-.33.84-.47.2-.09.06-.02.01,0,.1-.04.2-.08.3-.11.15-.05.31-.1.47-.14s.32-.08.48-.11c.07-.01.15-.03.22-.04-.23.04.1,0,.14-.01.39-.04.78-.04,1.18-.01.75.04,1.31-.77,1.11-1.46s-.36-1.41-.48-2.12c-.01-.08-.03-.16-.04-.24-.03-.23.03.27-.01-.11-.02-.16-.04-.32-.05-.48-.03-.36-.05-.71-.06-1.07-.01-.66.01-1.32.08-1.97,0-.08.02-.15.03-.23-.02.2,0,0,0-.03.03-.17.05-.33.08-.5.06-.33.13-.66.22-.98.16-.62.36-1.22.6-1.81-.09.2.08-.17.1-.21.06-.13.12-.26.19-.38.14-.28.3-.56.46-.83.15-.25.32-.5.49-.74.04-.06.08-.11.12-.17.11-.14-.1.13,0-.01s.22-.27.33-.39c.4-.45.83-.86,1.29-1.24.03-.03.17-.13,0,0,.05-.04.11-.08.16-.12.11-.08.23-.16.34-.24.28-.18.57-.35.87-.51.14-.07.27-.14.41-.21.07-.03.14-.07.21-.1.34-.16-.1.04.1-.05.34-.14.68-.26,1.02-.36s.68-.19,1.02-.26c.16-.03.33-.06.5-.09.02,0,.22-.03.07-.01.13-.02.25-.03.38-.04.73-.06,1.49-.06,2.22.04-.13-.02.09.02.09.02.09.02.18.03.27.05.18.03.36.07.53.12.37.09.73.21,1.08.34-.03-.01.33.13.19.07-.11-.05.1.05.12.06.14.06.27.13.41.2.29.15.57.31.85.49.25.16.49.33.72.51-.18-.14.1.08.16.13.12.1.25.21.36.32.38.34.73.71,1.06,1.1.15.17.29.35.43.53.11.13-.17-.23-.02-.03.03.04.06.08.09.12.06.08.12.17.18.25.22.3.43.61.63.92.26.41.5.84.72,1.28.06.12.11.23.16.35.02.05.05.11.07.16.07.15-.07-.19-.02-.04.09.24.19.48.27.73.33.95.55,1.93.69,2.93.03.21,0,0,0-.04,0,.06.01.12.02.18.02.13.03.27.04.4.03.27.05.54.06.8.03.53.04,1.06.04,1.58-.01,1.06-.09,2.11-.21,3.16,0,.04-.05.41-.03.26.03-.19-.02.11-.02.12,0,.06-.02.12-.03.18-.04.27-.08.55-.13.82-.09.51-.19,1.02-.29,1.53-.42,1.96-.97,3.89-1.62,5.78-.29.84-.6,1.68-.92,2.51-.14.36-.29.72-.43,1.07-.04.09-.07.18-.11.27-.06.13.1-.24.04-.1-.02.04-.03.08-.05.11-.07.16-.14.33-.21.49-.37.85-.76,1.69-1.18,2.52-.04.07-.08.15-.11.22-.28.54-.16,1.28.41,1.58.53.28,1.28.16,1.58-.41h0Z"/>
    </g>
    <g>
      <path class="cls-4" d="M100.67,120.49c.61.09,1.51.22,2.59.33,3.67.37,12.09,1.12,20.88-2.2,2.77-1.04,9.49-3.58,14.75-10.12,6.11-7.6,6.59-16.05,7.03-23.71,0,0,.72-11.69-3.53-23.04-1.59-4.24-3.27-7.13-3.77-7.96-3.61-6.03-7.64-9.5-10.28-11.74-10.14-8.58-24.37-13.79-37.71-13.45-7.07.18-14.13,1.61-20.74,4.36-3.2,1.33-8.09,3.41-13.36,8.06-.73.64-3.21,2.88-6.01,6.44-7.47,9.5-10.36,20.89-10.36,20.89-1.92,7.44-3.96,15.32-.68,24.22,3,8.16,8.84,12.79,11.16,14.63,7.35,5.82,15.57,7.66,19.23,8.43,1.07.23,1.96.38,2.57.48"/>
      <path class="cls-16" d="M100.36,121.6c4.41.66,8.92.92,13.37.51,4.9-.45,9.63-1.74,14.1-3.77,4.39-2,8.41-4.89,11.51-8.6,3.68-4.4,5.86-9.69,6.8-15.32,1.33-7.94,1.28-16.14-.2-24.06-1.04-5.56-2.9-10.97-5.63-15.94-2.25-4.11-5.21-7.82-8.65-11-7.69-7.12-17.13-12.17-27.35-14.54-11.61-2.69-23.94-1.55-34.94,3.03-4.6,1.91-8.89,4.27-12.73,7.47s-6.96,6.9-9.63,10.96-4.83,8.56-6.52,13.16c-.92,2.51-1.62,5.04-2.25,7.64-1.38,5.66-2.23,11.45-1.14,17.23,1.01,5.38,3.62,10.37,7.2,14.49,5.81,6.69,13.86,11.07,22.39,13.22,1.79.45,3.6.84,5.42,1.13.62.1,1.24-.16,1.42-.81.15-.55-.19-1.32-.81-1.42-3.9-.63-7.78-1.61-11.45-3.05-4.2-1.64-8.07-3.99-11.49-6.92-3.14-2.68-5.82-5.84-7.74-9.5-2.69-5.11-3.56-10.8-2.94-16.51.41-3.77,1.33-7.56,2.39-11.2.96-3.28,2.21-6.44,3.69-9.49,4.35-9.01,10.9-17,19.78-21.82.95-.52,1.93-1,2.92-1.45.41-.19.83-.37,1.25-.55.11-.05.21-.09.32-.14.34-.15-.2.08.14-.06.2-.08.4-.17.59-.25,2.83-1.17,5.76-2.12,8.74-2.82,5.61-1.32,11.43-1.82,17.18-1.34,10.55.88,20.94,4.95,29.38,11.32,3.44,2.6,6.68,5.6,9.33,9.01,2.8,3.61,4.95,7.72,6.53,12,2.82,7.65,3.82,15.99,3.32,24.12-.3,5.04-.85,10.1-2.77,14.82s-5.6,9.21-9.98,12.22c-1.69,1.16-3.48,2.15-5.35,3-.73.33-1.06.46-1.89.79-.99.39-2,.75-3.01,1.06-4.93,1.52-10.11,1.96-15.25,1.67-1.82-.1-3.65-.27-5.44-.54-.62-.09-1.24.15-1.42.81-.15.55.19,1.33.81,1.42h0Z"/>
    </g>
    <g class="cls-13">
      <path class="cls-16" d="M76.79,115.28c.16-.36,2.01.24,8.84,2.18,8.29,2.35,9.1,2.48,9.07,2.72-.08.66-6.52,1.24-12.62-1.37-2.81-1.2-5.49-3.06-5.29-3.52Z"/>
      <path class="cls-16" d="M91.56,121.05c-2.55,0-6.19-.5-9.61-1.96-2.3-.99-5.12-2.71-5.45-3.55-.07-.17-.04-.31,0-.39h0c.25-.55.73-.42,6.61,1.26.77.22,1.64.47,2.6.74,2.34.66,4.08,1.15,5.37,1.51q3.97,1.11,3.92,1.55c-.02.16-.12.29-.3.39-.45.26-1.6.44-3.14.44ZM77.21,115.5c.53.59,2.56,1.97,4.98,3.01,5.15,2.2,10.51,2.08,11.91,1.67-.49-.16-1.51-.45-3.19-.92-1.3-.36-3.04-.85-5.38-1.51-.96-.27-1.82-.52-2.6-.74-3.12-.89-5.04-1.44-5.73-1.52Z"/>
    </g>
    <path class="cls-15" d="M76.79,58.2l3.6.56c.22.03.42.04.62-.08.17-.1.33-.29.37-.48.09-.39-.12-.93-.57-1-1.2-.19-2.4-.37-3.6-.56-.22-.03-.42-.04-.62.08-.17.1-.33.29-.37.48-.09.39.12.93.57,1h0Z"/>
    <path class="cls-15" d="M110.94,63.51l3.6.56c.22.03.42.04.62-.08.17-.1.33-.29.37-.48.09-.39-.12-.93-.57-1l-3.6-.56c-.22-.03-.42-.04-.62.08-.17.1-.33.29-.37.48-.09.39.12.93.57,1h0Z"/>
    <circle class="cls-10" cx="120.72" cy="95.77" r="11.35"/>
    <circle class="cls-10" cx="58.03" cy="86.02" r="11.35"/>
    <ellipse class="cls-2" cx="112.35" cy="81.65" rx="9.59" ry="8.3" transform="translate(14.41 180.12) rotate(-81.16)"/>
    <ellipse class="cls-2" cx="71.41" cy="75.29" rx="9.59" ry="8.3" transform="translate(-13.95 134.28) rotate(-81.16)"/>
    <ellipse class="cls-15" cx="72.48" cy="75.44" rx="6.55" ry="5.67" transform="translate(-13.2 135.47) rotate(-81.16)"/>
    <ellipse class="cls-2" cx="77.24" cy="73.26" rx=".88" ry="1.5" transform="translate(-7.01 138.33) rotate(-81.16)"/>
    <g>
      <path class="cls-21" d="M103.8,121.3c-2.44-.42-4.88-.83-7.32-1.25-1.49-.16-5.9-.43-9.98,2.35-4.48,3.05-7.67,9.18-5.96,13.35,1.31,3.2,4.16,1.94,8.59,6.48,4.3,4.4,5.28,9.28,8.14,9.19.43-.01,1.6-.16,2.55-1.04.98-.9,1.18-2.08,1.24-2.51,2.65-2.15,3.94-4.36,4.6-5.82,2.99-6.56.53-13.93-.88-18.15-.36-1.09-.71-1.98-.97-2.59Z"/>
      <path class="cls-16" d="M103.97,120.67c-1.56-.27-3.13-.53-4.69-.8-1.15-.2-2.29-.45-3.45-.53-1.99-.13-4.03.09-5.93.69-4.6,1.46-8.39,5.32-9.91,9.89-.64,1.9-.85,4.1-.08,6,.3.73.71,1.4,1.32,1.91.56.46,1.19.79,1.84,1.09.8.37,1.6.73,2.37,1.18,1.05.62,2,1.37,2.87,2.22,1.84,1.79,3.22,3.91,4.58,6.05.86,1.35,1.87,3.13,3.53,3.58.8.22,1.68.07,2.44-.24,1.21-.49,2.11-1.43,2.57-2.65.15-.39.23-.79.28-1.21l-.19.46c3.02-2.48,5.18-5.83,5.89-9.7s.07-8.08-1.06-11.94c-.55-1.88-1.16-3.75-1.91-5.55-.13-.32-.43-.55-.79-.45-.3.08-.59.47-.45.79,1.13,2.74,2.06,5.64,2.67,8.54.7,3.34.87,6.85-.16,10.14-.41,1.32-1.02,2.56-1.79,3.71-.43.64-.91,1.23-1.43,1.8-.31.33-.63.66-.96.96-.37.34-.94.67-1.08,1.16-.08.26.02-.13,0,.06-.01.06-.02.12-.03.18-.02.12-.05.25-.09.37-.1.33-.23.64-.42.93-.41.65-1.06,1.1-1.79,1.31-.88.26-1.54.16-2.18-.4-.87-.77-1.47-1.82-2.09-2.8-.88-1.39-1.77-2.77-2.81-4.05-1.16-1.44-2.49-2.76-4.02-3.81-1.03-.71-2.14-1.24-3.27-1.76-.42-.19-.84-.39-1.23-.64-.29-.19-.64-.49-.83-.73-.68-.87-.93-2.04-.94-3.14-.02-2.83,1.44-5.61,3.23-7.71,2.15-2.52,5-4.21,8.27-4.77,1.16-.2,2.35-.25,3.53-.18.59.04,1.16.14,1.74.24,1.03.18,2.05.35,3.08.53s2.05.35,3.08.53c.34.06.7-.09.79-.45.09-.31-.11-.74-.45-.79Z"/>
    </g>
    <g>
      <path class="cls-4" d="M99.93,120.92c8.64-8.24,18.25-12.17,24.5-9.33.82.37,3.57,1.62,5.11,4.54,2.2,4.16.47,8.91-.4,10.61-3.24,6.35-14.36,9.07-27.41,6.06"/>
      <path class="cls-16" d="M100.74,121.73c2.26-2.15,4.53-4,7.14-5.66,1.16-.74,2.36-1.42,3.6-2.03.29-.14.57-.27.86-.4.13-.06.27-.12.4-.18.21-.09.07-.03.03-.01.1-.04.2-.08.3-.12.59-.24,1.18-.45,1.79-.64.54-.17,1.09-.32,1.65-.45.28-.07.57-.13.85-.18.12-.02.25-.04.38-.06.09-.01.54-.07.25-.04,1.03-.12,2.07-.17,3.11-.07.11.01.22.03.34.04-.33-.03.07.01.15.02.25.04.49.09.73.15.46.11.92.25,1.36.42.05.02.1.04.15.06-.26-.1-.11-.05-.05-.02.06.03.13.06.19.09.13.06.26.12.39.18.36.18.7.37,1.04.58.2.13.4.26.59.4.05.04.38.28.17.12.13.1.25.2.37.3.45.39.86.81,1.24,1.27.23.27-.07-.09.06.08.05.06.09.12.13.19.1.14.2.29.29.44.2.32.37.65.53.99.06.13.06.14.13.32.06.16.11.32.16.48.12.37.21.76.27,1.14.01.08.03.16.04.24.03.2-.02-.15,0,.05.02.18.04.36.05.54.02.35.03.7.02,1.05,0,.32-.03.64-.07.96,0,.07-.02.15-.03.22-.02.19.03-.17,0,.02-.03.18-.06.35-.09.53-.11.57-.25,1.13-.43,1.69-.07.24-.16.47-.24.7-.04.11-.09.22-.13.34,0,.02-.06.14-.06.14,0,0,.12-.27,0-.01-.15.34-.32.68-.51,1.01-.11.19-.23.38-.35.56-.06.08-.11.16-.17.24-.03.04-.06.08-.09.12.18-.26.04-.05,0,0-.27.34-.56.65-.87.95-.17.16-.34.32-.52.47-.08.07-.16.14-.24.2-.04.03-.08.07-.12.1-.22.17.2-.15-.02.02-.8.58-1.64,1.09-2.53,1.51-.11.05-.21.1-.32.15-.07.03-.14.06-.21.09-.03.02-.21.09-.07.03s-.04.02-.07.03c-.07.03-.14.06-.21.09-.13.05-.26.1-.39.15-.52.19-1.05.37-1.59.52-1.15.33-2.32.57-3.5.74.01,0-.34.05-.17.02.14-.02-.08.01-.11.01-.16.02-.32.04-.49.06-.33.04-.66.07-.99.09-.66.05-1.33.09-1.99.1-1.41.03-2.81-.01-4.21-.13-1.55-.13-2.77-.29-4.3-.57-.78-.14-1.55-.3-2.32-.48-.59-.13-1.28.18-1.42.81-.13.59.18,1.28.81,1.42,5.81,1.33,11.99,1.81,17.85.51,4.15-.92,8.58-2.96,10.73-6.85,1.13-2.04,1.74-4.48,1.76-6.8.03-3.11-1.21-6.11-3.57-8.16-1.46-1.27-3.26-2.26-5.14-2.73-2.25-.56-4.61-.44-6.87.05-2.63.57-5.16,1.66-7.51,2.96-2.77,1.54-5.34,3.44-7.73,5.52-.62.54-1.24,1.1-1.84,1.67-.45.43-.43,1.2,0,1.63s1.18.43,1.63,0h0Z"/>
    </g>
    <g>
      <path class="cls-21" d="M72.46,116.29c.22.4.52,1.01.73,1.78.93,3.44-1.01,5.65-2.07,9.21-2,6.74,1.46,10.41-1.62,14.03-.13.15-.88.8-2.4,2.1-4.29,3.69-4.99,3.93-5.53,3.78-.32-.09-1.44-.55-1.88-4.69-1.06-10.01,4.84-19.35,4.84-19.35,1.15-1.82,2.99-4.37,5.79-7.03.72.06,1.43.11,2.15.17Z"/>
      <path class="cls-16" d="M71.9,116.62c.69,1.26,1.04,2.73.82,4.17s-.85,2.73-1.39,4.05c-.64,1.56-1.15,3.16-1.37,4.84-.18,1.36-.18,2.72-.06,4.08.17,1.99.72,4.26-.17,6.07-.38.76-.89,1.25-1.51,1.8-1.17,1.02-2.35,2.04-3.55,3.02-.7.58-1.39,1.15-2.17,1.63-.1.06-.21.13-.31.18-.05.03-.1.05-.15.07-.14.08.14-.03,0,0-.07.02-.16.04-.22.07-.11.04.13.01.08,0-.02,0-.08,0-.1,0-.17-.02.17.07.02,0-.04-.02-.1-.04-.14-.04-.03,0,.16.1.06.02-.02-.02-.06-.03-.09-.05-.06-.03-.15-.14,0,.01-.04-.04-.08-.07-.11-.1-.04-.04-.08-.09-.12-.13-.11-.12.04.07-.04-.05-.09-.14-.18-.29-.26-.44-.17-.35-.33-.86-.44-1.34-.72-3.01-.55-6.27,0-9.29.48-2.61,1.29-5.17,2.34-7.6.58-1.34,1.22-2.66,1.97-3.91,1.11-1.85,2.46-3.57,3.92-5.16.6-.66,1.23-1.3,1.88-1.91l-.46.19c.72.06,1.43.11,2.15.17.83.06.83-1.23,0-1.29-.48-.04-.95-.07-1.43-.11-.23-.02-.48-.06-.72-.06-.34.01-.55.27-.78.5-.66.64-1.3,1.31-1.92,2-1.06,1.19-2.04,2.45-2.94,3.76-.71,1.03-1.32,2.1-1.88,3.22-2.58,5.17-4.26,11.09-3.81,16.91.11,1.46.3,2.98.89,4.33.25.57.6,1.16,1.16,1.47.89.49,1.79-.06,2.53-.57,1.03-.71,1.99-1.52,2.94-2.33,1.09-.92,2.19-1.83,3.24-2.79,1.65-1.51,1.86-3.82,1.67-5.91-.11-1.27-.29-2.53-.31-3.81-.03-1.63.17-3.24.64-4.8s1.23-3.08,1.78-4.65.72-3.08.35-4.66c-.18-.76-.48-1.5-.85-2.19-.4-.73-1.52-.08-1.12.65Z"/>
    </g>
    <path class="cls-2" d="M99.52,120.79c2.59-2.5,6.1-5.35,10.64-7.82,1.99-1.08,3.9-1.95,5.68-2.64-.75,1.01-3.84,5.39-3.13,11.42.92,7.83,7.46,11.7,8.19,12.12-2.3.35-5.03.59-8.08.53-4.61-.1-8.53-.87-11.53-1.7-.52-.41-2.68-2.19-3.24-5.38-.61-3.47,1.13-6.05,1.47-6.53Z"/>
    <path class="cls-21" d="M113.91,112.6c-.66,1.62-1.33,3.88-1.36,6.61-.07,7.61,4.9,12.8,6.19,14.07,1.21-.37,2.41-.74,3.62-1.11-1.39-1.24-3.95-3.85-5.42-8-2.15-6.08-.54-11.37.05-13.03-1.03.49-2.05.98-3.08,1.48Z"/>
    <path class="cls-16" d="M100.74,121.73c2.26-2.15,4.53-4,7.14-5.66,1.16-.74,2.36-1.42,3.6-2.03.29-.14.57-.27.86-.4.13-.06.27-.12.4-.18.21-.09.07-.03.03-.01.1-.04.2-.08.3-.12.59-.24,1.18-.45,1.79-.64.54-.17,1.09-.32,1.65-.45.28-.07.57-.13.85-.18.12-.02.25-.04.38-.06.09-.01.54-.07.25-.04,1.03-.12,2.07-.17,3.11-.07.11.01.22.03.34.04-.33-.03.07.01.15.02.25.04.49.09.73.15.46.11.92.25,1.36.42.05.02.1.04.15.06-.26-.1-.11-.05-.05-.02.06.03.13.06.19.09.13.06.26.12.39.18.36.18.7.37,1.04.58.2.13.4.26.59.4.05.04.38.28.17.12.13.1.25.2.37.3.45.39.86.81,1.24,1.27.23.27-.07-.09.06.08.05.06.09.12.13.19.1.14.2.29.29.44.2.32.37.65.53.99.06.13.06.14.13.32.06.16.11.32.16.48.12.37.21.76.27,1.14.01.08.03.16.04.24.03.2-.02-.15,0,.05.02.18.04.36.05.54.02.35.03.7.02,1.05,0,.32-.03.64-.07.96,0,.07-.02.15-.03.22-.02.19.03-.17,0,.02-.03.18-.06.35-.09.53-.11.57-.25,1.13-.43,1.69-.07.24-.16.47-.24.7-.04.11-.09.22-.13.34,0,.02-.06.14-.06.14,0,0,.12-.27,0-.01-.15.34-.32.68-.51,1.01-.11.19-.23.38-.35.56-.06.08-.11.16-.17.24-.03.04-.06.08-.09.12.18-.26.04-.05,0,0-.27.34-.56.65-.87.95-.17.16-.34.32-.52.47-.08.07-.16.14-.24.2-.04.03-.08.07-.12.1-.22.17.2-.15-.02.02-.8.58-1.64,1.09-2.53,1.51-.11.05-.21.1-.32.15-.07.03-.14.06-.21.09-.03.02-.21.09-.07.03s-.04.02-.07.03c-.07.03-.14.06-.21.09-.13.05-.26.1-.39.15-.52.19-1.05.37-1.59.52-1.15.33-2.32.57-3.5.74.01,0-.34.05-.17.02.14-.02-.08.01-.11.01-.16.02-.32.04-.49.06-.33.04-.66.07-.99.09-.66.05-1.33.09-1.99.1-1.41.03-2.81-.01-4.21-.13-1.55-.13-2.77-.29-4.3-.57-.78-.14-1.55-.3-2.32-.48-.59-.13-1.28.18-1.42.81-.13.59.18,1.28.81,1.42,5.81,1.33,11.99,1.81,17.85.51,4.15-.92,8.58-2.96,10.73-6.85,1.13-2.04,1.74-4.48,1.76-6.8.03-3.11-1.21-6.11-3.57-8.16-1.46-1.27-3.26-2.26-5.14-2.73-2.25-.56-4.61-.44-6.87.05-2.63.57-5.16,1.66-7.51,2.96-2.77,1.54-5.34,3.44-7.73,5.52-.62.54-1.24,1.1-1.84,1.67-.45.43-.43,1.2,0,1.63s1.18.43,1.63,0h0Z"/>
    <g>
      <path class="cls-4" d="M68.99,116.62c-5.28-10.7-12.95-17.7-19.8-17.18-.89.07-3.91.3-6.36,2.51-3.49,3.15-3.5,8.21-3.27,10.1.86,7.08,10.37,13.45,23.65,15.12"/>
      <path class="cls-16" d="M69.98,116.04c-2.7-5.45-6.3-10.73-11.21-14.42-1.85-1.39-3.96-2.53-6.23-3.05-2-.46-4.1-.39-6.08.15-2.95.81-5.46,2.79-6.79,5.56-1.02,2.13-1.45,4.53-1.35,6.89.19,4.41,3,7.92,6.4,10.48,2.14,1.61,4.54,2.83,7.02,3.83,2.84,1.14,5.82,1.93,8.83,2.45.87.15,1.75.27,2.63.39.6.08,1.18-.59,1.15-1.15-.03-.69-.51-1.07-1.15-1.15-.29-.04-.6-.08-.99-.14s-.81-.13-1.21-.2c-.77-.13-1.53-.29-2.29-.46-1.44-.33-2.87-.72-4.27-1.19-.65-.22-1.29-.45-1.92-.7-.15-.06-.31-.12-.46-.19-.05-.02-.27-.11-.08-.03-.07-.03-.13-.06-.2-.09-.31-.14-.63-.28-.94-.42-1.13-.53-2.23-1.12-3.29-1.79-.51-.32-1.02-.67-1.5-1.03-.1-.07-.2-.15-.3-.22.22.17-.12-.1-.16-.13-.22-.18-.44-.36-.66-.55-.79-.69-1.51-1.45-2.17-2.26-.13-.16.01.02.03.04-.03-.04-.06-.09-.1-.13-.08-.11-.16-.21-.23-.32-.13-.19-.26-.39-.39-.59-.25-.41-.48-.83-.68-1.26-.04-.09-.09-.18-.12-.27.11.33,0-.02-.04-.1-.08-.21-.16-.43-.22-.65-.13-.42-.22-.85-.3-1.28-.05-.28.02.24,0-.05,0-.07-.01-.13-.02-.2-.02-.19-.03-.38-.04-.57-.02-.42-.02-.85,0-1.27,0-.24.03-.49.05-.73.01-.13.02-.25.04-.38,0-.07.02-.14.03-.22-.02.2-.01.09,0-.05.09-.56.2-1.11.36-1.65.08-.28.17-.56.28-.84.05-.13.1-.25.15-.37-.09.21,0,0,.02-.05.04-.09.09-.19.13-.28.28-.58.62-1.14,1.01-1.65-.12.16.12-.14.16-.19.12-.14.24-.27.37-.41.25-.26.52-.5.8-.72-.11.09.09-.07.11-.08.07-.05.13-.1.2-.14.15-.1.3-.2.45-.29.31-.19.63-.35.96-.5.05-.02.27-.12.07-.04.07-.03.13-.05.2-.08.14-.06.29-.11.44-.16.29-.1.58-.18.88-.26.25-.06.5-.11.75-.16.1-.02.2-.03.3-.05.33-.05-.23.02.13-.02.82-.1,1.64-.12,2.45-.03.03,0,.28,0,.08,0-.17,0,0,0,.04,0,.12.02.24.04.36.06.25.05.5.1.75.16.5.13.99.29,1.47.47.11.04.21.08.32.13-.29-.12.15.07.2.09.24.11.48.23.72.35.52.27,1.02.56,1.51.88.23.15.45.3.67.45.12.08.24.17.35.26.05.04.1.08.16.12.06.05.24.18.08.06.5.38.97.79,1.44,1.21.98.89,1.9,1.85,2.76,2.85.22.26.44.53.66.79.11.14.22.27.33.41.06.08.12.15.18.23-.11-.14.1.13.11.14.44.58.86,1.17,1.27,1.77.88,1.3,1.7,2.64,2.45,4.01.38.7.75,1.41,1.1,2.12.28.56,1.07.71,1.58.41.57-.33.69-1.02.41-1.58h0Z"/>
    </g>
    <path class="cls-2" d="M69.41,116.64c-1.58-3.24-3.89-7.12-7.31-11-1.49-1.7-2.99-3.17-4.42-4.43.36,1.2,1.75,6.38-.99,11.8-3.56,7.04-11.03,8.43-11.85,8.57,2.04,1.12,4.51,2.29,7.4,3.27,4.36,1.49,8.3,2.12,11.41,2.37.63-.2,3.27-1.13,4.89-3.94,1.76-3.05,1.02-6.06.86-6.64Z"/>
    <path class="cls-21" d="M58.71,104.01c.07,1.75-.09,4.1-1,6.67-2.55,7.17-9.01,10.34-10.65,11.08-1.01-.76-2.01-1.53-3.02-2.29,1.73-.68,5.03-2.26,7.84-5.65,4.11-4.97,4.41-10.49,4.43-12.25.8.82,1.59,1.63,2.39,2.45Z"/>
    <path class="cls-16" d="M69.98,116.04c-2.7-5.45-6.3-10.73-11.21-14.42-1.85-1.39-3.96-2.53-6.23-3.05-2-.46-4.1-.39-6.08.15-2.95.81-5.46,2.79-6.79,5.56-1.02,2.13-1.45,4.53-1.35,6.89.19,4.41,3,7.92,6.4,10.48,2.14,1.61,4.54,2.83,7.02,3.83,2.84,1.14,5.82,1.93,8.83,2.45.87.15,1.75.27,2.63.39.6.08,1.18-.59,1.15-1.15-.03-.69-.51-1.07-1.15-1.15-.29-.04-.6-.08-.99-.14s-.81-.13-1.21-.2c-.77-.13-1.53-.29-2.29-.46-1.44-.33-2.87-.72-4.27-1.19-.65-.22-1.29-.45-1.92-.7-.15-.06-.31-.12-.46-.19-.05-.02-.27-.11-.08-.03-.07-.03-.13-.06-.2-.09-.31-.14-.63-.28-.94-.42-1.13-.53-2.23-1.12-3.29-1.79-.51-.32-1.02-.67-1.5-1.03-.1-.07-.2-.15-.3-.22.22.17-.12-.1-.16-.13-.22-.18-.44-.36-.66-.55-.79-.69-1.51-1.45-2.17-2.26-.13-.16.01.02.03.04-.03-.04-.06-.09-.1-.13-.08-.11-.16-.21-.23-.32-.13-.19-.26-.39-.39-.59-.25-.41-.48-.83-.68-1.26-.04-.09-.09-.18-.12-.27.11.33,0-.02-.04-.1-.08-.21-.16-.43-.22-.65-.13-.42-.22-.85-.3-1.28-.05-.28.02.24,0-.05,0-.07-.01-.13-.02-.2-.02-.19-.03-.38-.04-.57-.02-.42-.02-.85,0-1.27,0-.24.03-.49.05-.73.01-.13.02-.25.04-.38,0-.07.02-.14.03-.22-.02.2-.01.09,0-.05.09-.56.2-1.11.36-1.65.08-.28.17-.56.28-.84.05-.13.1-.25.15-.37-.09.21,0,0,.02-.05.04-.09.09-.19.13-.28.28-.58.62-1.14,1.01-1.65-.12.16.12-.14.16-.19.12-.14.24-.27.37-.41.25-.26.52-.5.8-.72-.11.09.09-.07.11-.08.07-.05.13-.1.2-.14.15-.1.3-.2.45-.29.31-.19.63-.35.96-.5.05-.02.27-.12.07-.04.07-.03.13-.05.2-.08.14-.06.29-.11.44-.16.29-.1.58-.18.88-.26.25-.06.5-.11.75-.16.1-.02.2-.03.3-.05.33-.05-.23.02.13-.02.82-.1,1.64-.12,2.45-.03.03,0,.28,0,.08,0-.17,0,0,0,.04,0,.12.02.24.04.36.06.25.05.5.1.75.16.5.13.99.29,1.47.47.11.04.21.08.32.13-.29-.12.15.07.2.09.24.11.48.23.72.35.52.27,1.02.56,1.51.88.23.15.45.3.67.45.12.08.24.17.35.26.05.04.1.08.16.12.06.05.24.18.08.06.5.38.97.79,1.44,1.21.98.89,1.9,1.85,2.76,2.85.22.26.44.53.66.79.11.14.22.27.33.41.06.08.12.15.18.23-.11-.14.1.13.11.14.44.58.86,1.17,1.27,1.77.88,1.3,1.7,2.64,2.45,4.01.38.7.75,1.41,1.1,2.12.28.56,1.07.71,1.58.41.57-.33.69-1.02.41-1.58h0Z"/>
    <ellipse class="cls-2" cx="88.68" cy="123.91" rx="1.22" ry=".87" transform="translate(-61.98 101.11) rotate(-45.81)"/>
    <ellipse class="cls-2" cx="84.99" cy="128.18" rx="1.22" ry=".87" transform="translate(-68.78 131.12) rotate(-57.55)"/>
    <ellipse class="cls-2" cx="83.1" cy="133.72" rx="1.22" ry=".87" transform="translate(-58.46 202.61) rotate(-84.09)"/>
    <text class="cls-3" transform="translate(89.08 129.33) rotate(26.01)"><tspan x="0" y="0">S</tspan></text>
    <path class="cls-15" d="M113.2,76.13c-2.17,1.21-4.35,2.42-6.52,3.62-.78.43-1.08,1.78-.31,2.39,1.89,1.48,3.77,2.96,5.66,4.44.33.26.64.45,1.07.45.37,0,.82-.17,1.07-.45.5-.55.67-1.63,0-2.15-1.89-1.48-3.77-2.96-5.66-4.44l-.31,2.39c2.17-1.21,4.35-2.42,6.52-3.62.7-.39.98-1.4.55-2.08s-1.34-.96-2.08-.55h0Z"/>
    <path class="cls-11" d="M84.14,84.15c-.95,9.41,2.66,16.23,5.89,16.62,3.2.39,8.26-5.26,9.71-14.39-5.2-.74-10.4-1.49-15.6-2.23Z"/>
    <path class="cls-7" d="M86.47,95.98c.93-.43,2.36-.95,4.17-1.11,2.22-.21,4.01.2,5.08.54-.34.65-.94,1.63-1.94,2.58-.84.8-1.73,1.65-2.8,1.76-1.63.17-3.42-1.4-4.5-3.76Z"/>
    <path class="cls-2" d="M100.24,87.52c-.13,1.87-1.26,3.01-2.03,2.94-.73-.07-1.57-1.26-1.64-2.87,1.22-.02,2.45-.04,3.67-.06Z"/>
    <g>
      <path class="cls-4" d="M80.84,82.4c-.18.52-.16.91-.05,1.21.95,2.64,9.71,1.45,10.2,1.38h-.08c.44.2,8.42,3.99,10.13,1.77.19-.25.33-.62.32-1.16"/>
      <path class="cls-15" d="M80.22,82.23c-.35,1.1-.02,2.11.93,2.74.71.48,1.61.68,2.45.8,1.93.28,3.91.2,5.85.03.57-.05,1.14-.12,1.7-.2.61-.09.6-1.13,0-1.23h-.08c-.31-.06-.62.04-.75.36-.11.27-.03.65.26.79,1.23.6,2.51,1.11,3.81,1.56,1.75.61,3.8,1.27,5.66.91,1.22-.23,1.94-1.16,1.94-2.41,0-.82-1.27-.82-1.27,0,0,.28-.02.55-.19.78.05-.07-.06.06-.07.08-.02.02-.05.04-.07.06-.11.1.11-.06-.02.01-.06.03-.11.07-.17.1,0,0-.15.07-.06.03.08-.03-.02,0-.04.01-.16.05-.33.1-.5.12.13-.02-.08,0-.12.01-.09,0-.19.01-.28.01-.2,0-.39,0-.59-.02-.42-.03-.75-.08-1.2-.18-.91-.19-1.8-.46-2.68-.76-.42-.15-.84-.3-1.26-.46-.18-.07-.36-.14-.54-.21-.08-.03-.16-.06-.24-.1-.05-.02-.09-.04-.14-.06.08.03,0,0-.04-.02-.44-.19-.87-.38-1.3-.58l-.49,1.16h.08v-1.21c-.15.02.01,0,.02,0-.09,0-.17.02-.26.03-.26.03-.53.06-.8.09-.79.08-1.59.14-2.39.17-1.72.06-3.51.1-5.11-.52-.17-.07.07.03-.03-.01-.05-.02-.1-.05-.15-.07-.08-.04-.16-.08-.23-.13-.04-.02-.07-.05-.11-.07-.11-.07.08.07-.03-.02-.06-.05-.12-.11-.17-.16-.12-.11,0,.06-.07-.09-.03-.05-.12-.24-.06-.09-.12-.32-.07-.59.03-.91.25-.78-.98-1.12-1.23-.34h0Z"/>
    </g>
  </g>
</svg>