<?xml version="1.0" encoding="UTF-8"?>
<svg id="Layer_1" xmlns="http://www.w3.org/2000/svg" version="1.1" viewBox="0 0 32 32">
  <!-- Generator: Adobe Illustrator 30.2.1, SVG Export Plug-In . SVG Version: 2.1.1 Build 1)  -->
  <defs>
    <style>
      .st0 {
        fill: #26afc6;
      }

      .st1 {
        fill: #0049b2;
      }

      .st2 {
        fill: #cdd0d3;
      }
    </style>
  </defs>
  <rect class="st2" y="0" width="32" height="32" rx="6" ry="6"/>
  <path class="st1" d="M14.9,9.13v2.23l-3.6.18v-2.01c0-1.98-.74-2.86-2.12-2.86s-2.12.88-2.12,2.51v13.5c0,1.63.74,2.51,2.12,2.51s2.12-.88,2.12-2.86v-2.76l3.6.18v2.97c0,3.75-2.16,5.94-5.83,5.94s-5.76-2.19-5.76-5.94v-13.57c0-3.75,2.12-5.94,5.76-5.94s5.83,2.19,5.83,5.94Z"/>
  <path class="st0" d="M28.79,9.13v1.7l-3.6.18v-1.48c0-1.98-.74-2.86-2.19-2.86s-2.19.88-2.19,2.51v13.5c0,1.63.71,2.51,2.16,2.51s2.16-.88,2.16-2.86v-4.24h-2.12v-3.46h5.79v8.09c0,3.75-2.16,5.94-5.9,5.94s-5.83-2.19-5.83-5.94v-13.57c0-3.75,2.12-5.94,5.83-5.94s5.9,2.19,5.9,5.94Z"/>
</svg>